<?xml version="1.0" standalone="no"?>
<!DOCTYPE svg PUBLIC "-//W3C//DTD SVG 1.1//EN" "http://www.w3.org/Graphics/SVG/1.1/DTD/svg11.dtd" >
<svg>
<metadata>
Created by FontForge 20090914 at Wed Apr 12 23:12:23 2017
 By www-data
Copyright (c) 2012 by Jos Buivenga. All rights reserved.
</metadata>
<defs>
<font id="MuseoSansCyrl-500" horiz-adv-x="386" >
  <font-face 
    font-family="Museo Sans Cyrl 500"
    font-weight="400"
    font-stretch="normal"
    units-per-em="1000"
    panose-1="2 0 0 0 0 0 0 0 0 0"
    ascent="750"
    descent="-250"
    x-height="505.999"
    cap-height="706"
    bbox="-120 -214.999 1088 892.002"
    underline-thickness="50"
    underline-position="-100"
    unicode-range="U+0020-U+FB04"
  />
<missing-glyph horiz-adv-x="510" 
d="M5 0v700h500v-700h-500zM255 395l170 255h-340zM285 350l170 -255v510zM55 95l170 255l-170 255v-510zM85 50h340l-170 255z" />
    <glyph glyph-name="f_f" unicode="ff" horiz-adv-x="675" 
d="M98 0l-0.00195312 428h-63v78h63v17c0 32 4.66699 59.833 14 83.5s20.833 42 34.5 55s29.667 23.333 48 31s34.833 12.667 49.5 15s29.667 3.5 45 3.5c16 0 28.333 -1 37 -3v-84c-5.33301 1.33301 -13.666 2 -24.999 2c-70.667 0 -106 -34.667 -106 -104v-16h241v17
c0 32 4.66699 59.833 14 83.5s20.833 42 34.5 55s29.667 23.333 48 31s34.833 12.667 49.5 15s29.667 3.5 45 3.5c16 0 28.333 -1 37 -3v-84c-5.33301 1.33301 -13.666 2 -24.999 2c-70.667 0 -106 -34.667 -106 -104v-16h119v-78h-119v-428h-97v428h-241v-428h-97z" />
    <glyph glyph-name="fi" unicode="fi" horiz-adv-x="581" 
d="M98 0v428h-63v78h63v17c0 32 4.66699 59.833 14 83.5s20.833 42 34.5 55s29.667 23.333 48 31s34.833 12.667 49.5 15s29.667 3.5 45 3.5c11.333 0 23.666 -1 36.999 -3v-84c-5.33301 1.33301 -13.666 2 -24.999 2c-70.667 0 -106 -34.667 -106 -104v-16h312v-506h-96
v428h-216v-428h-97zM409 608v98h99v-98h-99z" />
    <glyph glyph-name="fl" unicode="fl" horiz-adv-x="598" 
d="M405 139v566.999h96v-551c0 -27.333 4.83301 -46.166 14.5 -56.499s23.167 -15.5 40.5 -15.5c7.33301 0 13 0.333008 17 1v-86c-14 -2 -24.667 -3 -32 -3c-90.667 0 -136 48 -136 144zM99 -0.000976562l-0.000976562 422h-63v79h63v22c0 32 4.66699 59.833 14 83.5
s20.833 42 34.5 55s29.667 23.333 48 31s34.833 12.667 49.5 15s29.667 3.5 45 3.5c12 0 24.333 -1 37 -3v-84c-5.33301 1.33301 -13.666 2 -24.999 2c-70.667 0 -106 -34.667 -106 -104v-21h119v-79h-119v-422h-97z" />
    <glyph glyph-name="f_f_i" unicode="ffi" horiz-adv-x="919" 
d="M98 0v428h-63v78h63v17c0 32 4.66699 59.833 14 83.5s20.833 42 34.5 55s29.667 23.333 48 31s34.833 12.667 49.5 15s29.667 3.5 45 3.5c11.333 0 23.666 -1 36.999 -3v-84c-5.33301 1.33301 -13.666 2 -24.999 2c-70.667 0 -106 -34.667 -106 -104v-16h241v17
c0 32 4.66699 59.833 14 83.5s20.833 42 34.5 55s29.667 23.333 48 31s34.833 12.667 49.5 15s29.667 3.5 45 3.5c11.333 0 23.666 -1 36.999 -3v-84c-5.33301 1.33301 -13.666 2 -24.999 2c-70.667 0 -106 -34.667 -106 -104v-16h312v-506h-96v428h-216v-428h-97v428h-241
v-428h-97zM747 608v98h100v-98h-100z" />
    <glyph glyph-name="f_f_l" unicode="ffl" horiz-adv-x="935" 
d="M98 0v428h-63v78h63v17c0 32 4.66699 59.833 14 83.5s20.833 42 34.5 55s29.667 23.333 48 31s34.833 12.667 49.5 15s29.667 3.5 45 3.5c11.333 0 23.666 -1 36.999 -3v-84c-5.33301 1.33301 -13.666 2 -24.999 2c-70.667 0 -106 -34.667 -106 -104v-16h241v17
c0 32 4.66699 59.833 14 83.5s20.833 42 34.5 55s29.667 23.333 48 31s34.833 12.667 49.5 15s29.667 3.5 45 3.5c11.333 0 23.666 -1 36.999 -3v-84c-5.33301 1.33301 -13.666 2 -24.999 2c-70.667 0 -106 -34.667 -106 -104v-16h119v-78h-119v-428h-97v428h-241v-428h-97z
M742 139v566.999h97v-551c0 -27.333 4.83301 -46.166 14.5 -56.499s23.167 -15.5 40.5 -15.5c7.33301 0 13 0.333008 17 1v-86c-14 -2 -24.667 -3 -32 -3c-91.333 0 -137 48 -137 144z" />
    <glyph glyph-name="f_j" unicode="fj" horiz-adv-x="581" 
d="M98 0v428h-63v78h63v17c0 32 4.66699 59.833 14 83.5s20.833 42 34.5 55s29.667 23.333 48 31s34.833 12.667 49.5 15s29.667 3.5 45 3.5c11.333 0 23.666 -1 36.999 -3v-84c-5.33301 1.33301 -13.666 2 -24.999 2c-70.667 0 -106 -34.667 -106 -104v-16h312v-523
c0 -32 -4.83301 -60 -14.5 -84s-21.334 -42.5 -35.001 -55.5s-30 -23.5 -49 -31.5s-35.667 -13 -50 -15s-29.166 -3 -44.499 -3c-8 0 -19.333 0.666992 -34 2v83c6.66699 -1.33301 14 -2 22 -2c11.333 0 22.333 1.33301 33 4s22.167 7.5 34.5 14.5s22.333 18.5 30 34.5
s11.5 35.667 11.5 59v439h-216v-428h-97zM409 608v98h99v-98h-99z" />
    <glyph glyph-name=".notdef" horiz-adv-x="510" 
d="M5 0v700h500v-700h-500zM255 395l170 255h-340zM285 350l170 -255v510zM55 95l170 255l-170 255v-510zM85 50h340l-170 255z" />
    <glyph glyph-name="space" unicode=" " horiz-adv-x="250" 
 />
    <glyph glyph-name="exclam" unicode="!" horiz-adv-x="275" 
d="M93 194l-6 512h100l-7 -512h-87zM87 0v99h100v-99h-100z" />
    <glyph glyph-name="quotedbl" unicode="&#x22;" horiz-adv-x="365" 
d="M215 530v188h76v-188h-76zM74 530v188h77v-188h-77z" />
    <glyph glyph-name="numbersign" unicode="#" horiz-adv-x="721" 
d="M141 0l33 191h-131l13 73h131l30 169h-130l12 73h130l35 200h81l-35 -200h155l35 200h81l-35 -200h131l-13 -73h-130l-30 -169h129l-12 -73h-129l-34 -191h-81l33 191h-155l-33 -191h-81zM268 264h155l30 169h-156z" />
    <glyph glyph-name="dollar" unicode="$" horiz-adv-x="577" 
d="M60 81l55.002 74.999c22 -22 49.5 -40.167 82.5 -54.5s65.5 -21.5 97.5 -21.5c34.667 0 63.667 9.33301 87 28s35 44 35 76c0 26.667 -11.833 49.834 -35.5 69.501s-52.5 36.667 -86.5 51s-68 29.833 -102 46.5s-62.833 39.334 -86.5 68.001s-35.5 62.667 -35.5 102
c0 48.667 17.167 91.167 51.5 127.5s79.166 58.5 134.499 66.5v94h70v-93c67.333 -4 124.666 -27.333 171.999 -70l-45 -81c-20 18 -44 32.833 -72 44.5s-55.667 17.5 -83 17.5c-36.667 0 -67.167 -10.167 -91.5 -30.5s-36.5 -44.833 -36.5 -73.5
c0 -22 8.5 -41.5 25.5 -58.5s38.333 -30.667 64 -41s53.5 -22.5 83.5 -36.5s57.833 -28.5 83.5 -43.5s47 -36 64 -63s25.5 -58.167 25.5 -93.5c0 -51.333 -17 -95.333 -51 -132s-80.333 -58.334 -139 -65.001v-92h-70v92c-82 8 -147.667 38.333 -197 91z" />
    <glyph glyph-name="percent" unicode="%" horiz-adv-x="763" 
d="M200 422c-42 0 -77.667 14.333 -107 43s-44 63.667 -44 105c0 40.667 14.667 75.5 44 104.5s65 43.5 107 43.5s78 -14.5 108 -43.5s45 -63.833 45 -104.5s-15 -75.5 -45 -104.5s-66 -43.5 -108 -43.5zM64 0l541 706h94l-540 -706h-95zM200 496
c21.333 0 39.168 7.16699 53.501 21.5s21.5 31.833 21.5 52.5s-7.33301 38.334 -22 53.001s-32.334 22 -53.001 22s-38 -7.33301 -52 -22s-21 -32.334 -21 -53.001s7 -38.167 21 -52.5s31.333 -21.5 52 -21.5zM412.002 135c0 41.333 14.667 76.5 44 105.5s65 43.5 107 43.5
s77.833 -14.5 107.5 -43.5s44.5 -64.167 44.5 -105.5c0 -40.667 -14.833 -75.334 -44.5 -104.001s-65.5 -43 -107.5 -43s-77.667 14.333 -107 43s-44 63.334 -44 104.001zM490.002 136c0 -20.667 7 -38.167 21 -52.5s31.333 -21.5 52 -21.5s38.167 7.16699 52.5 21.5
s21.5 31.833 21.5 52.5s-7.16699 38.334 -21.5 53.001s-31.833 22 -52.5 22s-38 -7.33301 -52 -22s-21 -32.334 -21 -53.001z" />
    <glyph glyph-name="ampersand" unicode="&#x26;" horiz-adv-x="674" 
d="M56 197c0 40.667 11.167 77.9971 33.5 111.997s52.5 57 90.5 69v2c-28.667 12.667 -51.5 32.334 -68.5 59.001s-25.5 59 -25.5 97c0 57.333 20.167 102 60.5 134s92.833 48 157.5 48c26.667 0 55.334 -3.66699 86.001 -11l-25 -79c-14.667 4 -32.334 6 -53.001 6
c-36 0 -65.833 -9.66699 -89.5 -29s-35.5 -45.666 -35.5 -78.999c0 -29.333 9.5 -55.166 28.5 -77.499s52.5 -33.5 100.5 -33.5h131v96h98v-96h94v-86h-94v-94c0 -78 -21.667 -138.667 -65 -182s-103.333 -65 -180 -65c-72 0 -130.667 19.833 -176 59.5s-68 89.5 -68 149.5z
M157 202.997c0 -35.333 13.166 -64.833 39.499 -88.5s60.833 -35.5 103.5 -35.5c46.667 0 82.834 13.333 108.501 40s38.5 67 38.5 121v89h-134c-50 0 -88.5 -11 -115.5 -33s-40.5 -53 -40.5 -93z" />
    <glyph glyph-name="quotesingle" unicode="'" horiz-adv-x="226" 
d="M74 530v188h77v-188h-77z" />
    <glyph glyph-name="parenleft" unicode="(" horiz-adv-x="293" 
d="M169 -95c-77.333 128.667 -116 273.668 -116 435.001c0 140 38.667 271.667 116 395h85c-75.333 -126 -113 -258 -113 -396c0 -152.667 37.667 -297.334 113 -434.001h-85z" />
    <glyph glyph-name="parenright" unicode=")" horiz-adv-x="293" 
d="M39 -95c75.333 136.667 113 281.333 113 434c0 138 -37.667 270 -113 396h85c77.333 -123.333 116 -255 116 -395c0 -161.333 -38.667 -306.333 -116 -435h-85z" />
    <glyph glyph-name="asterisk" unicode="*" horiz-adv-x="495" 
d="M170 329l-73 52l90 110v2l-137 37l27 85l133 -51l-8 142h91l-8 -142l134 50l27 -83l-137 -38v-2l89 -110l-72 -52l-78 118h-2z" />
    <glyph glyph-name="plus" unicode="+" horiz-adv-x="577" 
d="M24 246v78h224v246h82v-246h223v-78h-223v-246h-82v246h-224z" />
    <glyph glyph-name="comma" unicode="," horiz-adv-x="272" 
d="M35 -101l62 206h102l-87 -206h-77z" />
    <glyph glyph-name="hyphen" unicode="-" horiz-adv-x="432" 
d="M70 242v86h292v-86h-292z" />
    <glyph glyph-name="period" unicode="." horiz-adv-x="244" 
d="M70 0v105h104v-105h-104z" />
    <glyph glyph-name="slash" unicode="/" horiz-adv-x="416" 
d="M38 -42l254 786h86l-254 -786h-86z" />
    <glyph glyph-name="zero" unicode="0" horiz-adv-x="622" 
d="M311 -12c-45.333 0 -84.666 9.33301 -117.999 28s-59.333 45 -78 79s-32.334 72.333 -41.001 115s-13 90.667 -13 144s4.33301 101.166 13 143.499s22.334 80.333 41.001 114s44.667 59.834 78 78.501s72.666 28 117.999 28c166.667 0 250 -121.333 250 -364
c0 -244 -83.333 -366 -250 -366zM311 79c98.667 0 148 91.667 148 275c0 182 -49.333 273 -148 273s-148 -91 -148 -273c0 -183.333 49.333 -275 148 -275z" />
    <glyph glyph-name="one" unicode="1" horiz-adv-x="494" 
d="M57 0l-0.000976562 86h156v456l1 43h-2c-5.33301 -10 -16.666 -23.667 -33.999 -41l-66 -64l-60 62l169 164h88v-620h155v-86h-407z" />
    <glyph glyph-name="two" unicode="2" horiz-adv-x="573" 
d="M60 0c-3.33301 21.333 -4.99707 39.3311 -4.99707 53.998c0 34 6.33301 65.667 19 95s29.167 54.666 49.5 75.999s42.833 41.5 67.5 60.5s49.5 36.833 74.5 53.5s47.667 33.334 68 50.001s36.833 35.167 49.5 55.5s19 41.5 19 63.5c0 34.667 -12 62.834 -36 84.501
s-54.667 32.5 -92 32.5c-28.667 0 -55.834 -8.33301 -81.501 -25s-46.167 -38.334 -61.5 -65.001l-73 49c21.333 39.333 51.666 71.5 90.999 96.5s83.666 37.5 132.999 37.5c65.333 0 118.666 -18.667 159.999 -56s62 -86.333 62 -147c0 -36 -8.33301 -69.667 -25 -101
s-37.5 -57.166 -62.5 -77.499s-52.167 -41.166 -81.5 -62.499s-56.666 -40.333 -81.999 -57s-46.5 -36.5 -63.5 -59.5s-25.833 -46.833 -26.5 -71.5h352v-86h-455z" />
    <glyph glyph-name="three" unicode="3" horiz-adv-x="567" 
d="M44 84l54.001 75c20.667 -22 46.334 -40.333 77.001 -55s62 -22 94 -22c40 0 74 12.167 102 36.5s42 55.166 42 92.499c0 41.333 -15.833 73.333 -47.5 96s-70.834 34 -117.501 34h-48l-23 53l154 181c6.66699 8 13.667 15.833 21 23.5l17 17.5l6 5v2
c-14 -2 -34 -3 -60 -3h-239v86h422v-63l-192 -222c34 -3.33301 65.833 -12 95.5 -26s55.667 -36.833 78 -68.5s33.5 -69.167 33.5 -112.5c0 -62 -22.333 -115.167 -67 -159.5s-102.334 -66.5 -173.001 -66.5c-42 0 -83.333 8.33301 -124 25s-75.667 40.334 -105 71.001z" />
    <glyph glyph-name="four" unicode="4" horiz-adv-x="610" 
d="M34 189v62l327 455h112v-434h96v-83h-96v-189h-97v189h-342zM143 272l233.001 0.000976562v258l4 71h-2c-10.667 -22.667 -22.334 -42.334 -35.001 -59.001l-200 -268v-2z" />
    <glyph glyph-name="five" unicode="5" horiz-adv-x="563" 
d="M49 86l56 71.998c41.333 -50.667 93 -76 155 -76c42.667 0 79 13.333 109 40s45 61 45 103s-15.167 76.667 -45.5 104s-68.5 41 -114.5 41c-44 0 -83.667 -11.667 -119 -35l-58 21l35 350h357v-86h-271l-16 -149l-6 -36h2c26.667 14 57.334 21 92.001 21
c73.333 0 132.666 -22.167 177.999 -66.5s68 -99.166 68 -164.499c0 -67.333 -23.833 -123.666 -71.5 -168.999s-107.167 -68 -178.5 -68c-42 0 -82.167 8.5 -120.5 25.5s-70.5 41.167 -96.5 72.5z" />
    <glyph glyph-name="six" unicode="6" horiz-adv-x="597" 
d="M57 320c0 37.333 4 74.499 12 111.499s20.5 72.833 37.5 107.5s37.5 65.167 61.5 91.5s53.833 47.5 89.5 63.5s74.5 24 116.5 24c51.333 0 97.333 -9.66699 138 -29l-32 -85c-29.333 15.333 -63.333 23 -102 23c-60 0 -108 -23.167 -144 -69.5
s-58.333 -102.166 -67 -167.499h2c14.667 20 36.5 36 65.5 48s59.167 18 90.5 18c66 0 119.667 -22 161 -66s62 -99.667 62 -167c0 -68 -21.333 -124.167 -64 -168.5s-97 -66.5 -163 -66.5c-76 0 -139 30.667 -189 92s-75 141.333 -75 240zM324 78.999
c37.333 0 67.668 13.667 91.001 41s35 61.666 35 102.999c0 44.667 -13 80.834 -39 108.501s-61.333 41.5 -106 41.5c-38.667 0 -72.334 -9.66699 -101.001 -29s-43 -44.333 -43 -75c0 -43.333 15.5 -85.833 46.5 -127.5s69.833 -62.5 116.5 -62.5z" />
    <glyph glyph-name="seven" unicode="7" horiz-adv-x="537" 
d="M92 0l275 555c6 12 12.333 23.5 19 34.5s12 18.833 16 23.5l5 7v2c-9.33301 -1.33301 -26 -2 -50 -2h-316v86h472v-68l-318 -638h-103z" />
    <glyph glyph-name="eight" unicode="8" horiz-adv-x="603" 
d="M55 201c0 24.667 4.33301 48.5029 13 71.5029s20 42.5 34 58.5s26 28.5 36 37.5s20 16.833 30 23.5c-52.667 36.667 -79 83 -79 139c0 52 19 96.167 57 132.5s92.333 54.5 163 54.5c66 0 119.5 -17.167 160.5 -51.5s61.5 -79.833 61.5 -136.5
c0 -26.667 -6 -54.167 -18 -82.5s-23.5 -49.833 -34.5 -64.5s-21.833 -27.334 -32.5 -38.001c64 -38.667 96 -88.667 96 -150c0 -56.667 -22.333 -105.334 -67 -146.001s-103 -61 -175 -61c-70 0 -128.333 20.167 -175 60.5s-70 91.166 -70 152.499zM370 383.003
c42.667 45.333 63.9971 91.668 63.9971 139.001c0 33.333 -11.667 59.5 -35 78.5s-54 28.5 -92 28.5c-37.333 0 -66.666 -9.33301 -87.999 -28s-32 -42 -32 -70c0 -10 1.5 -19.333 4.5 -28s6.66699 -16.334 11 -23.001s10.833 -13.5 19.5 -20.5s16.334 -12.833 23.001 -17.5
s16.167 -10 28.5 -16l30 -14.5c7.66699 -3.66699 18.834 -8.5 33.501 -14.5s25.667 -10.667 33 -14zM155.997 209.005c0 -38 14.333 -69.5 43 -94.5s62 -37.5 100 -37.5c38.667 0 72 11.167 100 33.5s42 51.166 42 86.499c0 15.333 -3.5 29.166 -10.5 41.499
s-18.5 23.833 -34.5 34.5s-30.333 19.334 -43 26.001s-31.5 15.334 -56.5 26.001s-43.167 18.667 -54.5 24c-57.333 -40 -86 -86.667 -86 -140z" />
    <glyph glyph-name="nine" unicode="9" horiz-adv-x="597" 
d="M84 17l31.999 86.001c32 -16 65.667 -24 101 -24c60.667 0 109 23.167 145 69.5s58.333 102.166 67 167.499h-2c-14 -20 -35.667 -36 -65 -48s-59.666 -18 -90.999 -18c-66 0 -119.667 22 -161 66s-62 99.333 -62 166c0 69.333 21.333 126 64 170s97 66 163 66
c76.667 0 139.834 -30.667 189.501 -92s74.5 -141.666 74.5 -240.999c0 -46.667 -6.5 -92.834 -19.5 -138.501s-32 -88.167 -57 -127.5s-58.333 -71 -100 -95s-88.834 -36 -141.501 -36c-52 0 -97.667 9.66699 -137 29zM290.999 333.001
c39.333 0 73.332 10.168 101.999 30.501s43 43.166 43 68.499c0 48 -15.833 92.5 -47.5 133.5s-69.167 61.5 -112.5 61.5c-39.333 0 -70.666 -13.5 -93.999 -40.5s-35 -61.833 -35 -104.5c0 -44 13 -79.833 39 -107.5s61 -41.5 105 -41.5z" />
    <glyph glyph-name="colon" unicode=":" horiz-adv-x="242" 
d="M70 403v103h102v-103h-102zM70 0v103h102v-103h-102z" />
    <glyph glyph-name="semicolon" unicode=";" horiz-adv-x="288" 
d="M108 403v103h100v-103h-100zM53 -101l53 206h100l-76 -206h-77z" />
    <glyph glyph-name="less" unicode="&#x3c;" horiz-adv-x="577" 
d="M42 252v66l466 208v-89l-357 -151v-2l357 -151v-89z" />
    <glyph glyph-name="equal" unicode="=" horiz-adv-x="577" 
d="M50 340v78h477v-78h-477zM50 151v78h477v-78h-477z" />
    <glyph glyph-name="greater" unicode="&#x3e;" horiz-adv-x="577" 
d="M68 44v89l357 151v2l-357 151v89l466 -208v-66z" />
    <glyph glyph-name="question" unicode="?" horiz-adv-x="466" 
d="M151 194l0.000976562 46.998c0 28 5.83301 53.333 17.5 76s25.834 41.834 42.501 57.501l49.5 45c16.333 14.333 30.333 30.833 42 49.5s17.5 39 17.5 61c0 28 -10.833 51.5 -32.5 70.5s-48.834 28.5 -81.501 28.5c-40.667 0 -78.334 -14 -113.001 -42l-54 69
c48 42.667 106 64 174 64c58 0 107.333 -17 148 -51s61 -78 61 -132c0 -30.667 -6 -58.167 -18 -82.5s-26.667 -44.666 -44 -60.999s-34.833 -32 -52.5 -47s-32.5 -31.833 -44.5 -50.5s-18 -39 -18 -61v-41h-94zM148.001 -0.00195312v99h100v-99h-100z" />
    <glyph glyph-name="at" unicode="@" horiz-adv-x="796" 
d="M56 241c0 103.333 35.3369 190.834 106.004 262.501s157 107.5 259 107.5c90 0 155.833 -19.167 197.5 -57.5s62.5 -86.833 62.5 -145.5v-283h72v-73h-273c-60.667 0 -110.334 18.5 -149.001 55.5s-58 81.167 -58 132.5c0 52 19.167 96.333 57.5 133
s88.166 55 149.499 55h108c-0.666992 29.333 -15.334 53.833 -44.001 73.5s-68 29.5 -118 29.5c-76.667 0 -141.334 -28.667 -194.001 -86s-79 -125.333 -79 -204c0 -80.667 26.5 -148.667 79.5 -204s121.167 -83 204.5 -83v-79c-110 0 -201 35.167 -273 105.5
s-108 157.166 -108 260.499zM371.004 242.001c0 -32.667 11 -60.333 33 -83s49.667 -34 83 -34h101v236h-99c-34 0 -62.167 -11.5 -84.5 -34.5s-33.5 -51.167 -33.5 -84.5z" />
    <glyph glyph-name="A" unicode="A" horiz-adv-x="641" 
d="M15 0l253 706h105l253 -706h-102l-71 203h-266l-71 -203h-101zM213 285l214 0.000976562l-78 223l-28 101h-2c-10 -42.667 -19 -76.334 -27 -101.001z" />
    <glyph glyph-name="B" unicode="B" horiz-adv-x="624" 
d="M93 0l-0.00195312 706h247c61.333 0 110.833 -16 148.5 -48s56.5 -76 56.5 -132c0 -34 -7.83301 -64.333 -23.5 -91s-37.167 -47 -64.5 -61v-2c36.667 -10.667 65.334 -31.667 86.001 -63s31 -67.333 31 -108c0 -64 -21.667 -113.5 -65 -148.5
s-97.666 -52.5 -162.999 -52.5h-253zM191.998 409h148.001c31.333 0 56.5 10 75.5 30s28.5 45.667 28.5 77s-9.33301 56.5 -28 75.5s-44.334 28.5 -77.001 28.5h-147v-211zM191.999 86h159c37.333 0 66.833 11 88.5 33s32.5 51.333 32.5 88c0 36 -11 65 -33 87
s-51.333 33 -88 33h-159v-241z" />
    <glyph glyph-name="C" unicode="C" horiz-adv-x="717" 
d="M50 357c0 103.333 33.834 189.333 101.501 258s153.5 103 257.5 103c107.333 0 193.333 -31 258 -93l-50 -74c-26 23.333 -57.5 42 -94.5 56s-73.5 21 -109.5 21c-80 0 -143.5 -25.667 -190.5 -77s-70.5 -115.666 -70.5 -192.999c0 -78 24 -144 72 -198
s111.667 -81 191 -81c39.333 0 78.166 8.16699 116.499 24.5s71.833 38.833 100.5 67.5l53 -71c-74.667 -74.667 -165.667 -112 -273 -112s-194.5 35.167 -261.5 105.5s-100.5 158.166 -100.5 263.499z" />
    <glyph glyph-name="D" unicode="D" horiz-adv-x="737" 
d="M93 0v706.001h235c108.667 0 195.334 -31.167 260.001 -93.5s97 -148.5 97 -258.5c0 -110.667 -32.333 -197.334 -97 -260.001s-151.334 -94 -260.001 -94h-235zM192 86.001h129c80.667 0 144.5 23.167 191.5 69.5s70.5 112.5 70.5 198.5
c0 84.667 -23.667 150.167 -71 196.5s-111 69.5 -191 69.5h-129v-534z" />
    <glyph glyph-name="E" unicode="E" horiz-adv-x="564" 
d="M93 0v706h411v-86h-312v-221h253v-86h-253v-227h329v-86h-428z" />
    <glyph glyph-name="F" unicode="F" horiz-adv-x="514" 
d="M93 0v706h389v-86h-290v-233h247v-86h-247v-301h-99z" />
    <glyph glyph-name="G" unicode="G" horiz-adv-x="762" 
d="M50 354c0 102.667 34.333 189 103 259s154.334 105 257.001 105c103.333 0 189 -28.667 257 -86l-50 -73c-24 20 -54.5 36.5 -91.5 49.5s-73.167 19.5 -108.5 19.5c-80 0 -144.167 -26 -192.5 -78s-72.5 -116.667 -72.5 -194c0 -80.667 24.667 -147 74 -199
s111 -78 185 -78c76.667 0 143.334 29.333 200.001 88v102h-114v86h205v-355h-87v44l1 30h-2c-24.667 -26 -56.334 -46.833 -95.001 -62.5s-79.334 -23.5 -122.001 -23.5c-96.667 0 -178.667 34.5 -246 103.5s-101 156.5 -101 262.5z" />
    <glyph glyph-name="H" unicode="H" horiz-adv-x="750" 
d="M93 0v706h99v-310h367v310h98v-706h-98v310h-367v-310h-99z" />
    <glyph glyph-name="I" unicode="I" horiz-adv-x="286" 
d="M93 0v706h99v-706h-99z" />
    <glyph glyph-name="J" unicode="J" horiz-adv-x="533" 
d="M28 203l0.000976562 34.999h98v-30c0 -37.333 9.16699 -68.166 27.5 -92.499s46.166 -36.5 83.499 -36.5c32 0 58.5 10.167 79.5 30.5s31.5 51.833 31.5 94.5v416h-178v86h276v-503c0 -71.333 -20.5 -125 -61.5 -161s-90.167 -54 -147.5 -54s-106.5 18.167 -147.5 54.5
s-61.5 89.833 -61.5 160.5z" />
    <glyph glyph-name="K" unicode="K" horiz-adv-x="614" 
d="M93 0v706h99v-297h105l179 297h109l-206 -335v-2l219 -369h-113l-188 323h-105v-323h-99z" />
    <glyph glyph-name="L" unicode="L" horiz-adv-x="526" 
d="M93 0v706h99v-620h317v-86h-416z" />
    <glyph glyph-name="M" unicode="M" horiz-adv-x="851" 
d="M66 0l58.001 706h103l163 -382l34 -95h2c12.667 37.333 24.334 69 35.001 95l163 382h103l57 -706h-98l-34 445l-2 104h-2c-14.667 -43.333 -27.334 -78 -38.001 -104l-141 -318h-88l-140 318l-38 106h-2c1.33301 -42 0.666016 -77.333 -2.00098 -106l-34 -445h-99z" />
    <glyph glyph-name="N" unicode="N" horiz-adv-x="752" 
d="M93 0v706h98l315 -458l58 -103h2c-4 42 -6 76.333 -6 103v458h98v-706h-97l-315 458l-58 103h-2c4 -42 6 -76.333 6 -103v-458h-99z" />
    <glyph glyph-name="O" unicode="O" horiz-adv-x="823" 
d="M49 358c0 102 34.332 187.5 102.999 256.5s155.334 103.5 260.001 103.5c104 0 190.333 -34.5 259 -103.5s103 -154.5 103 -256.5c0 -104.667 -34.333 -192.5 -103 -263.5s-155 -106.5 -259 -106.5s-190.5 35.5 -259.5 106.5s-103.5 158.833 -103.5 263.5zM150.999 358
c0 -79.333 24.667 -145.666 74 -198.999s111.666 -80 186.999 -80c74.667 0 136.667 26.667 186 80s74 119.666 74 198.999c0 76.667 -24.667 140.834 -74 192.501s-111.333 77.5 -186 77.5c-75.333 0 -137.666 -25.833 -186.999 -77.5s-74 -115.834 -74 -192.501z" />
    <glyph glyph-name="P" unicode="P" horiz-adv-x="606" 
d="M93 0v706h259c65.333 0 118.5 -20.167 159.5 -60.5s61.5 -93.833 61.5 -160.5s-20.667 -120.667 -62 -162s-94.333 -62 -159 -62h-160v-261h-99zM192 347l144 -0.000976562c42 0 75.333 12.333 100 37s37 58.334 37 101.001c0 42 -12.167 75 -36.5 99s-57.5 36 -99.5 36
h-145v-273z" />
    <glyph glyph-name="Q" unicode="Q" horiz-adv-x="824" 
d="M50 357c0 102.667 34.335 188.502 103.002 257.502s154.667 103.5 258 103.5c105.333 0 192.166 -34.5 260.499 -103.5s102.5 -154.833 102.5 -257.5c0 -88.667 -27.333 -166.334 -82 -233.001l83 -80l-58 -62l-82 83c-62.667 -51.333 -137.334 -77 -224.001 -77
c-104 0 -190.167 35.667 -258.5 107s-102.5 158.666 -102.5 261.999zM152.002 357.002c0 -78 24.834 -143.833 74.501 -197.5s111.167 -80.5 184.5 -80.5c60.667 0 112 17.333 154 52l-83 81l57 62l81 -83c34.667 48 52 103.333 52 166
c0 77.333 -24.833 141.833 -74.5 193.5s-111.834 77.5 -186.501 77.5c-73.333 0 -134.833 -25.833 -184.5 -77.5s-74.5 -116.167 -74.5 -193.5z" />
    <glyph glyph-name="R" unicode="R" horiz-adv-x="628" 
d="M93 0v706.002h224c59.333 0 103 -6.33301 131 -19c34.667 -15.333 62 -39 82 -71s30 -70 30 -114c0 -45.333 -11.5 -85.833 -34.5 -121.5s-53.5 -59.834 -91.5 -72.501v-2c5.33301 -6.66699 12 -17.334 20 -32.001l150 -274h-112l-149 281h-151v-281h-99zM192 367.002
h141.999c38.667 0 69.334 11.833 92.001 35.5s34 55.167 34 94.5c0 55.333 -22 92.333 -66 111c-18 8 -46.333 12 -85 12h-117v-253z" />
    <glyph glyph-name="S" unicode="S" horiz-adv-x="545" 
d="M41 81l55.9971 75c22.667 -22 50 -40.167 82 -54.5s64 -21.5 96 -21.5c37.333 0 67.333 9.16699 90 27.5s34 42.833 34 73.5c0 28.667 -11.667 53.167 -35 73.5s-51.833 37.5 -85.5 51.5s-67.167 29 -100.5 45s-61.666 38.333 -84.999 67s-35 63.334 -35 104.001
c0 58.667 21.833 106 65.5 142s98.834 54 165.501 54c80.667 0 146.334 -24 197.001 -72l-45 -81c-20 18.667 -44.167 33.667 -72.5 45s-56.166 17 -83.499 17c-36.667 0 -67 -9.16699 -91 -27.5s-36 -42.5 -36 -72.5c0 -23.333 8.33301 -44 25 -62s37.667 -32.167 63 -42.5
s52.666 -22.333 81.999 -36s56.666 -27.834 81.999 -42.501s46.333 -35.334 63 -62.001s25 -57.667 25 -93c0 -57.333 -20 -105.166 -60 -143.499s-95 -57.5 -165 -57.5c-91.333 0 -168.666 31 -231.999 93z" />
    <glyph glyph-name="T" unicode="T" horiz-adv-x="615" 
d="M258 0v620h-243v86h584v-86h-243v-620h-98z" />
    <glyph glyph-name="U" unicode="U" horiz-adv-x="726" 
d="M85 250v456h99v-455c0 -54 16.167 -96.167 48.5 -126.5s75.833 -45.5 130.5 -45.5s98 15.167 130 45.5s48 72.833 48 127.5v454h99v-456c0 -78.667 -25.333 -142 -76 -190s-117.334 -72 -200.001 -72c-83.333 0 -150.666 24 -201.999 72s-77 111.333 -77 190z" />
    <glyph glyph-name="V" unicode="V" horiz-adv-x="644" 
d="M270 0l-258 706.001h106l176 -499l27 -97h2c9.33301 39.333 18.333 71.666 27 96.999l177 499h105l-258 -706h-104z" />
    <glyph glyph-name="W" unicode="W" horiz-adv-x="941" 
d="M209 0l-180 706h104l123 -518l14 -75h2c4 24 9.33301 49 16 75l139 518h87l138 -518l16 -75h2c2.66699 24.667 7 49.667 13 75l131 518h102l-186 -706h-113l-124 458l-21 99h-4c-6 -35.333 -13.333 -68.333 -22 -99l-123 -458h-114z" />
    <glyph glyph-name="X" unicode="X" horiz-adv-x="598" 
d="M16 0l222.001 364l-208 342h113l111 -191l45 -84h2c13.333 30 27.666 58 42.999 84l112 191h114l-210 -342l223 -364h-111l-129 217l-44 81h-2c-14 -28 -28.333 -55 -43 -81l-128 -217h-110z" />
    <glyph glyph-name="Y" unicode="Y" horiz-adv-x="592" 
d="M247 0v299l-237 407h112l130 -232l43 -89h2c14 32 28.333 61.667 43 89l130 232h112l-237 -407v-299h-98z" />
    <glyph glyph-name="Z" unicode="Z" horiz-adv-x="594" 
d="M36 0l-0.000976562 66l339 490c8 12 16.333 23.333 25 34s15.334 18.334 20.001 23.001l6 7v2c-12.667 -1.33301 -30 -2 -52 -2h-321v86h496v-65l-340 -491c-8 -11.333 -16.167 -22.333 -24.5 -33s-14.5 -18.334 -18.5 -23.001l-7 -8v-2c12 1.33301 29.333 2 52 2h342
v-86h-517z" />
    <glyph glyph-name="bracketleft" unicode="[" horiz-adv-x="301" 
d="M86 -95v830h166v-73h-81v-683h81v-74h-166z" />
    <glyph glyph-name="backslash" unicode="\" horiz-adv-x="416" 
d="M292 -42l-254 786h86l254 -786h-86z" />
    <glyph glyph-name="bracketright" unicode="]" horiz-adv-x="301" 
d="M49 -21h81v683h-81v73h166v-830h-166v74z" />
    <glyph glyph-name="asciicircum" unicode="^" horiz-adv-x="612" 
d="M69 247l200 459h63l200 -459h-88l-144 352l-143 -352h-88z" />
    <glyph glyph-name="underscore" unicode="_" horiz-adv-x="597" 
d="M29 0h539v-78h-539v78z" />
    <glyph glyph-name="grave" unicode="`" horiz-adv-x="499" 
d="M256 755l-95 127h104l73 -127h-82z" />
    <glyph glyph-name="a" unicode="a" horiz-adv-x="527" 
d="M33 138c0 37.333 10.334 68.6689 31.001 94.002s48.167 43.5 82.5 54.5s66.166 18.5 95.499 22.5s60.333 6 93 6h26v10c0 74 -37 111 -111 111c-48.667 0 -96 -16.333 -142 -49l-39 71c20.667 17.333 48.667 31.666 84 42.999s70.333 17 105 17c64 0 113.333 -17 148 -51
s52 -83 52 -147v-320h-91v51l3 40h-2c-15.333 -30 -37.833 -54.667 -67.5 -74s-62.5 -29 -98.5 -29c-46 0 -85.667 13.667 -119 41s-50 63.666 -50 108.999zM130.001 146.003c0 -22 8.33301 -41 25 -57s40 -24 70 -24c40 0 72.667 16.667 98 50s38 70.333 38 111v19h-25
c-137.333 0 -206 -33 -206 -99z" />
    <glyph glyph-name="b" unicode="b" horiz-adv-x="601" 
d="M75 0v706h97v-234l-4 -43h2c15.333 27.333 37.833 49 67.5 65s61.834 24 96.501 24c68 0 122 -24.333 162 -73s60 -112.667 60 -192c0 -80 -21.333 -144.167 -64 -192.5s-98 -72.5 -166 -72.5c-33.333 0 -64.333 8.16699 -93 24.5s-51.334 38.5 -68.001 66.5h-2
c2 -10 3 -22.667 3 -38v-41h-91zM169 251c0 -48.667 12.5 -90.666 37.5 -125.999s60.167 -53 105.5 -53c41.333 0 76 16.167 104 48.5s42 76.166 42 131.499c0 54.667 -13.167 98.5 -39.5 131.5s-60.833 49.5 -103.5 49.5c-41.333 0 -76 -15.333 -104 -46s-42 -76 -42 -136z
" />
    <glyph glyph-name="c" unicode="c" horiz-adv-x="545" 
d="M42 253c0 75.333 25.502 138.333 76.502 189s115.833 76 194.5 76c80 0 143.333 -24.667 190 -74l-46 -68c-38.667 38.667 -85.334 58 -140.001 58c-50.667 0 -92.667 -17.167 -126 -51.5s-50 -77.166 -50 -128.499c0 -52 16.833 -95.333 50.5 -130s76.5 -52 128.5 -52
c28 0 56.167 6.16699 84.5 18.5s52.166 28.833 71.499 49.5l39 -71c-23.333 -24.667 -53 -44.334 -89 -59.001s-73.667 -22 -113 -22c-79.333 0 -144.333 25 -195 75s-76 113.333 -76 190z" />
    <glyph glyph-name="d" unicode="d" horiz-adv-x="601" 
d="M44 253c0 80 21.333 144.167 64 192.5s97.667 72.5 165 72.5c32.667 0 63 -7.16699 91 -21.5s50 -34.833 66 -61.5h2c-1.33301 10 -2 21.333 -2 34v237h96v-706h-92v51l3 34h-2c-15.333 -28.667 -37.5 -52 -66.5 -70s-62.833 -27 -101.5 -27
c-67.333 0 -121.333 24.333 -162 73s-61 112.667 -61 192zM143 253c0 -54.667 13.167 -98.501 39.5 -131.501s60.833 -49.5 103.5 -49.5c41.333 0 76 15.333 104 46s42 76 42 136c0 49.333 -12.5 91.5 -37.5 126.5s-60.5 52.5 -106.5 52.5
c-41.333 0 -75.833 -16.167 -103.5 -48.5s-41.5 -76.166 -41.5 -131.499z" />
    <glyph glyph-name="e" unicode="e" horiz-adv-x="557" 
d="M42 253c0 79.333 23.999 143.335 71.999 192.002s108.667 73 182 73c68.667 0 122.334 -22.5 161.001 -67.5s58 -101.5 58 -169.5c0 -8.66699 -1.33301 -22.334 -4 -41.001h-368c2.66699 -52.667 20.5 -93.834 53.5 -123.501s73.167 -44.5 120.5 -44.5
c55.333 0 105 19.667 149 59l41 -71c-24 -22 -53.833 -39.5 -89.5 -52.5s-71.167 -19.5 -106.5 -19.5c-78.667 0 -143.167 25.167 -193.5 75.5s-75.5 113.5 -75.5 189.5zM145.999 310.002h271c-1.33301 42 -13.5 74.667 -36.5 98s-51.833 35 -86.5 35
c-38 0 -70.5 -11.833 -97.5 -35.5s-43.833 -56.167 -50.5 -97.5z" />
    <glyph glyph-name="f" unicode="f" horiz-adv-x="339" 
d="M99 0l-0.000976562 422h-63v79h63v22c0 32 4.66699 59.833 14 83.5s20.833 42 34.5 55s29.667 23.333 48 31s34.833 12.667 49.5 15s29.667 3.5 45 3.5c12 0 24.333 -1 37 -3v-84c-5.33301 1.33301 -13.666 2 -24.999 2c-70.667 0 -106 -34.667 -106 -104v-21h119v-79
h-119v-422h-97z" />
    <glyph glyph-name="g" unicode="g" horiz-adv-x="594" 
d="M123 -92c45.333 -22.667 91.667 -33.999 139 -33.999s85.833 11.5 115.5 34.5s44.5 58.5 44.5 106.5v41l3 32h-2c-32.667 -54.667 -83.334 -82 -152.001 -82s-123.5 24.333 -164.5 73s-61.5 110.334 -61.5 185.001s19.667 135.667 59 183s93.333 71 162 71
c34 0 65.333 -6.33301 94 -19s50.667 -32 66 -58h3c-2 4 -3 9 -3 15v50h93v-485c0 -40 -7.16699 -75.333 -21.5 -106s-33.833 -54.834 -58.5 -72.501s-51.667 -30.834 -81 -39.501s-60.666 -13 -93.999 -13c-59.333 0 -117 14 -173 42zM143.001 267.001
c0 -53.333 13.167 -96.166 39.5 -128.499s62.166 -48.5 107.499 -48.5c39.333 0 71.5 13.667 96.5 41s37.5 71.666 37.5 132.999c0 113.333 -47.667 170 -143 170c-43.333 0 -77.166 -14.833 -101.499 -44.5s-36.5 -70.5 -36.5 -122.5z" />
    <glyph glyph-name="h" unicode="h" horiz-adv-x="603" 
d="M75 0v706.001h97v-262l-4 -42h2c14 29.333 37.667 56 71 80s73 36 119 36c115.333 0 173 -64.667 173 -194v-324h-97v302c0 40.667 -6.5 72 -19.5 94s-38.167 33 -75.5 33c-48.667 0 -89 -17.833 -121 -53.5s-48 -80.834 -48 -135.501v-240h-97z" />
    <glyph glyph-name="i" unicode="i" horiz-adv-x="246" 
d="M73 608v98h100v-98h-100zM75 0v506h97v-506h-97z" />
    <glyph glyph-name="j" unicode="j" horiz-adv-x="246" 
d="M73 608v98h100v-98h-100zM75 -11l0.00195312 517h97v-523c0 -32 -4.83301 -60 -14.5 -84s-21.334 -42.5 -35.001 -55.5s-30 -23.5 -49 -31.5s-35.833 -13 -50.5 -15s-29.667 -3 -45 -3c-6.66699 0 -18 0.666992 -34 2v83c6.66699 -1.33301 14 -2 22 -2
c12 0 23.333 1.33301 34 4s22.167 7.5 34.5 14.5s22.166 18.5 29.499 34.5s11 35.667 11 59z" />
    <glyph glyph-name="k" unicode="k" horiz-adv-x="522" 
d="M75 0v706h97v-386h72l137 186h110l-168 -223v-2l187 -281h-113l-151 237h-74v-237h-97z" />
    <glyph glyph-name="l" unicode="l" horiz-adv-x="267" 
d="M75 139v566.999h96v-551c0 -27.333 4.83301 -46.166 14.5 -56.499s23.167 -15.5 40.5 -15.5c7.33301 0 13 0.333008 17 1v-86c-14 -2 -24.667 -3 -32 -3c-90.667 0 -136 48 -136 144z" />
    <glyph glyph-name="m" unicode="m" horiz-adv-x="914" 
d="M75 0l0.00292969 506h94v-69l-3 -38h2c12.667 31.333 35.667 59 69 83s69 36 107 36c83.333 0 133.666 -38.333 150.999 -115h2c14.667 31.333 38.5 58.333 71.5 81s69.167 34 108.5 34c57.333 0 99.5 -16 126.5 -48s40.5 -80.667 40.5 -146v-324h-97v303
c0 40.667 -6.16699 72 -18.5 94s-35.833 33 -70.5 33c-44.667 0 -80.834 -19.5 -108.501 -58.5s-41.5 -84.167 -41.5 -135.5v-236h-97v303c0 40 -5.83301 71.167 -17.5 93.5s-34.834 33.5 -69.501 33.5c-45.333 0 -82 -19.667 -110 -59s-42 -84.333 -42 -135v-236h-97z" />
    <glyph glyph-name="n" unicode="n" horiz-adv-x="603" 
d="M75 0v506.001h94v-69l-3 -38h2c12.667 28.667 35.5 55.667 68.5 81s74.167 38 123.5 38c115.333 0 173 -64.667 173 -194v-324h-97v302c0 40.667 -6.5 72 -19.5 94s-38.167 33 -75.5 33c-48.667 0 -89 -17.833 -121 -53.5s-48 -79.834 -48 -132.501v-243h-97z" />
    <glyph glyph-name="o" unicode="o" horiz-adv-x="629" 
d="M42 254c0 75.333 26.332 138.167 78.999 188.5s117 75.5 193 75.5c76.667 0 141.334 -25 194.001 -75s79 -113 79 -189s-26.333 -139.333 -79 -190s-117 -76 -193 -76s-140.5 25.333 -193.5 76s-79.5 114 -79.5 190zM140.999 254.001
c0 -52.667 16.833 -96.167 50.5 -130.5s74.834 -51.5 123.501 -51.5c48 0 89 17.333 123 52s51 78 51 130s-17 95 -51 129s-75 51 -123 51c-48.667 0 -89.834 -17 -123.501 -51s-50.5 -77 -50.5 -129z" />
    <glyph glyph-name="p" unicode="p" horiz-adv-x="601" 
d="M75 -200l-0.000976562 706h90v-45l-3 -38h2c16 30 39 53.333 69 70s63.667 25 101 25c68 0 122 -24.333 162 -73s60 -112.667 60 -192c0 -80 -21.333 -144.167 -64 -192.5s-97.667 -72.5 -165 -72.5s-119.666 28.667 -156.999 86h-2c2.66699 -12 4 -26.667 4 -44v-230
h-97zM168.999 251c0 -48 12.833 -89.832 38.5 -125.499s60.5 -53.5 104.5 -53.5c41.333 0 76 16.167 104 48.5s42 76.166 42 131.499c0 54.667 -13.167 98.5 -39.5 131.5s-60.833 49.5 -103.5 49.5c-41.333 0 -76 -15.333 -104 -46s-42 -76 -42 -136z" />
    <glyph glyph-name="q" unicode="q" horiz-adv-x="601" 
d="M44 253c0 80 21.332 144.167 63.999 192.5s97.667 72.5 165 72.5c33.333 0 64.5 -7.83301 93.5 -23.5s51.5 -37.167 67.5 -64.5h2c-1.33301 10 -2 21.667 -2 35v41h92v-706h-96v234l2 44h-2c-14.667 -26 -36.167 -47.5 -64.5 -64.5s-61.166 -25.5 -98.499 -25.5
c-67.333 0 -121.333 24.333 -162 73s-61 112.667 -61 192zM142.999 253c0 -54.667 13.167 -98.501 39.5 -131.501s60.833 -49.5 103.5 -49.5c41.333 0 76 15.333 104 46s42 76 42 136c0 49.333 -12.5 91.5 -37.5 126.5s-60.5 52.5 -106.5 52.5
c-41.333 0 -75.833 -16.167 -103.5 -48.5s-41.5 -76.166 -41.5 -131.499z" />
    <glyph glyph-name="r" unicode="r" horiz-adv-x="376" 
d="M75 0l-0.00292969 506h94v-91l-3 -37h2c12.667 38.667 33.334 70.667 62.001 96s61.667 38 99 38c6.66699 0 15.334 -0.666992 26.001 -2v-96c-5.33301 1.33301 -14.666 2 -27.999 2c-50.667 0 -89.167 -20.5 -115.5 -61.5s-39.5 -89.167 -39.5 -144.5v-210h-97z" />
    <glyph glyph-name="s" unicode="s" horiz-adv-x="447" 
d="M32 62l45.999 66.001c40.667 -39.333 90.334 -59 149.001 -59c26 0 46.833 5.83301 62.5 17.5s23.5 27.834 23.5 48.501c0 17.333 -9 32.333 -27 45s-39.667 23.667 -65 33s-50.666 19.666 -75.999 30.999s-47 27.833 -65 49.5s-27 47.834 -27 78.501
c0 46 17.333 81.833 52 107.5s78 38.5 130 38.5c68 0 122.667 -18.667 164 -56l-39 -70c-14.667 14 -33.834 25 -57.501 33s-47.167 12 -70.5 12c-26 0 -46.833 -5.33301 -62.5 -16s-23.5 -26.334 -23.5 -47.001c0 -18 9 -33.333 27 -46s39.667 -23.5 65 -32.5
s50.833 -19.167 76.5 -30.5s47.5 -27.833 65.5 -49.5s27 -47.834 27 -78.501c0 -43.333 -17 -79 -51 -107s-77.667 -42 -131 -42c-80 0 -144.333 24.667 -193 74z" />
    <glyph glyph-name="t" unicode="t" horiz-adv-x="349" 
d="M96 185l0.00195312 236.999h-66v79h68v144h95v-144h122v-79h-122v-226c0 -19.333 2.66699 -36.166 8 -50.499s11.833 -25.5 19.5 -33.5s16.667 -14.333 27 -19s19.666 -7.66699 27.999 -9s16.833 -2 25.5 -2s16.334 0.666992 23.001 2v-86c-16 -2 -27.333 -3 -34 -3
c-15.333 0 -30.5 1.16699 -45.5 3.5s-31.833 7.33301 -50.5 15s-34.834 18 -48.501 31s-25.334 31.667 -35.001 56s-14.5 52.5 -14.5 84.5z" />
    <glyph glyph-name="u" unicode="u" horiz-adv-x="597" 
d="M69 182l-0.00195312 324h97v-302c0 -40 6.66699 -71 20 -93s38.333 -33 75 -33c50 0 90 18.667 120 56s45 82.333 45 135v237h96v-506h-94v70l4 37h-2c-13.333 -30 -36.666 -57.333 -69.999 -82s-72.666 -37 -117.999 -37c-115.333 0 -173 64.667 -173 194z" />
    <glyph glyph-name="v" unicode="v" horiz-adv-x="528" 
d="M209 0l-190 506h103l123 -342l18 -69h2c5.33301 27.333 11 50.333 17 69l123 342h102l-187 -506h-111z" />
    <glyph glyph-name="w" unicode="w" horiz-adv-x="828" 
d="M187 0l-162.999 505.999h103l105 -355l13 -54h2c4 18.667 8.66699 36.667 14 54l109 354h90l109 -354l13 -54h2c3.33301 18.667 7.66602 36.667 12.999 54l106 355h101l-162 -506h-108l-104 325l-15 55h-2c-4 -19.333 -8.66699 -37.666 -14 -54.999l-104 -325h-108z" />
    <glyph glyph-name="x" unicode="x" horiz-adv-x="499" 
d="M17 0l172.999 260l-163 246h111l94 -154l16 -30h2c6.66699 11.333 12.334 21.333 17.001 30l94 154h111l-163 -246l173 -260h-110l-106 169l-16 27h-2c-4.66699 -10 -9.66699 -19 -15 -27l-106 -169h-110z" />
    <glyph glyph-name="y" unicode="y" horiz-adv-x="535" 
d="M50 -105c18.667 -14.667 37.999 -21.999 57.999 -21.999c40.667 0 71.334 25 92.001 75l25 58l-212 500h109l127 -331l19 -61h2c5.33301 22.667 11 42.667 17 60l123 332h105l-238 -597c-14.667 -38.667 -36.5 -68.167 -65.5 -88.5s-61.833 -30.5 -98.5 -30.5
c-16.667 0 -33 2.66699 -49 8s-28 10.666 -36 15.999l-12 7z" />
    <glyph glyph-name="z" unicode="z" horiz-adv-x="511" 
d="M36 0v56l256 320l41 47v2c-10.667 -1.33301 -27 -2 -49 -2h-237v83h417v-56l-255 -320c-6 -8 -12.667 -15.833 -20 -23.5l-17 -17.5l-6 -6v-2c11.333 2 28 3 50 3h257v-84h-437z" />
    <glyph glyph-name="braceleft" unicode="{" horiz-adv-x="355" 
d="M126 77l0.000976562 95.9971c0 29.333 -7.16699 53.666 -21.5 72.999s-35.5 31.333 -63.5 36v86c26.667 5.33301 47.5 17.5 62.5 36.5s22.5 43.833 22.5 74.5v84c0 30 4.16699 56.167 12.5 78.5s18.333 39.333 30 51s25.667 21.167 42 28.5s30.333 11.833 42 13.5
s23.5 2.5 35.5 2.5l23 -1v-74h-13c-8.66699 0 -17 -1.16699 -25 -3.5s-17.167 -6.66602 -27.5 -12.999s-18.666 -17 -24.999 -32s-9.5 -33.833 -9.5 -56.5v-103c0 -29.333 -7.33301 -55.333 -22 -78s-34.334 -39 -59.001 -49v-2c54 -21.333 81 -63.666 81 -126.999v-115
c0 -22.667 3.16699 -41.667 9.5 -57s14.666 -26.166 24.999 -32.499s19.5 -10.5 27.5 -12.5s16.333 -3 25 -3h13v-74c-6 -1.33301 -13.667 -2 -23 -2c-12 0 -23.833 0.833008 -35.5 2.5s-25.667 6.16699 -42 13.5s-30.333 16.833 -42 28.5s-21.667 28.834 -30 51.501
s-12.5 49 -12.5 79z" />
    <glyph glyph-name="bar" unicode="|" horiz-adv-x="254" 
d="M84 -159v951h85v-951h-85z" />
    <glyph glyph-name="braceright" unicode="}" horiz-adv-x="355" 
d="M44 -22h14.001c8.66699 0 16.834 1 24.501 3s16.667 6.16699 27 12.5s18.666 17.166 24.999 32.499s9.5 34.333 9.5 57v115c0 30 7 56.333 21 79s34 38.667 60 48v2c-22.667 8.66699 -41.834 24.334 -57.501 47.001s-23.5 49.334 -23.5 80.001v103
c0 22.667 -3.16699 41.5 -9.5 56.5s-14.666 25.667 -24.999 32s-19.333 10.666 -27 12.999s-15.834 3.5 -24.501 3.5h-14v74c6 0.666992 13.667 1 23 1c12 0 23.833 -0.833008 35.5 -2.5s25.667 -6.16699 42 -13.5s30.333 -16.833 42 -28.5s21.667 -28.667 30 -51
s12.5 -48.5 12.5 -78.5v-84c0 -29.333 7.33301 -54 22 -74s35.667 -32.333 63 -37v-86c-26.667 -3.33301 -47.5 -15.166 -62.5 -35.499s-22.5 -44.833 -22.5 -73.5v-96c0 -30 -4.16699 -56.333 -12.5 -79s-18.333 -39.834 -30 -51.501s-25.667 -21.167 -42 -28.5
s-30.333 -11.833 -42 -13.5s-23.5 -2.5 -35.5 -2.5l-23 2v74z" />
    <glyph glyph-name="asciitilde" unicode="~" horiz-adv-x="611" 
d="M68 204c0 56.667 12.166 99 36.499 127s58.833 42 103.5 42c23.333 0 44.5 -5.16699 63.5 -15.5s33.5 -21.5 43.5 -33.5s22.333 -23.167 37 -33.5s30.334 -15.5 47.001 -15.5c24 0 41.167 9.33301 51.5 28s15.5 40.667 15.5 66h79c0 -112.667 -46.333 -169 -139 -169
c-19.333 0 -36.833 3.33301 -52.5 10s-28.667 14.834 -39 24.501l-30 28.5c-9.66699 9.33301 -20.5 17.333 -32.5 24s-25 10 -39 10c-23.333 0 -40 -9.33301 -50 -28s-15 -40.334 -15 -65.001h-80z" />
    <glyph glyph-name="uni00A0" unicode="&#xa0;" horiz-adv-x="250" 
 />
    <glyph glyph-name="exclamdown" unicode="&#xa1;" horiz-adv-x="254" 
d="M170 311l6 -512h-100l7 512h87zM176 505v-99h-100v99h100z" />
    <glyph glyph-name="cent" unicode="&#xa2;" horiz-adv-x="577" 
d="M264 -12l-0.000976562 85.0029c-64.667 8.66699 -116 39.167 -154 91.5s-57 115.166 -57 188.499c0 74 19 137.167 57 189.5s89.333 82.833 154 91.5v84h71v-84c43.333 -6.66699 81.166 -23.5 113.499 -50.5s57.166 -61.833 74.499 -104.5l-88 -34
c-29.333 66 -73.666 99 -132.999 99c-47.333 0 -84.166 -17.833 -110.499 -53.5s-39.5 -81.5 -39.5 -137.5c0 -57.333 13 -103.333 39 -138s63 -52 111 -52c59.333 0 103.666 32.667 132.999 98l88 -34c-17.333 -40.667 -42.166 -75.334 -74.499 -104.001
s-70.166 -45.334 -113.499 -50.001v-85h-71z" />
    <glyph glyph-name="sterling" unicode="&#xa3;" horiz-adv-x="577" 
d="M48 0v86h61v233h-44v70h44v136c0 55.333 20.5 101.333 61.5 138s92.833 55 155.5 55c63.333 0 119 -21.333 167 -64l-58 -69c-30.667 28.667 -66.667 43 -108 43c-36 0 -64.667 -10.167 -86 -30.5s-32 -45.833 -32 -76.5v-132h184v-70h-184v-233h325v-86h-486z" />
    <glyph glyph-name="currency" unicode="&#xa4;" horiz-adv-x="610" 
d="M124 0v170h-70v70h70v70h-70v80h70v316h233c68.667 0 122.5 -18 161.5 -54s58.5 -85 58.5 -147c0 -60.667 -20.833 -108.5 -62.5 -143.5s-95.5 -52.5 -161.5 -52.5h-130v-69h250v-70h-250v-170h-99zM223 390h116.999c42.667 0 75.834 10.833 99.501 32.5
s35.5 50.5 35.5 86.5s-11.667 64.5 -35 85.5s-56 31.5 -98 31.5h-119v-236z" />
    <glyph glyph-name="yen" unicode="&#xa5;" horiz-adv-x="577" 
d="M75 199v64h163v36l-26 48h-137v63h103l-165 296h113l118 -220l43 -101h2c14 36 28.333 69.667 43 101l119 220h113l-165 -296h101v-63h-135l-27 -48v-36h162v-64h-162v-199h-100v199h-163z" />
    <glyph glyph-name="section" unicode="&#xa7;" horiz-adv-x="447" 
d="M143 111l-71 390c-3.33301 12.667 -5 28 -5 46c0 50 16.833 91 50.5 123s79.5 48 137.5 48c56 0 103 -17 141 -51l-46 -64c-28 22.667 -59.667 34 -95 34c-31.333 0 -56.833 -8.66699 -76.5 -26s-29.5 -42.333 -29.5 -75c0 -14 1.66699 -27.333 5 -40l68 -385h-79z
M51 -11l44 67.001c28.667 -24.667 61 -37 97 -37c30.667 0 56 9.16699 76 27.5s30 44.166 30 77.499c0 13.333 -2 28.333 -6 45l-66 376h79l70 -390c3.33301 -18 5 -33 5 -45c0 -50.667 -17 -92 -51 -124s-79.667 -48 -137 -48c-54.667 0 -101.667 17 -141 51z" />
    <glyph glyph-name="dieresis" unicode="&#xa8;" horiz-adv-x="499" 
d="M294 781v101h79v-101h-79zM126 781v101h80v-101h-80z" />
    <glyph glyph-name="copyright" unicode="&#xa9;" horiz-adv-x="823" 
d="M55 353c0 101.333 34.667 187.5 104 258.5s153 106.5 251 106.5c100 0 184.833 -35.5 254.5 -106.5s104.5 -157.167 104.5 -258.5s-34.833 -187.5 -104.5 -258.5s-154.5 -106.5 -254.5 -106.5c-98 0 -181.667 35.5 -251 106.5s-104 157.167 -104 258.5zM128 353
c0 -83.333 27.167 -153.833 81.5 -211.5s121.166 -86.5 200.499 -86.5c80.667 0 148.5 28.667 203.5 86s82.5 128 82.5 212s-27.5 154.667 -82.5 212s-122.833 86 -203.5 86c-79.333 0 -146.166 -28.833 -200.499 -86.5s-81.5 -128.167 -81.5 -211.5zM221 352
c0 54.667 18.167 101.666 54.5 140.999s83.833 59 142.5 59c34 0 65.667 -9 95 -27s52 -42 68 -72l-62 -33c-8.66699 17.333 -22.167 32.166 -40.5 44.499s-37.833 18.5 -58.5 18.5c-37.333 0 -67.333 -12.667 -90 -38s-34 -56.333 -34 -93c0 -37.333 11 -68.5 33 -93.5
s52.333 -37.5 91 -37.5c20.667 0 39.667 5.83301 57 17.5s31.333 26.834 42 45.501l62 -33c-14 -27.333 -35.833 -50.666 -65.5 -69.999s-62.167 -29 -97.5 -29c-59.333 0 -107 19.5 -143 58.5s-54 86.167 -54 141.5z" />
    <glyph glyph-name="ordfeminine" unicode="&#xaa;" horiz-adv-x="426" 
d="M183 383c-29.333 0 -54.832 8.50098 -76.499 25.501s-32.5 40.5 -32.5 70.5c0 73.333 63 110 189 110h10v6c0 42 -21.333 63 -64 63c-27.333 0 -55 -9.33301 -83 -28l-29 49c32.667 24.667 73 37 121 37c41.333 0 72.833 -10.833 94.5 -32.5s32.5 -52.834 32.5 -93.501
v-201h-68v46h-2c-7.33301 -14.667 -19.333 -27 -36 -37s-35.334 -15 -56.001 -15zM198.001 441.001c21.333 0 39.167 9.16699 53.5 27.5s21.5 38.833 21.5 61.5v8h-12c-76 0 -114 -18 -114 -54c0 -12.667 4.5 -23 13.5 -31s21.5 -12 37.5 -12zM74.002 265.001v57h274v-57
h-274z" />
    <glyph glyph-name="guillemotleft" unicode="&#xab;" horiz-adv-x="561" 
d="M247 282l164 206h97l-164 -206l164 -205h-97zM209 77l-164 205l164 206h97l-164 -206l164 -205h-97z" />
    <glyph glyph-name="logicalnot" unicode="&#xac;" horiz-adv-x="626" 
d="M72 340v78h477v-268h-81v190h-396z" />
    <glyph glyph-name="uni00AD" unicode="&#xad;" horiz-adv-x="432" 
d="M70 242v86h292v-86h-292z" />
    <glyph glyph-name="registered" unicode="&#xae;" horiz-adv-x="823" 
d="M55 353c0 101.333 34.667 187.5 104 258.5s153 106.5 251 106.5c100 0 184.833 -35.5 254.5 -106.5s104.5 -157.167 104.5 -258.5s-34.833 -187.5 -104.5 -258.5s-154.5 -106.5 -254.5 -106.5c-98 0 -181.667 35.5 -251 106.5s-104 157.167 -104 258.5zM128 353
c0 -83.333 27.167 -153.833 81.5 -211.5s121.166 -86.5 200.499 -86.5c80.667 0 148.5 28.667 203.5 86s82.5 128 82.5 212s-27.5 154.667 -82.5 212s-122.833 86 -203.5 86c-79.333 0 -146.166 -28.833 -200.499 -86.5s-81.5 -128.167 -81.5 -211.5zM288 166v378.002h146
c35.333 0 63.833 -10.667 85.5 -32s32.5 -49.333 32.5 -84c0 -26.667 -7 -48.834 -21 -66.501s-30 -28.834 -48 -33.501v-2c2.66699 -2.66699 7 -9.66699 13 -21l73 -139h-79l-69 146h-62v-146h-71zM359 364.002h60.001c19.333 0 34.333 5.66699 45 17s16 27 16 47
c0 19.333 -5.33301 34.333 -16 45s-25.334 16 -44.001 16h-61v-125z" />
    <glyph glyph-name="macron" unicode="&#xaf;" horiz-adv-x="499" 
d="M123 784v71h254v-71h-254z" />
    <glyph glyph-name="degree" unicode="&#xb0;" horiz-adv-x="409" 
d="M204 422c-42 0 -77.667 14.333 -107 43s-44 63.667 -44 105c0 40.667 14.667 75.5 44 104.5s65 43.5 107 43.5s78 -14.5 108 -43.5s45 -63.833 45 -104.5s-15 -75.5 -45 -104.5s-66 -43.5 -108 -43.5zM204 495c21.333 0 39.168 7.16699 53.501 21.5
s21.5 32.166 21.5 53.499c0 20.667 -7.33301 38.334 -22 53.001s-32.334 22 -53.001 22s-38 -7.33301 -52 -22s-21 -32.334 -21 -53.001c0 -21.333 7 -39.166 21 -53.499s31.333 -21.5 52 -21.5z" />
    <glyph glyph-name="plusminus" unicode="&#xb1;" horiz-adv-x="577" 
d="M24 246v78h224v246h82v-246h223v-78h-223v-246h-82v246h-224zM40 -95h497v-77h-497v77z" />
    <glyph glyph-name="twosuperior" unicode="&#xb2;" 
d="M47 423c-2 12 -3 23.999 -3 35.999c0 31.333 7.33301 59.166 22 83.499s32.334 44 53.001 59s41.334 29 62.001 42s38.334 27.167 53.001 42.5s22 32 22 50c0 18.667 -6.83301 34.167 -20.5 46.5s-30.834 18.5 -51.501 18.5c-30 0 -58.333 -16 -85 -48l-49 45
c14 20.667 33.5 37.834 58.5 51.501s51.167 20.5 78.5 20.5c41.333 0 75.666 -12.167 102.999 -36.5s41 -55.833 41 -94.5c0 -26.667 -6.83301 -50.667 -20.5 -72s-30.334 -38.833 -50.001 -52.5s-39.5 -26.5 -59.5 -38.5s-37.333 -25.167 -52 -39.5
s-22.667 -30.166 -24 -47.499h213v-66h-291z" />
    <glyph glyph-name="threesuperior" unicode="&#xb3;" 
d="M182 413c-28 0 -55.333 5.66895 -82 17.002s-48.334 27.666 -65.001 48.999l42 53c10 -14 24.333 -25.833 43 -35.5s38.334 -14.5 59.001 -14.5c22.667 0 42.167 7.33301 58.5 22s24.5 32.667 24.5 54c0 22 -8.66699 39.333 -26 52s-38 19 -62 19h-34l-17 38l89 103
l25 24v2c-12.667 -2 -25 -3 -37 -3h-141v67h271v-48l-109 -126c33.333 -4.66699 61.166 -17.834 83.499 -39.501s33.5 -51.167 33.5 -88.5c0 -39.333 -14.667 -73.333 -44 -102s-66.666 -43 -111.999 -43z" />
    <glyph glyph-name="acute" unicode="&#xb4;" horiz-adv-x="499" 
d="M161 755l72 127h105l-96 -127h-81z" />
    <glyph glyph-name="mu" unicode="&#xb5;" horiz-adv-x="601" 
d="M162 20c5.33301 -33.333 7.99805 -60.0029 7.99805 -80.0029v-140h-86v706h97v-302c0 -40.667 6.33301 -71.834 19 -93.501s37.334 -32.5 74.001 -32.5c50.667 0 90.834 18.667 120.501 56s44.5 82.333 44.5 135v237h97v-506h-93v69l2 36h-3
c-1.33301 -3.33301 -3.33301 -7.66602 -6 -12.999s-9.16699 -14.666 -19.5 -27.999s-21.833 -25.166 -34.5 -35.499s-30.5 -19.666 -53.5 -27.999s-47.5 -12.5 -73.5 -12.5c-42 0 -72.333 10.667 -91 32h-2z" />
    <glyph glyph-name="mu" unicode="&#x3bc;" horiz-adv-x="601" 
d="M162 20c5.33301 -33.333 7.99805 -60.0029 7.99805 -80.0029v-140h-86v706h97v-302c0 -40.667 6.33301 -71.834 19 -93.501s37.334 -32.5 74.001 -32.5c50.667 0 90.834 18.667 120.501 56s44.5 82.333 44.5 135v237h97v-506h-93v69l2 36h-3
c-1.33301 -3.33301 -3.33301 -7.66602 -6 -12.999s-9.16699 -14.666 -19.5 -27.999s-21.833 -25.166 -34.5 -35.499s-30.5 -19.666 -53.5 -27.999s-47.5 -12.5 -73.5 -12.5c-42 0 -72.333 10.667 -91 32h-2z" />
    <glyph glyph-name="paragraph" unicode="&#xb6;" horiz-adv-x="597" 
d="M275 -50l0.00195312 291c-64.667 0 -120.334 22.5 -167.001 67.5s-70 100.167 -70 165.5c0 64.667 23.167 119.5 69.5 164.5s102.166 67.5 167.499 67.5h271v-86h-197v-670h-74zM411.002 -50v613h75v-613h-75z" />
    <glyph glyph-name="periodcentered" unicode="&#xb7;" horiz-adv-x="242" 
d="M70 238v105h101v-105h-101z" />
    <glyph glyph-name="cedilla" unicode="&#xb8;" horiz-adv-x="499" 
d="M190 -88l29.002 111.003l49 -11v-7l-12 -55c21.333 -2.66699 38.666 -10.334 51.999 -23.001s20 -29.334 20 -50.001c0 -28.667 -9.83301 -49.834 -29.5 -63.501s-43.834 -20.5 -72.501 -20.5c-18.667 0 -37 2 -55 6v59c11.333 -4.66699 25.333 -7 42 -7
c32 0 48 10.333 48 31s-17.667 31 -53 31z" />
    <glyph glyph-name="onesuperior" unicode="&#xb9;" 
d="M72 423l0.000976562 66h93v249l2 26h-2c-2.66699 -6 -8.33398 -13.333 -17.001 -22l-36 -34l-45 49l106 103h67v-371h92v-66h-260z" />
    <glyph glyph-name="ordmasculine" unicode="&#xba;" horiz-adv-x="483" 
d="M241 384c-48 0 -88.5 15.8311 -121.5 47.498s-49.5 71.834 -49.5 120.501c0 46.667 16.5 85.834 49.5 117.501s73.167 47.5 120.5 47.5c48.667 0 89.5 -15.667 122.5 -47s49.5 -70.666 49.5 -117.999c0 -48.667 -16.5 -88.834 -49.5 -120.501s-73.5 -47.5 -121.5 -47.5z
M241 448.998c27.333 0 50.5 9.66699 69.5 29s28.5 44 28.5 74c0 29.333 -9.5 53.5 -28.5 72.5s-42.167 28.5 -69.5 28.5c-28 0 -51.5 -9.5 -70.5 -28.5s-28.5 -43.167 -28.5 -72.5c0 -30 9.5 -54.667 28.5 -74s42.5 -29 70.5 -29zM86 264.998v57h312v-57h-312z" />
    <glyph glyph-name="guillemotright" unicode="&#xbb;" horiz-adv-x="561" 
d="M254 77l164 205l-164 206h97l164 -206l-164 -205h-97zM53 77l164 205l-164 206h97l164 -206l-164 -205h-97z" />
    <glyph glyph-name="onequarter" unicode="&#xbc;" horiz-adv-x="954" 
d="M778 0v107h-207v50l200 280h81v-264h62v-66h-62v-107h-74zM652 173h126.001v123l3 58h-2c-8.66699 -18 -18.334 -34 -29.001 -48l-98 -131v-2zM336.001 0h-75l336 706h74zM60.001 270l0.000976562 66h93v249l2 26h-2c-2.66699 -6 -8.33398 -13.333 -17.001 -22l-36 -34
l-45 49l106 103h67v-371h92v-66h-260z" />
    <glyph glyph-name="onehalf" unicode="&#xbd;" horiz-adv-x="943" 
d="M602 0c-2 12 -3 23.999 -3 35.999c0 31.333 7.33301 59.166 22 83.499s32.334 44 53.001 59s41.334 29 62.001 42s38.334 27.167 53.001 42.5s22 32 22 50c0 18.667 -6.83301 34.167 -20.5 46.5s-30.834 18.5 -51.501 18.5c-30 0 -58.333 -16 -85 -48l-49 45
c14 20.667 33.5 37.834 58.5 51.501s51.167 20.5 78.5 20.5c41.333 0 75.666 -12.167 102.999 -36.5s41 -55.833 41 -94.5c0 -26.667 -6.83301 -50.667 -20.5 -72s-30.334 -38.833 -50.001 -52.5s-39.5 -26.5 -59.5 -38.5s-37.333 -25.167 -52 -39.5
s-22.667 -30.166 -24 -47.499h213v-66h-291zM336 -0.000976562h-75l336 706h74zM59 269.999l0.000976562 66h93v249l2 26h-2c-2.66699 -6 -8.33398 -13.333 -17.001 -22l-36 -34l-45 49l106 103h67v-371h92v-66h-260z" />
    <glyph glyph-name="threequarters" unicode="&#xbe;" horiz-adv-x="970" 
d="M793 0v107h-207v50l200 280h81v-264h62v-66h-62v-107h-74zM667 173h126.001v123l3 58h-2c-8.66699 -18 -18.334 -34 -29.001 -48l-98 -131v-2zM190.001 260c-28 0 -55.333 5.66895 -82 17.002s-48.334 27.666 -65.001 48.999l42 53c10 -14 24.333 -25.833 43 -35.5
s38.334 -14.5 59.001 -14.5c22.667 0 42.167 7.33301 58.5 22s24.5 32.667 24.5 54c0 22 -8.66699 39.333 -26 52s-38 19 -62 19h-34l-17 38l89 103l25 24v2c-12.667 -2 -25 -3 -37 -3h-141v67h271v-48l-109 -126c33.333 -4.66699 61.166 -17.834 83.499 -39.501
s33.5 -51.167 33.5 -88.5c0 -39.333 -14.667 -73.333 -44 -102s-66.666 -43 -111.999 -43zM351.001 0.00195312h-75l336 706h74z" />
    <glyph glyph-name="questiondown" unicode="&#xbf;" horiz-adv-x="457" 
d="M309 311l-0.000976562 -46.998c0 -28 -5.83301 -53.333 -17.5 -76s-25.834 -41.834 -42.501 -57.501l-49.5 -45c-16.333 -14.333 -30.333 -30.833 -42 -49.5s-17.5 -39 -17.5 -61c0 -28 10.833 -51.5 32.5 -70.5s48.834 -28.5 81.501 -28.5
c40.667 0 78.334 14 113.001 42l54 -69c-48 -42.667 -106 -64 -174 -64c-58 0 -107.333 17 -148 51s-61 78 -61 132c0 30.667 6 58.167 18 82.5s26.667 44.666 44 60.999s34.833 32 52.5 47s32.5 31.833 44.5 50.5s18 39 18 61v41h94zM311.999 505.002v-99h-100v99h100z" />
    <glyph glyph-name="Agrave" unicode="&#xc0;" horiz-adv-x="641" 
d="M15 0l253 706h105l253 -706h-102l-71 203h-266l-71 -203h-101zM213 285l214 0.000976562l-78 223l-28 101h-2c-10 -42.667 -19 -76.334 -27 -101.001zM281 755.001l-95 127h104l73 -127h-82z" />
    <glyph glyph-name="Aacute" unicode="&#xc1;" horiz-adv-x="641" 
d="M15 0l253 706h105l253 -706h-102l-71 203h-266l-71 -203h-101zM213 285l214 0.000976562l-78 223l-28 101h-2c-10 -42.667 -19 -76.334 -27 -101.001zM277 755.001l72 127h105l-96 -127h-81z" />
    <glyph glyph-name="Acircumflex" unicode="&#xc2;" horiz-adv-x="641" 
d="M15 0l253 706h105l253 -706h-102l-71 203h-266l-71 -203h-101zM213 285l214 0.000976562l-78 223l-28 101h-2c-10 -42.667 -19 -76.334 -27 -101.001zM181 755.001l88 127h100l89 -127h-85l-53 80h-2l-52 -80h-85z" />
    <glyph glyph-name="Atilde" unicode="&#xc3;" horiz-adv-x="641" 
d="M15 0l253 706h105l253 -706h-102l-71 203h-266l-71 -203h-101zM213 285l214 0.000976562l-78 223l-28 101h-2c-10 -42.667 -19 -76.334 -27 -101.001zM151 756.001c0 84.667 34.001 127 102.001 127c19.333 0 36.333 -5.66699 51 -17s28 -22.666 40 -33.999
s23.667 -17 35 -17c13.333 0 23.166 6.5 29.499 19.5s9.5 28.167 9.5 45.5h70c0 -84.667 -34 -127 -102 -127c-19.333 0 -36.333 5.66699 -51 17s-28 22.666 -40 33.999s-23.667 17 -35 17c-26 0 -39 -21.667 -39 -65h-70z" />
    <glyph glyph-name="Adieresis" unicode="&#xc4;" horiz-adv-x="641" 
d="M15 0l253 706h105l253 -706h-102l-71 203h-266l-71 -203h-101zM213 285l214 0.000976562l-78 223l-28 101h-2c-10 -42.667 -19 -76.334 -27 -101.001zM364 781.001v101h79v-101h-79zM196 781.001v101h80v-101h-80z" />
    <glyph glyph-name="Aring" unicode="&#xc5;" horiz-adv-x="641" 
d="M15 0l253 706h105l253 -706h-102l-71 203h-266l-71 -203h-101zM213 285l214 0.000976562l-78 223l-28 101h-2c-10 -42.667 -19 -76.334 -27 -101.001zM320 743.001c-23.333 0 -43.3311 6.83301 -59.998 20.5s-25 31.5 -25 53.5c0 22.667 8.33301 40.834 25 54.501
s36.667 20.5 60 20.5s43.166 -6.83301 59.499 -20.5s24.5 -31.834 24.5 -54.501c0 -22 -8.33301 -39.833 -25 -53.5s-36.334 -20.5 -59.001 -20.5zM320.002 784.001c9.33301 0 17.166 3.16699 23.499 9.5s9.5 14.166 9.5 23.499c0 10.667 -3.16699 19.167 -9.5 25.5
s-14.166 9.5 -23.499 9.5c-10 0 -18 -3.16699 -24 -9.5s-9 -14.833 -9 -25.5c0 -9.33301 3 -17.166 9 -23.499s14 -9.5 24 -9.5z" />
    <glyph glyph-name="AE" unicode="&#xc6;" horiz-adv-x="877" 
d="M9 0l292 706h517v-86h-312v-221h253v-86h-253v-227h328v-86h-426v314h-171l-125 -314h-103zM270 396h138v224h-47z" />
    <glyph glyph-name="Ccedilla" unicode="&#xc7;" horiz-adv-x="717" 
d="M352 -88l20.0029 78c-96.667 8.66699 -174.5 47.334 -233.5 116.001s-88.5 152.334 -88.5 251.001c0 103.333 33.833 189.333 101.5 258s153.5 103 257.5 103c107.333 0 193.333 -31 258 -93l-50 -74c-26 23.333 -57.5 42 -94.5 56s-73.5 21 -109.5 21
c-80 0 -143.5 -25.667 -190.5 -77s-70.5 -115.666 -70.5 -192.999c0 -78 24 -144 72 -198s111.667 -81 191 -81c39.333 0 78.166 8.16699 116.499 24.5s71.833 38.833 100.5 67.5l53 -71c-70.667 -70.667 -157 -107.667 -259 -111l-8 -39
c21.333 -2.66699 38.666 -10.334 51.999 -23.001s20 -29.334 20 -50.001c0 -28.667 -9.83301 -49.834 -29.5 -63.501s-43.834 -20.5 -72.501 -20.5c-18.667 0 -37 2 -55 6v59c11.333 -4.66699 25.333 -7 42 -7c32 0 48 10.333 48 31s-17.667 31 -53 31z" />
    <glyph glyph-name="Egrave" unicode="&#xc8;" horiz-adv-x="564" 
d="M93 0v706h411v-86h-312v-221h253v-86h-253v-227h329v-86h-428zM270 755l-95 127h104l73 -127h-82z" />
    <glyph glyph-name="Eacute" unicode="&#xc9;" horiz-adv-x="564" 
d="M265 755l72 127h105l-96 -127h-81zM93 0v706h411v-86h-312v-221h253v-86h-253v-227h329v-86h-428z" />
    <glyph glyph-name="Ecircumflex" unicode="&#xca;" horiz-adv-x="564" 
d="M170 755l88 127h100l89 -127h-85l-53 80h-2l-52 -80h-85zM93 0v706h411v-86h-312v-221h253v-86h-253v-227h329v-86h-428z" />
    <glyph glyph-name="Edieresis" unicode="&#xcb;" horiz-adv-x="564" 
d="M354 781v101h79v-101h-79zM186 781v101h80v-101h-80zM93 0v706h411v-86h-312v-221h253v-86h-253v-227h329v-86h-428z" />
    <glyph glyph-name="Igrave" unicode="&#xcc;" horiz-adv-x="286" 
d="M93 0v706h99v-706h-99zM105 755l-95 127h104l73 -127h-82z" />
    <glyph glyph-name="Iacute" unicode="&#xcd;" horiz-adv-x="286" 
d="M93 0v706h99v-706h-99zM101 755l72 127h105l-96 -127h-81z" />
    <glyph glyph-name="Icircumflex" unicode="&#xce;" horiz-adv-x="286" 
d="M93 0v706h99v-706h-99zM6 755l88 127h100l89 -127h-85l-53 80h-2l-52 -80h-85z" />
    <glyph glyph-name="Idieresis" unicode="&#xcf;" horiz-adv-x="286" 
d="M93 0v706h99v-706h-99zM189 781v101h79v-101h-79zM21 781v101h80v-101h-80z" />
    <glyph glyph-name="Eth" unicode="&#xd0;" horiz-adv-x="743" 
d="M99 0v312.001h-58v82h58v312h235c108.667 0 195.334 -31.167 260.001 -93.5s97 -148.5 97 -258.5c0 -110.667 -32.333 -197.334 -97 -260.001s-151.334 -94 -260.001 -94h-235zM197 86.001h130c80.667 0 144.5 23.167 191.5 69.5s70.5 112.5 70.5 198.5
c0 84.667 -23.667 150.167 -71 196.5s-111 69.5 -191 69.5h-130v-226h150v-82h-150v-226z" />
    <glyph glyph-name="Ntilde" unicode="&#xd1;" horiz-adv-x="752" 
d="M93 0v706h98l315 -458l58 -103h2c-4 42 -6 76.333 -6 103v458h98v-706h-97l-315 458l-58 103h-2c4 -42 6 -76.333 6 -103v-458h-99zM207 756c0 84.667 34.001 127 102.001 127c19.333 0 36.333 -5.66699 51 -17s28 -22.666 40 -33.999s23.667 -17 35 -17
c13.333 0 23.166 6.5 29.499 19.5s9.5 28.167 9.5 45.5h70c0 -84.667 -34 -127 -102 -127c-19.333 0 -36.333 5.66699 -51 17s-28 22.666 -40 33.999s-23.667 17 -35 17c-26 0 -39 -21.667 -39 -65h-70z" />
    <glyph glyph-name="Ograve" unicode="&#xd2;" horiz-adv-x="823" 
d="M49 358c0 102 34.332 187.5 102.999 256.5s155.334 103.5 260.001 103.5c104 0 190.333 -34.5 259 -103.5s103 -154.5 103 -256.5c0 -104.667 -34.333 -192.5 -103 -263.5s-155 -106.5 -259 -106.5s-190.5 35.5 -259.5 106.5s-103.5 158.833 -103.5 263.5zM150.999 358
c0 -79.333 24.667 -145.666 74 -198.999s111.666 -80 186.999 -80c74.667 0 136.667 26.667 186 80s74 119.666 74 198.999c0 76.667 -24.667 140.834 -74 192.501s-111.333 77.5 -186 77.5c-75.333 0 -137.666 -25.833 -186.999 -77.5s-74 -115.834 -74 -192.501z
M371.999 755l-95 127h104l73 -127h-82z" />
    <glyph glyph-name="Oacute" unicode="&#xd3;" horiz-adv-x="823" 
d="M368 755l72 127h105l-96 -127h-81zM49 358c0 102 34.332 187.5 102.999 256.5s155.334 103.5 260.001 103.5c104 0 190.333 -34.5 259 -103.5s103 -154.5 103 -256.5c0 -104.667 -34.333 -192.5 -103 -263.5s-155 -106.5 -259 -106.5s-190.5 35.5 -259.5 106.5
s-103.5 158.833 -103.5 263.5zM150.999 358c0 -79.333 24.667 -145.666 74 -198.999s111.666 -80 186.999 -80c74.667 0 136.667 26.667 186 80s74 119.666 74 198.999c0 76.667 -24.667 140.834 -74 192.501s-111.333 77.5 -186 77.5
c-75.333 0 -137.666 -25.833 -186.999 -77.5s-74 -115.834 -74 -192.501z" />
    <glyph glyph-name="Ocircumflex" unicode="&#xd4;" horiz-adv-x="823" 
d="M273 755l88 127h100l89 -127h-85l-53 80h-2l-52 -80h-85zM49 358c0 102 34.332 187.5 102.999 256.5s155.334 103.5 260.001 103.5c104 0 190.333 -34.5 259 -103.5s103 -154.5 103 -256.5c0 -104.667 -34.333 -192.5 -103 -263.5s-155 -106.5 -259 -106.5
s-190.5 35.5 -259.5 106.5s-103.5 158.833 -103.5 263.5zM150.999 358c0 -79.333 24.667 -145.666 74 -198.999s111.666 -80 186.999 -80c74.667 0 136.667 26.667 186 80s74 119.666 74 198.999c0 76.667 -24.667 140.834 -74 192.501s-111.333 77.5 -186 77.5
c-75.333 0 -137.666 -25.833 -186.999 -77.5s-74 -115.834 -74 -192.501z" />
    <glyph glyph-name="Otilde" unicode="&#xd5;" horiz-adv-x="823" 
d="M49 358c0 102 34.332 187.5 102.999 256.5s155.334 103.5 260.001 103.5c104 0 190.333 -34.5 259 -103.5s103 -154.5 103 -256.5c0 -104.667 -34.333 -192.5 -103 -263.5s-155 -106.5 -259 -106.5s-190.5 35.5 -259.5 106.5s-103.5 158.833 -103.5 263.5zM150.999 358
c0 -79.333 24.667 -145.666 74 -198.999s111.666 -80 186.999 -80c74.667 0 136.667 26.667 186 80s74 119.666 74 198.999c0 76.667 -24.667 140.834 -74 192.501s-111.333 77.5 -186 77.5c-75.333 0 -137.666 -25.833 -186.999 -77.5s-74 -115.834 -74 -192.501z
M242.999 756c0 84.667 34.001 127 102.001 127c19.333 0 36.333 -5.66699 51 -17s28 -22.666 40 -33.999s23.667 -17 35 -17c13.333 0 23.166 6.5 29.499 19.5s9.5 28.167 9.5 45.5h70c0 -84.667 -34 -127 -102 -127c-19.333 0 -36.333 5.66699 -51 17
s-28 22.666 -40 33.999s-23.667 17 -35 17c-26 0 -39 -21.667 -39 -65h-70z" />
    <glyph glyph-name="Odieresis" unicode="&#xd6;" horiz-adv-x="823" 
d="M456 781v101h79v-101h-79zM288 781v101h80v-101h-80zM49 358c0 102 34.332 187.5 102.999 256.5s155.334 103.5 260.001 103.5c104 0 190.333 -34.5 259 -103.5s103 -154.5 103 -256.5c0 -104.667 -34.333 -192.5 -103 -263.5s-155 -106.5 -259 -106.5
s-190.5 35.5 -259.5 106.5s-103.5 158.833 -103.5 263.5zM150.999 358c0 -79.333 24.667 -145.666 74 -198.999s111.666 -80 186.999 -80c74.667 0 136.667 26.667 186 80s74 119.666 74 198.999c0 76.667 -24.667 140.834 -74 192.501s-111.333 77.5 -186 77.5
c-75.333 0 -137.666 -25.833 -186.999 -77.5s-74 -115.834 -74 -192.501z" />
    <glyph glyph-name="multiply" unicode="&#xd7;" horiz-adv-x="577" 
d="M28 55l207 230l-207 230l56 55l204 -227l204 227l56 -55l-207 -230l207 -230l-56 -55l-204 227l-204 -227z" />
    <glyph glyph-name="Oslash" unicode="&#xd8;" horiz-adv-x="822" 
d="M123 9l48.999 67.999c-38 34 -68 75.333 -90 124s-33 100.667 -33 156c0 102 35 187.667 105 257s156 104 258 104c66.667 0 128.334 -16.333 185.001 -49l46 63l49 -34l-45 -63c40 -34 71.167 -74.833 93.5 -122.5s33.5 -99.5 33.5 -155.5
c0 -103.333 -34.833 -190.666 -104.5 -261.999s-155.5 -107 -257.5 -107c-70.667 0 -134.667 18 -192 54l-47 -67zM229.999 157.999l311.001 433c-40 24.667 -83 37 -129 37c-72.667 0 -134.334 -26 -185.001 -78s-76 -116.333 -76 -193c0 -78.667 26.333 -145 79 -199z
M275 118.999c41.333 -26.667 86.666 -40 135.999 -40c72.667 0 134.334 26.667 185.001 80s76 119.333 76 198c0 80 -27.667 146 -83 198z" />
    <glyph glyph-name="Ugrave" unicode="&#xd9;" horiz-adv-x="726" 
d="M85 250v456h99v-455c0 -54 16.167 -96.167 48.5 -126.5s75.833 -45.5 130.5 -45.5s98 15.167 130 45.5s48 72.833 48 127.5v454h99v-456c0 -78.667 -25.333 -142 -76 -190s-117.334 -72 -200.001 -72c-83.333 0 -150.666 24 -201.999 72s-77 111.333 -77 190zM323 755
l-95 127h104l73 -127h-82z" />
    <glyph glyph-name="Uacute" unicode="&#xda;" horiz-adv-x="726" 
d="M319 755l72 127h105l-96 -127h-81zM85 250v456h99v-455c0 -54 16.167 -96.167 48.5 -126.5s75.833 -45.5 130.5 -45.5s98 15.167 130 45.5s48 72.833 48 127.5v454h99v-456c0 -78.667 -25.333 -142 -76 -190s-117.334 -72 -200.001 -72
c-83.333 0 -150.666 24 -201.999 72s-77 111.333 -77 190z" />
    <glyph glyph-name="Ucircumflex" unicode="&#xdb;" horiz-adv-x="726" 
d="M224 755l88 127h100l89 -127h-85l-53 80h-2l-52 -80h-85zM85 250v456h99v-455c0 -54 16.167 -96.167 48.5 -126.5s75.833 -45.5 130.5 -45.5s98 15.167 130 45.5s48 72.833 48 127.5v454h99v-456c0 -78.667 -25.333 -142 -76 -190s-117.334 -72 -200.001 -72
c-83.333 0 -150.666 24 -201.999 72s-77 111.333 -77 190z" />
    <glyph glyph-name="Udieresis" unicode="&#xdc;" horiz-adv-x="726" 
d="M407 781v101h79v-101h-79zM239 781v101h80v-101h-80zM85 250v456h99v-455c0 -54 16.167 -96.167 48.5 -126.5s75.833 -45.5 130.5 -45.5s98 15.167 130 45.5s48 72.833 48 127.5v454h99v-456c0 -78.667 -25.333 -142 -76 -190s-117.334 -72 -200.001 -72
c-83.333 0 -150.666 24 -201.999 72s-77 111.333 -77 190z" />
    <glyph glyph-name="Yacute" unicode="&#xdd;" horiz-adv-x="592" 
d="M247 0v299l-237 407h112l130 -232l43 -89h2c14 32 28.333 61.667 43 89l130 232h112l-237 -407v-299h-98zM252 755l72 127h105l-96 -127h-81z" />
    <glyph glyph-name="Thorn" unicode="&#xde;" horiz-adv-x="608" 
d="M93 0l-0.000976562 706h99v-120h160c65.333 0 118.5 -20.167 159.5 -60.5s61.5 -93.833 61.5 -160.5s-20.667 -120.667 -62 -162s-94.666 -62 -159.999 -62h-159v-141h-99zM191.999 227l144 -0.000976562c42 0 75.333 12.333 100 37s37 58.334 37 101.001
c0 42 -12.167 75 -36.5 99s-57.5 36 -99.5 36h-145v-273z" />
    <glyph glyph-name="germandbls" unicode="&#xdf;" horiz-adv-x="588" 
d="M75 0l0.000976562 529.997c0 58 21.5 103.833 64.5 137.5s93.5 50.5 151.5 50.5c54.667 0 100 -15.5 136 -46.5s54 -69.167 54 -114.5c0 -22 -5.16699 -42.5 -15.5 -61.5s-21.833 -34.167 -34.5 -45.5s-24.167 -24 -34.5 -38s-15.5 -27.667 -15.5 -41
c0 -11.333 6.16699 -23 18.5 -35s27.166 -24 44.499 -36s34.833 -24.833 52.5 -38.5s32.667 -30.667 45 -51s18.5 -42.166 18.5 -65.499c0 -48.667 -16.5 -86.167 -49.5 -112.5s-73.5 -39.5 -121.5 -39.5c-58 0 -105.333 9.66699 -142 29v86c40 -20.667 83.333 -31 130 -31
c24 0 44 6 60 18s24 30 24 54c0 18 -9.33301 35.833 -28 53.5s-39.167 33 -61.5 46s-42.833 30.167 -61.5 51.5s-28 44 -28 68c0 18.667 5.33301 36.667 16 54s22.167 31.833 34.5 43.5s23.833 25.667 34.5 42s16 32.5 16 48.5c0 20.667 -8.5 38.834 -25.5 54.501
s-40.167 23.5 -69.5 23.5c-32 0 -59.333 -9.66699 -82 -29s-34 -46.666 -34 -81.999v-523h-97z" />
    <glyph glyph-name="agrave" unicode="&#xe0;" horiz-adv-x="527" 
d="M33 138c0 37.333 10.334 68.6689 31.001 94.002s48.167 43.5 82.5 54.5s66.166 18.5 95.499 22.5s60.333 6 93 6h26v10c0 74 -37 111 -111 111c-48.667 0 -96 -16.333 -142 -49l-39 71c20.667 17.333 48.667 31.666 84 42.999s70.333 17 105 17c64 0 113.333 -17 148 -51
s52 -83 52 -147v-320h-91v51l3 40h-2c-15.333 -30 -37.833 -54.667 -67.5 -74s-62.5 -29 -98.5 -29c-46 0 -85.667 13.667 -119 41s-50 63.666 -50 108.999zM130.001 146.003c0 -22 8.33301 -41 25 -57s40 -24 70 -24c40 0 72.667 16.667 98 50s38 70.333 38 111v19h-25
c-137.333 0 -206 -33 -206 -99zM223.001 580.003l-95 127h104l73 -127h-82z" />
    <glyph glyph-name="aacute" unicode="&#xe1;" horiz-adv-x="527" 
d="M33 138c0 37.333 10.334 68.6689 31.001 94.002s48.167 43.5 82.5 54.5s66.166 18.5 95.499 22.5s60.333 6 93 6h26v10c0 74 -37 111 -111 111c-48.667 0 -96 -16.333 -142 -49l-39 71c20.667 17.333 48.667 31.666 84 42.999s70.333 17 105 17c64 0 113.333 -17 148 -51
s52 -83 52 -147v-320h-91v51l3 40h-2c-15.333 -30 -37.833 -54.667 -67.5 -74s-62.5 -29 -98.5 -29c-46 0 -85.667 13.667 -119 41s-50 63.666 -50 108.999zM130.001 146.003c0 -22 8.33301 -41 25 -57s40 -24 70 -24c40 0 72.667 16.667 98 50s38 70.333 38 111v19h-25
c-137.333 0 -206 -33 -206 -99zM216.001 580.003l72 127h105l-96 -127h-81z" />
    <glyph glyph-name="acircumflex" unicode="&#xe2;" horiz-adv-x="527" 
d="M33 138c0 37.333 10.334 68.6689 31.001 94.002s48.167 43.5 82.5 54.5s66.166 18.5 95.499 22.5s60.333 6 93 6h26v10c0 74 -37 111 -111 111c-48.667 0 -96 -16.333 -142 -49l-39 71c20.667 17.333 48.667 31.666 84 42.999s70.333 17 105 17c64 0 113.333 -17 148 -51
s52 -83 52 -147v-320h-91v51l3 40h-2c-15.333 -30 -37.833 -54.667 -67.5 -74s-62.5 -29 -98.5 -29c-46 0 -85.667 13.667 -119 41s-50 63.666 -50 108.999zM130.001 146.003c0 -22 8.33301 -41 25 -57s40 -24 70 -24c40 0 72.667 16.667 98 50s38 70.333 38 111v19h-25
c-137.333 0 -206 -33 -206 -99zM121.001 580.003l88 127h100l89 -127h-85l-53 80h-2l-52 -80h-85z" />
    <glyph glyph-name="atilde" unicode="&#xe3;" horiz-adv-x="527" 
d="M33 138c0 37.333 10.334 68.6689 31.001 94.002s48.167 43.5 82.5 54.5s66.166 18.5 95.499 22.5s60.333 6 93 6h26v10c0 74 -37 111 -111 111c-48.667 0 -96 -16.333 -142 -49l-39 71c20.667 17.333 48.667 31.666 84 42.999s70.333 17 105 17c64 0 113.333 -17 148 -51
s52 -83 52 -147v-320h-91v51l3 40h-2c-15.333 -30 -37.833 -54.667 -67.5 -74s-62.5 -29 -98.5 -29c-46 0 -85.667 13.667 -119 41s-50 63.666 -50 108.999zM130.001 146.003c0 -22 8.33301 -41 25 -57s40 -24 70 -24c40 0 72.667 16.667 98 50s38 70.333 38 111v19h-25
c-137.333 0 -206 -33 -206 -99zM92.001 581.003c0 84.667 34.001 127 102.001 127c19.333 0 36.333 -5.66699 51 -17s28 -22.666 40 -33.999s23.667 -17 35 -17c13.333 0 23.166 6.5 29.499 19.5s9.5 28.167 9.5 45.5h70c0 -84.667 -34 -127 -102 -127
c-19.333 0 -36.333 5.66699 -51 17s-28 22.666 -40 33.999s-23.667 17 -35 17c-26 0 -39 -21.667 -39 -65h-70z" />
    <glyph glyph-name="adieresis" unicode="&#xe4;" horiz-adv-x="527" 
d="M33 138c0 37.333 10.334 68.6689 31.001 94.002s48.167 43.5 82.5 54.5s66.166 18.5 95.499 22.5s60.333 6 93 6h26v10c0 74 -37 111 -111 111c-48.667 0 -96 -16.333 -142 -49l-39 71c20.667 17.333 48.667 31.666 84 42.999s70.333 17 105 17c64 0 113.333 -17 148 -51
s52 -83 52 -147v-320h-91v51l3 40h-2c-15.333 -30 -37.833 -54.667 -67.5 -74s-62.5 -29 -98.5 -29c-46 0 -85.667 13.667 -119 41s-50 63.666 -50 108.999zM130.001 146.003c0 -22 8.33301 -41 25 -57s40 -24 70 -24c40 0 72.667 16.667 98 50s38 70.333 38 111v19h-25
c-137.333 0 -206 -33 -206 -99zM305.001 606.003v101h79v-101h-79zM137.001 606.003v101h80v-101h-80z" />
    <glyph glyph-name="aring" unicode="&#xe5;" horiz-adv-x="527" 
d="M33 138c0 37.333 10.334 68.6689 31.001 94.002s48.167 43.5 82.5 54.5s66.166 18.5 95.499 22.5s60.333 6 93 6h26v10c0 74 -37 111 -111 111c-48.667 0 -96 -16.333 -142 -49l-39 71c20.667 17.333 48.667 31.666 84 42.999s70.333 17 105 17c64 0 113.333 -17 148 -51
s52 -83 52 -147v-320h-91v51l3 40h-2c-15.333 -30 -37.833 -54.667 -67.5 -74s-62.5 -29 -98.5 -29c-46 0 -85.667 13.667 -119 41s-50 63.666 -50 108.999zM130.001 146.003c0 -22 8.33301 -41 25 -57s40 -24 70 -24c40 0 72.667 16.667 98 50s38 70.333 38 111v19h-25
c-137.333 0 -206 -33 -206 -99zM260.001 568.003c-23.333 0 -43.3311 6.83301 -59.998 20.5s-25 31.5 -25 53.5c0 22.667 8.33301 40.834 25 54.501s36.667 20.5 60 20.5s43.166 -6.83301 59.499 -20.5s24.5 -31.834 24.5 -54.501c0 -22 -8.33301 -39.833 -25 -53.5
s-36.334 -20.5 -59.001 -20.5zM260.003 609.003c9.33301 0 17.166 3.16699 23.499 9.5s9.5 14.166 9.5 23.499c0 10.667 -3.16699 19.167 -9.5 25.5s-14.166 9.5 -23.499 9.5c-10 0 -18 -3.16699 -24 -9.5s-9 -14.833 -9 -25.5c0 -9.33301 3 -17.166 9 -23.499
s14 -9.5 24 -9.5z" />
    <glyph glyph-name="ae" unicode="&#xe6;" horiz-adv-x="863" 
d="M34 142c0 26 4.83496 48.998 14.502 68.998s23.5 36 41.5 48s36.333 21.833 55 29.5s40.834 13.167 66.501 16.5s47.334 5.5 65.001 6.5s37.5 1.5 59.5 1.5h25v12c0 74 -38 111 -114 111c-48 0 -94.667 -16.333 -140 -49l-39 71c21.333 18 49.166 32.5 83.499 43.5
s68.166 16.5 101.499 16.5c85.333 0 141.666 -29.667 168.999 -89h2c40 59.333 99.667 89 179 89c67.333 0 120.333 -22.333 159 -67s58 -100.667 58 -168c0 -8.66699 -0.666992 -22.334 -2 -41.001h-364c2.66699 -54 19.667 -95.833 51 -125.5s70.666 -44.5 117.999 -44.5
c56 0 106 19.333 150 58l40 -70c-23.333 -21.333 -53 -38.666 -89 -51.999s-71.667 -20 -107 -20c-50 0 -93.667 11 -131 33s-66 53 -86 93h-2c-3.33301 -9.33301 -8.83301 -19.666 -16.5 -30.999s-18.667 -24.666 -33 -39.999s-34 -28.166 -59 -38.499
s-52.5 -15.5 -82.5 -15.5c-48.667 0 -89.667 13.667 -123 41s-50 64.666 -50 111.999zM458.002 312.998h264.001c-1.33301 40 -13.5 71.167 -36.5 93.5s-50.833 33.5 -83.5 33.5c-38 0 -69.833 -11 -95.5 -33s-41.834 -53.333 -48.501 -94zM132.003 146.998
c0 -22.667 8.33203 -41.834 24.999 -57.501s40.334 -23.5 71.001 -23.5c39.333 0 71.5 16.833 96.5 50.5s37.5 70.834 37.5 111.501v14h-48c-121.333 0 -182 -31.667 -182 -95z" />
    <glyph glyph-name="ccedilla" unicode="&#xe7;" horiz-adv-x="546" 
d="M251 -88l20.0029 79.002c-68.667 9.33301 -124 38 -166 86s-63 106.667 -63 176c0 75.333 25.5 138.333 76.5 189s115.833 76 194.5 76c80 0 143.333 -24.667 190 -74l-46 -68c-38.667 38.667 -85.334 58 -140.001 58c-50.667 0 -92.667 -17.167 -126 -51.5
s-50 -77.166 -50 -128.499c0 -52 16.833 -95.333 50.5 -130s76.5 -52 128.5 -52c28 0 56.167 6.16699 84.5 18.5s52.166 28.833 71.499 49.5l39 -71c-47.333 -50.667 -110.666 -77.667 -189.999 -81l-8 -38c21.333 -2.66699 38.666 -10.334 51.999 -23.001
s20 -29.334 20 -50.001c0 -28.667 -9.83301 -49.834 -29.5 -63.501s-43.834 -20.5 -72.501 -20.5c-18.667 0 -37 2 -55 6v59c12 -4.66699 26 -7 42 -7c32 0 48 10.333 48 31s-17.667 31 -53 31z" />
    <glyph glyph-name="egrave" unicode="&#xe8;" horiz-adv-x="557" 
d="M42 253c0 79.333 23.999 143.335 71.999 192.002s108.667 73 182 73c68.667 0 122.334 -22.5 161.001 -67.5s58 -101.5 58 -169.5c0 -8.66699 -1.33301 -22.334 -4 -41.001h-368c2.66699 -52.667 20.5 -93.834 53.5 -123.501s73.167 -44.5 120.5 -44.5
c55.333 0 105 19.667 149 59l41 -71c-24 -22 -53.833 -39.5 -89.5 -52.5s-71.167 -19.5 -106.5 -19.5c-78.667 0 -143.167 25.167 -193.5 75.5s-75.5 113.5 -75.5 189.5zM145.999 310.002h271c-1.33301 42 -13.5 74.667 -36.5 98s-51.833 35 -86.5 35
c-38 0 -70.5 -11.833 -97.5 -35.5s-43.833 -56.167 -50.5 -97.5zM256.999 580.002l-95 127h104l73 -127h-82z" />
    <glyph glyph-name="eacute" unicode="&#xe9;" horiz-adv-x="557" 
d="M251 580l72 127h105l-96 -127h-81zM42 253c0 79.333 23.999 143.335 71.999 192.002s108.667 73 182 73c68.667 0 122.334 -22.5 161.001 -67.5s58 -101.5 58 -169.5c0 -8.66699 -1.33301 -22.334 -4 -41.001h-368c2.66699 -52.667 20.5 -93.834 53.5 -123.501
s73.167 -44.5 120.5 -44.5c55.333 0 105 19.667 149 59l41 -71c-24 -22 -53.833 -39.5 -89.5 -52.5s-71.167 -19.5 -106.5 -19.5c-78.667 0 -143.167 25.167 -193.5 75.5s-75.5 113.5 -75.5 189.5zM145.999 310.002h271c-1.33301 42 -13.5 74.667 -36.5 98
s-51.833 35 -86.5 35c-38 0 -70.5 -11.833 -97.5 -35.5s-43.833 -56.167 -50.5 -97.5z" />
    <glyph glyph-name="ecircumflex" unicode="&#xea;" horiz-adv-x="557" 
d="M156 580l88 127h100l89 -127h-85l-53 80h-2l-52 -80h-85zM42 253c0 79.333 23.999 143.335 71.999 192.002s108.667 73 182 73c68.667 0 122.334 -22.5 161.001 -67.5s58 -101.5 58 -169.5c0 -8.66699 -1.33301 -22.334 -4 -41.001h-368
c2.66699 -52.667 20.5 -93.834 53.5 -123.501s73.167 -44.5 120.5 -44.5c55.333 0 105 19.667 149 59l41 -71c-24 -22 -53.833 -39.5 -89.5 -52.5s-71.167 -19.5 -106.5 -19.5c-78.667 0 -143.167 25.167 -193.5 75.5s-75.5 113.5 -75.5 189.5zM145.999 310.002h271
c-1.33301 42 -13.5 74.667 -36.5 98s-51.833 35 -86.5 35c-38 0 -70.5 -11.833 -97.5 -35.5s-43.833 -56.167 -50.5 -97.5z" />
    <glyph glyph-name="edieresis" unicode="&#xeb;" horiz-adv-x="557" 
d="M340 606v101h79v-101h-79zM172 606v101h80v-101h-80zM42 253c0 79.333 23.999 143.335 71.999 192.002s108.667 73 182 73c68.667 0 122.334 -22.5 161.001 -67.5s58 -101.5 58 -169.5c0 -8.66699 -1.33301 -22.334 -4 -41.001h-368
c2.66699 -52.667 20.5 -93.834 53.5 -123.501s73.167 -44.5 120.5 -44.5c55.333 0 105 19.667 149 59l41 -71c-24 -22 -53.833 -39.5 -89.5 -52.5s-71.167 -19.5 -106.5 -19.5c-78.667 0 -143.167 25.167 -193.5 75.5s-75.5 113.5 -75.5 189.5zM145.999 310.002h271
c-1.33301 42 -13.5 74.667 -36.5 98s-51.833 35 -86.5 35c-38 0 -70.5 -11.833 -97.5 -35.5s-43.833 -56.167 -50.5 -97.5z" />
    <glyph glyph-name="igrave" unicode="&#xec;" horiz-adv-x="246" 
d="M75 0v506h97v-506h-97zM86 580l-95 127h104l73 -127h-82z" />
    <glyph glyph-name="iacute" unicode="&#xed;" horiz-adv-x="246" 
d="M81 580l72 127h105l-96 -127h-81zM75 0v506h97v-506h-97z" />
    <glyph glyph-name="icircumflex" unicode="&#xee;" horiz-adv-x="246" 
d="M-14 580l88 127h100l89 -127h-85l-53 80h-2l-52 -80h-85zM75 0v506h97v-506h-97z" />
    <glyph glyph-name="idieresis" unicode="&#xef;" horiz-adv-x="246" 
d="M170 606v101h79v-101h-79zM2 606v101h80v-101h-80zM75 0v506h97v-506h-97z" />
    <glyph glyph-name="eth" unicode="&#xf0;" horiz-adv-x="581" 
d="M44 235c0 62.667 21.168 116.835 63.501 162.502s100.166 68.5 173.499 68.5c24 0 46.167 -3.5 66.5 -10.5s34.833 -14.167 43.5 -21.5l13 -10h2c-20 53.333 -56.333 97.666 -109 132.999l-181 -80l-10 62l124 55c-37.333 19.333 -80.333 34.666 -129 45.999l27 79
c80.667 -19.333 149.667 -46 207 -80l139 61l9 -61l-92 -42c96 -80 144 -187.333 144 -322c0 -35.333 -4.83301 -69.333 -14.5 -102s-24.167 -63.167 -43.5 -91.5s-46 -51 -80 -68s-72.667 -25.5 -116 -25.5c-72 0 -129.5 24.5 -172.5 73.5s-64.5 106.833 -64.5 173.5z
M143.001 233.001c0 -44 12.333 -82 37 -114s59.334 -48 104.001 -48c50 0 87.833 18.833 113.5 56.5s38.5 81.167 38.5 130.5c0 38 -12.833 69.167 -38.5 93.5s-59.834 36.5 -102.501 36.5c-48.667 0 -86.167 -15.167 -112.5 -45.5s-39.5 -66.833 -39.5 -109.5z" />
    <glyph glyph-name="ntilde" unicode="&#xf1;" horiz-adv-x="603" 
d="M75 0v506.001h94v-69l-3 -38h2c12.667 28.667 35.5 55.667 68.5 81s74.167 38 123.5 38c115.333 0 173 -64.667 173 -194v-324h-97v302c0 40.667 -6.5 72 -19.5 94s-38.167 33 -75.5 33c-48.667 0 -89 -17.833 -121 -53.5s-48 -79.834 -48 -132.501v-243h-97z
M143 581.001c0 84.667 34.001 127 102.001 127c19.333 0 36.333 -5.66699 51 -17s28 -22.666 40 -33.999s23.667 -17 35 -17c13.333 0 23.166 6.5 29.499 19.5s9.5 28.167 9.5 45.5h70c0 -84.667 -34 -127 -102 -127c-19.333 0 -36.333 5.66699 -51 17
s-28 22.666 -40 33.999s-23.667 17 -35 17c-26 0 -39 -21.667 -39 -65h-70z" />
    <glyph glyph-name="ograve" unicode="&#xf2;" horiz-adv-x="629" 
d="M42 254c0 75.333 26.332 138.167 78.999 188.5s117 75.5 193 75.5c76.667 0 141.334 -25 194.001 -75s79 -113 79 -189s-26.333 -139.333 -79 -190s-117 -76 -193 -76s-140.5 25.333 -193.5 76s-79.5 114 -79.5 190zM140.999 254.001
c0 -52.667 16.833 -96.167 50.5 -130.5s74.834 -51.5 123.501 -51.5c48 0 89 17.333 123 52s51 78 51 130s-17 95 -51 129s-75 51 -123 51c-48.667 0 -89.834 -17 -123.501 -51s-50.5 -77 -50.5 -129zM274.999 580.001l-95 127h104l73 -127h-82z" />
    <glyph glyph-name="oacute" unicode="&#xf3;" horiz-adv-x="629" 
d="M271 580l72 127h105l-96 -127h-81zM42 254c0 75.333 26.332 138.167 78.999 188.5s117 75.5 193 75.5c76.667 0 141.334 -25 194.001 -75s79 -113 79 -189s-26.333 -139.333 -79 -190s-117 -76 -193 -76s-140.5 25.333 -193.5 76s-79.5 114 -79.5 190zM140.999 254.001
c0 -52.667 16.833 -96.167 50.5 -130.5s74.834 -51.5 123.501 -51.5c48 0 89 17.333 123 52s51 78 51 130s-17 95 -51 129s-75 51 -123 51c-48.667 0 -89.834 -17 -123.501 -51s-50.5 -77 -50.5 -129z" />
    <glyph glyph-name="ocircumflex" unicode="&#xf4;" horiz-adv-x="629" 
d="M176 580l88 127h100l89 -127h-85l-53 80h-2l-52 -80h-85zM42 254c0 75.333 26.332 138.167 78.999 188.5s117 75.5 193 75.5c76.667 0 141.334 -25 194.001 -75s79 -113 79 -189s-26.333 -139.333 -79 -190s-117 -76 -193 -76s-140.5 25.333 -193.5 76
s-79.5 114 -79.5 190zM140.999 254.001c0 -52.667 16.833 -96.167 50.5 -130.5s74.834 -51.5 123.501 -51.5c48 0 89 17.333 123 52s51 78 51 130s-17 95 -51 129s-75 51 -123 51c-48.667 0 -89.834 -17 -123.501 -51s-50.5 -77 -50.5 -129z" />
    <glyph glyph-name="otilde" unicode="&#xf5;" horiz-adv-x="629" 
d="M42 254c0 75.333 26.332 138.167 78.999 188.5s117 75.5 193 75.5c76.667 0 141.334 -25 194.001 -75s79 -113 79 -189s-26.333 -139.333 -79 -190s-117 -76 -193 -76s-140.5 25.333 -193.5 76s-79.5 114 -79.5 190zM140.999 254.001
c0 -52.667 16.833 -96.167 50.5 -130.5s74.834 -51.5 123.501 -51.5c48 0 89 17.333 123 52s51 78 51 130s-17 95 -51 129s-75 51 -123 51c-48.667 0 -89.834 -17 -123.501 -51s-50.5 -77 -50.5 -129zM145.999 581.001c0 84.667 34.001 127 102.001 127
c19.333 0 36.333 -5.66699 51 -17s28 -22.666 40 -33.999s23.667 -17 35 -17c13.333 0 23.166 6.5 29.499 19.5s9.5 28.167 9.5 45.5h70c0 -84.667 -34 -127 -102 -127c-19.333 0 -36.333 5.66699 -51 17s-28 22.666 -40 33.999s-23.667 17 -35 17
c-26 0 -39 -21.667 -39 -65h-70z" />
    <glyph glyph-name="odieresis" unicode="&#xf6;" horiz-adv-x="629" 
d="M359 606v101h79v-101h-79zM191 606v101h80v-101h-80zM42 254c0 75.333 26.332 138.167 78.999 188.5s117 75.5 193 75.5c76.667 0 141.334 -25 194.001 -75s79 -113 79 -189s-26.333 -139.333 -79 -190s-117 -76 -193 -76s-140.5 25.333 -193.5 76s-79.5 114 -79.5 190z
M140.999 254.001c0 -52.667 16.833 -96.167 50.5 -130.5s74.834 -51.5 123.501 -51.5c48 0 89 17.333 123 52s51 78 51 130s-17 95 -51 129s-75 51 -123 51c-48.667 0 -89.834 -17 -123.501 -51s-50.5 -77 -50.5 -129z" />
    <glyph glyph-name="divide" unicode="&#xf7;" horiz-adv-x="577" 
d="M241 435v91h94v-91h-94zM36 246v78h505v-78h-505zM241 44v91h94v-91h-94z" />
    <glyph glyph-name="oslash" unicode="&#xf8;" horiz-adv-x="630" 
d="M100 -4l37.999 53c-64 52 -96 120.333 -96 205c0 76 26.333 139 79 189s117.334 75 194.001 75c48 0 93 -11 135 -33l40 55l47 -34l-39 -54c60 -51.333 90 -117.333 90 -198c0 -76 -26.5 -139.333 -79.5 -190s-117.5 -76 -193.5 -76c-47.333 0 -90 10 -128 30l-39 -56z
M191.999 125l206 287c-25.333 14.667 -53 22 -83 22c-48 0 -89 -17 -123 -51s-51 -77 -51 -129c0 -50.667 17 -93.667 51 -129zM238.999 90c25.333 -12 50.666 -18 75.999 -18c48.667 0 89.834 17.167 123.501 51.5s50.5 77.833 50.5 130.5c0 48 -15.333 88 -46 120z" />
    <glyph glyph-name="ugrave" unicode="&#xf9;" horiz-adv-x="597" 
d="M69 182l-0.00195312 324h97v-302c0 -40 6.66699 -71 20 -93s38.333 -33 75 -33c50 0 90 18.667 120 56s45 82.333 45 135v237h96v-506h-94v70l4 37h-2c-13.333 -30 -36.666 -57.333 -69.999 -82s-72.666 -37 -117.999 -37c-115.333 0 -173 64.667 -173 194zM256.998 580
l-95 127h104l73 -127h-82z" />
    <glyph glyph-name="uacute" unicode="&#xfa;" horiz-adv-x="597" 
d="M252 580l72 127h105l-96 -127h-81zM69 182l-0.00195312 324h97v-302c0 -40 6.66699 -71 20 -93s38.333 -33 75 -33c50 0 90 18.667 120 56s45 82.333 45 135v237h96v-506h-94v70l4 37h-2c-13.333 -30 -36.666 -57.333 -69.999 -82s-72.666 -37 -117.999 -37
c-115.333 0 -173 64.667 -173 194z" />
    <glyph glyph-name="ucircumflex" unicode="&#xfb;" horiz-adv-x="597" 
d="M156 580l88 127h100l89 -127h-85l-53 80h-2l-52 -80h-85zM69 182l-0.00195312 324h97v-302c0 -40 6.66699 -71 20 -93s38.333 -33 75 -33c50 0 90 18.667 120 56s45 82.333 45 135v237h96v-506h-94v70l4 37h-2c-13.333 -30 -36.666 -57.333 -69.999 -82
s-72.666 -37 -117.999 -37c-115.333 0 -173 64.667 -173 194z" />
    <glyph glyph-name="udieresis" unicode="&#xfc;" horiz-adv-x="597" 
d="M340 606v101h79v-101h-79zM172 606v101h80v-101h-80zM69 182l-0.00195312 324h97v-302c0 -40 6.66699 -71 20 -93s38.333 -33 75 -33c50 0 90 18.667 120 56s45 82.333 45 135v237h96v-506h-94v70l4 37h-2c-13.333 -30 -36.666 -57.333 -69.999 -82
s-72.666 -37 -117.999 -37c-115.333 0 -173 64.667 -173 194z" />
    <glyph glyph-name="yacute" unicode="&#xfd;" horiz-adv-x="535" 
d="M50 -105c18.667 -14.667 37.999 -21.999 57.999 -21.999c40.667 0 71.334 25 92.001 75l25 58l-212 500h109l127 -331l19 -61h2c5.33301 22.667 11 42.667 17 60l123 332h105l-238 -597c-14.667 -38.667 -36.5 -68.167 -65.5 -88.5s-61.833 -30.5 -98.5 -30.5
c-16.667 0 -33 2.66699 -49 8s-28 10.666 -36 15.999l-12 7zM224.999 580.001l72 127h105l-96 -127h-81z" />
    <glyph glyph-name="thorn" unicode="&#xfe;" horiz-adv-x="600" 
d="M75 -200v906.001h97v-231l-2 -41h2c14 25.333 34.833 45.666 62.5 60.999s60.167 23 97.5 23c68 0 122.333 -24.667 163 -74s61 -113 61 -191s-21.167 -141.667 -63.5 -191s-96.833 -74 -163.5 -74c-32 0 -62.5 7.16699 -91.5 21.5s-50.833 34.833 -65.5 61.5h-2
c1.33301 -12 2 -26.667 2 -44v-227h-97zM169 252.001c0 -53.333 13.168 -96.833 39.501 -130.5s61.5 -50.5 105.5 -50.5c41.333 0 75.666 16.833 102.999 50.5s41 77.5 41 131.5c0 53.333 -13.167 96.833 -39.5 130.5s-60.5 50.5 -102.5 50.5s-77 -15 -105 -45
s-42 -75.667 -42 -137z" />
    <glyph glyph-name="ydieresis" unicode="&#xff;" horiz-adv-x="535" 
d="M50 -105c18.667 -14.667 37.999 -21.999 57.999 -21.999c40.667 0 71.334 25 92.001 75l25 58l-212 500h109l127 -331l19 -61h2c5.33301 22.667 11 42.667 17 60l123 332h105l-238 -597c-14.667 -38.667 -36.5 -68.167 -65.5 -88.5s-61.833 -30.5 -98.5 -30.5
c-16.667 0 -33 2.66699 -49 8s-28 10.666 -36 15.999l-12 7zM312.999 606.001v101h79v-101h-79zM144.999 606.001v101h80v-101h-80z" />
    <glyph glyph-name="Amacron" unicode="&#x100;" horiz-adv-x="641" 
d="M15 0l253 706h105l253 -706h-102l-71 203h-266l-71 -203h-101zM213 285l214 0.000976562l-78 223l-28 101h-2c-10 -42.667 -19 -76.334 -27 -101.001zM193 784.001v71h254v-71h-254z" />
    <glyph glyph-name="amacron" unicode="&#x101;" horiz-adv-x="527" 
d="M33 138c0 37.333 10.334 68.6689 31.001 94.002s48.167 43.5 82.5 54.5s66.166 18.5 95.499 22.5s60.333 6 93 6h26v10c0 74 -37 111 -111 111c-48.667 0 -96 -16.333 -142 -49l-39 71c20.667 17.333 48.667 31.666 84 42.999s70.333 17 105 17c64 0 113.333 -17 148 -51
s52 -83 52 -147v-320h-91v51l3 40h-2c-15.333 -30 -37.833 -54.667 -67.5 -74s-62.5 -29 -98.5 -29c-46 0 -85.667 13.667 -119 41s-50 63.666 -50 108.999zM130.001 146.003c0 -22 8.33301 -41 25 -57s40 -24 70 -24c40 0 72.667 16.667 98 50s38 70.333 38 111v19h-25
c-137.333 0 -206 -33 -206 -99zM134.001 609.003v71h254v-71h-254z" />
    <glyph glyph-name="Abreve" unicode="&#x102;" horiz-adv-x="641" 
d="M15 0l253 706h105l253 -706h-102l-71 203h-266l-71 -203h-101zM213 285l214 0.000976562l-78 223l-28 101h-2c-10 -42.667 -19 -76.334 -27 -101.001zM320 751.001c-36.667 0 -67.834 10.333 -93.501 31s-38.5 49.334 -38.5 86.001v14h72v-13c0 -20 5.83301 -35 17.5 -45
s25.834 -15 42.501 -15c16 0 29.833 5.16699 41.5 15.5s17.5 25.5 17.5 45.5v12h72v-14c0 -36.667 -12.833 -65.334 -38.5 -86.001s-56.5 -31 -92.5 -31z" />
    <glyph glyph-name="abreve" unicode="&#x103;" horiz-adv-x="527" 
d="M33 138c0 37.333 10.334 68.6689 31.001 94.002s48.167 43.5 82.5 54.5s66.166 18.5 95.499 22.5s60.333 6 93 6h26v10c0 74 -37 111 -111 111c-48.667 0 -96 -16.333 -142 -49l-39 71c20.667 17.333 48.667 31.666 84 42.999s70.333 17 105 17c64 0 113.333 -17 148 -51
s52 -83 52 -147v-320h-91v51l3 40h-2c-15.333 -30 -37.833 -54.667 -67.5 -74s-62.5 -29 -98.5 -29c-46 0 -85.667 13.667 -119 41s-50 63.666 -50 108.999zM130.001 146.003c0 -22 8.33301 -41 25 -57s40 -24 70 -24c40 0 72.667 16.667 98 50s38 70.333 38 111v19h-25
c-137.333 0 -206 -33 -206 -99zM260.001 576.003c-36.667 0 -67.834 10.333 -93.501 31s-38.5 49.334 -38.5 86.001v14h72v-13c0 -20 5.83301 -35 17.5 -45s25.834 -15 42.501 -15c16 0 29.833 5.16699 41.5 15.5s17.5 25.5 17.5 45.5v12h72v-14
c0 -36.667 -12.833 -65.334 -38.5 -86.001s-56.5 -31 -92.5 -31z" />
    <glyph glyph-name="Aogonek" unicode="&#x104;" horiz-adv-x="641" 
d="M15 0l252.999 706.001h105l253 -706c-42.667 -34 -64 -63.667 -64 -89c0 -11.333 4.66699 -20.5 14 -27.5s18.666 -11.5 27.999 -13.5l13 -2l-23 -75c-3.33301 0 -7.5 0.5 -12.5 1.5s-14.167 3.5 -27.5 7.5s-25.166 9.16699 -35.499 15.5s-19.666 15.666 -27.999 27.999
s-12.5 26.5 -12.5 42.5c0 40 22 77.333 66 112h-20l-71 203h-266l-71 -203h-101zM212.999 285.001l214 0.000976562l-78 223l-28 101h-2c-10 -42.667 -19 -76.334 -27 -101.001z" />
    <glyph glyph-name="aogonek" unicode="&#x105;" horiz-adv-x="527" 
d="M33 138c0 37.333 10.3301 68.6699 30.9971 94.0029s48.167 43.5 82.5 54.5s66.166 18.5 95.499 22.5s60.333 6 93 6h26v10c0 74 -37 111 -111 111c-48.667 0 -96 -16.333 -142 -49l-39 71c20.667 17.333 48.667 31.666 84 42.999s70.333 17 105 17
c64 0 113.333 -17 148 -51s52 -83 52 -147v-320c-43.333 -33.333 -65 -63 -65 -89c0 -11.333 4.5 -20.5 13.5 -27.5s18.167 -11.5 27.5 -13.5l14 -2l-22 -75c-3.33301 0 -7.66602 0.5 -12.999 1.5s-14.666 3.5 -27.999 7.5s-25.166 9.16699 -35.499 15.5
s-19.666 15.666 -27.999 27.999s-12.5 26.5 -12.5 42.5c0 38 23 75.333 69 112h-11v51l3 40h-2c-15.333 -30 -37.833 -54.667 -67.5 -74s-62.5 -29 -98.5 -29c-46 0 -85.667 13.667 -119 41s-50 63.666 -50 108.999zM129.997 146.004c0 -22 8.33301 -41 25 -57
s40 -24 70 -24c40 0 72.667 16.667 98 50s38 70.333 38 111v19h-25c-137.333 0 -206 -33 -206 -99z" />
    <glyph glyph-name="Cacute" unicode="&#x106;" horiz-adv-x="717" 
d="M358 755l72 127h105l-96 -127h-81zM50 357c0 103.333 33.834 189.333 101.501 258s153.5 103 257.5 103c107.333 0 193.333 -31 258 -93l-50 -74c-26 23.333 -57.5 42 -94.5 56s-73.5 21 -109.5 21c-80 0 -143.5 -25.667 -190.5 -77s-70.5 -115.666 -70.5 -192.999
c0 -78 24 -144 72 -198s111.667 -81 191 -81c39.333 0 78.166 8.16699 116.499 24.5s71.833 38.833 100.5 67.5l53 -71c-74.667 -74.667 -165.667 -112 -273 -112s-194.5 35.167 -261.5 105.5s-100.5 158.166 -100.5 263.499z" />
    <glyph glyph-name="cacute" unicode="&#x107;" horiz-adv-x="545" 
d="M249 580l72 127h105l-96 -127h-81zM42 253c0 75.333 25.502 138.333 76.502 189s115.833 76 194.5 76c80 0 143.333 -24.667 190 -74l-46 -68c-38.667 38.667 -85.334 58 -140.001 58c-50.667 0 -92.667 -17.167 -126 -51.5s-50 -77.166 -50 -128.499
c0 -52 16.833 -95.333 50.5 -130s76.5 -52 128.5 -52c28 0 56.167 6.16699 84.5 18.5s52.166 28.833 71.499 49.5l39 -71c-23.333 -24.667 -53 -44.334 -89 -59.001s-73.667 -22 -113 -22c-79.333 0 -144.333 25 -195 75s-76 113.333 -76 190z" />
    <glyph glyph-name="Ccircumflex" unicode="&#x108;" horiz-adv-x="717" 
d="M263 755l88 127h100l89 -127h-85l-53 80h-2l-52 -80h-85zM50 357c0 103.333 33.834 189.333 101.501 258s153.5 103 257.5 103c107.333 0 193.333 -31 258 -93l-50 -74c-26 23.333 -57.5 42 -94.5 56s-73.5 21 -109.5 21c-80 0 -143.5 -25.667 -190.5 -77
s-70.5 -115.666 -70.5 -192.999c0 -78 24 -144 72 -198s111.667 -81 191 -81c39.333 0 78.166 8.16699 116.499 24.5s71.833 38.833 100.5 67.5l53 -71c-74.667 -74.667 -165.667 -112 -273 -112s-194.5 35.167 -261.5 105.5s-100.5 158.166 -100.5 263.499z" />
    <glyph glyph-name="ccircumflex" unicode="&#x109;" horiz-adv-x="545" 
d="M154 580l88 127h100l89 -127h-85l-53 80h-2l-52 -80h-85zM42 253c0 75.333 25.502 138.333 76.502 189s115.833 76 194.5 76c80 0 143.333 -24.667 190 -74l-46 -68c-38.667 38.667 -85.334 58 -140.001 58c-50.667 0 -92.667 -17.167 -126 -51.5
s-50 -77.166 -50 -128.499c0 -52 16.833 -95.333 50.5 -130s76.5 -52 128.5 -52c28 0 56.167 6.16699 84.5 18.5s52.166 28.833 71.499 49.5l39 -71c-23.333 -24.667 -53 -44.334 -89 -59.001s-73.667 -22 -113 -22c-79.333 0 -144.333 25 -195 75s-76 113.333 -76 190z" />
    <glyph glyph-name="Cdotaccent" unicode="&#x10a;" horiz-adv-x="717" 
d="M50 357c0 103.333 33.834 189.333 101.501 258s153.5 103 257.5 103c107.333 0 193.333 -31 258 -93l-50 -74c-26 23.333 -57.5 42 -94.5 56s-73.5 21 -109.5 21c-80 0 -143.5 -25.667 -190.5 -77s-70.5 -115.666 -70.5 -192.999c0 -78 24 -144 72 -198
s111.667 -81 191 -81c39.333 0 78.166 8.16699 116.499 24.5s71.833 38.833 100.5 67.5l53 -71c-74.667 -74.667 -165.667 -112 -273 -112s-194.5 35.167 -261.5 105.5s-100.5 158.166 -100.5 263.499zM359.001 784v98h86v-98h-86z" />
    <glyph glyph-name="cdotaccent" unicode="&#x10b;" horiz-adv-x="545" 
d="M42 253c0 75.333 25.502 138.333 76.502 189s115.833 76 194.5 76c80 0 143.333 -24.667 190 -74l-46 -68c-38.667 38.667 -85.334 58 -140.001 58c-50.667 0 -92.667 -17.167 -126 -51.5s-50 -77.166 -50 -128.499c0 -52 16.833 -95.333 50.5 -130s76.5 -52 128.5 -52
c28 0 56.167 6.16699 84.5 18.5s52.166 28.833 71.499 49.5l39 -71c-23.333 -24.667 -53 -44.334 -89 -59.001s-73.667 -22 -113 -22c-79.333 0 -144.333 25 -195 75s-76 113.333 -76 190zM251.002 609v98h86v-98h-86z" />
    <glyph glyph-name="Ccaron" unicode="&#x10c;" horiz-adv-x="717" 
d="M351 755l-88 127h85l52 -81h2l53 81h85l-89 -127h-100zM50 357c0 103.333 33.834 189.333 101.501 258s153.5 103 257.5 103c107.333 0 193.333 -31 258 -93l-50 -74c-26 23.333 -57.5 42 -94.5 56s-73.5 21 -109.5 21c-80 0 -143.5 -25.667 -190.5 -77
s-70.5 -115.666 -70.5 -192.999c0 -78 24 -144 72 -198s111.667 -81 191 -81c39.333 0 78.166 8.16699 116.499 24.5s71.833 38.833 100.5 67.5l53 -71c-74.667 -74.667 -165.667 -112 -273 -112s-194.5 35.167 -261.5 105.5s-100.5 158.166 -100.5 263.499z" />
    <glyph glyph-name="ccaron" unicode="&#x10d;" horiz-adv-x="545" 
d="M242 580l-88 127h85l52 -81h2l53 81h85l-89 -127h-100zM42 253c0 75.333 25.502 138.333 76.502 189s115.833 76 194.5 76c80 0 143.333 -24.667 190 -74l-46 -68c-38.667 38.667 -85.334 58 -140.001 58c-50.667 0 -92.667 -17.167 -126 -51.5s-50 -77.166 -50 -128.499
c0 -52 16.833 -95.333 50.5 -130s76.5 -52 128.5 -52c28 0 56.167 6.16699 84.5 18.5s52.166 28.833 71.499 49.5l39 -71c-23.333 -24.667 -53 -44.334 -89 -59.001s-73.667 -22 -113 -22c-79.333 0 -144.333 25 -195 75s-76 113.333 -76 190z" />
    <glyph glyph-name="Dcaron" unicode="&#x10e;" horiz-adv-x="737" 
d="M291 755l-88 127h85l52 -81h2l53 81h85l-89 -127h-100zM93 0v706.001h235c108.667 0 195.334 -31.167 260.001 -93.5s97 -148.5 97 -258.5c0 -110.667 -32.333 -197.334 -97 -260.001s-151.334 -94 -260.001 -94h-235zM192 86.001h129c80.667 0 144.5 23.167 191.5 69.5
s70.5 112.5 70.5 198.5c0 84.667 -23.667 150.167 -71 196.5s-111 69.5 -191 69.5h-129v-534z" />
    <glyph glyph-name="dcaron" unicode="&#x10f;" horiz-adv-x="610" 
d="M583 705l85 -0.000976562c4.66699 -18 7 -35 7 -51c0 -27.333 -8.33301 -58.666 -25 -93.999h-74c12.667 36 19 64 19 84s-4 40.333 -12 61zM44 252.999c0 80 21.333 144.167 64 192.5s97.667 72.5 165 72.5c32.667 0 63 -7.16699 91 -21.5s50 -34.833 66 -61.5h2
c-1.33301 10 -2 21.333 -2 34v237h96v-706h-92v51l3 34h-2c-15.333 -28.667 -37.5 -52 -66.5 -70s-62.833 -27 -101.5 -27c-67.333 0 -121.333 24.333 -162 73s-61 112.667 -61 192zM143 252.999c0 -54.667 13.167 -98.501 39.5 -131.501s60.833 -49.5 103.5 -49.5
c41.333 0 76 15.333 104 46s42 76 42 136c0 49.333 -12.5 91.5 -37.5 126.5s-60.5 52.5 -106.5 52.5c-41.333 0 -75.833 -16.167 -103.5 -48.5s-41.5 -76.166 -41.5 -131.499z" />
    <glyph glyph-name="Dcroat" unicode="&#x110;" horiz-adv-x="743" 
d="M99 0v312.001h-58v82h58v312h235c108.667 0 195.334 -31.167 260.001 -93.5s97 -148.5 97 -258.5c0 -110.667 -32.333 -197.334 -97 -260.001s-151.334 -94 -260.001 -94h-235zM197 86.001h130c80.667 0 144.5 23.167 191.5 69.5s70.5 112.5 70.5 198.5
c0 84.667 -23.667 150.167 -71 196.5s-111 69.5 -191 69.5h-130v-226h150v-82h-150v-226z" />
    <glyph glyph-name="dcroat" unicode="&#x111;" horiz-adv-x="601" 
d="M44 253c0 80 21.334 144.167 64.001 192.5s97.667 72.5 165 72.5c32 0 62.167 -6.83301 90.5 -20.5s50.166 -33.5 65.499 -59.5h2c-0.666992 10 -1 21.333 -1 34v91h-131v63h131v80h96v-80h76v-63h-76v-563h-92v48l1 34h-2c-15.333 -28.667 -37.333 -51.5 -66 -68.5
s-62 -25.5 -100 -25.5c-67.333 0 -121.333 24.333 -162 73s-61 112.667 -61 192zM143.001 253c0 -54.667 13.167 -98.499 39.5 -131.499s60.833 -49.5 103.5 -49.5c41.333 0 76 15.333 104 46s42 76 42 136c0 49.333 -12.5 91.666 -37.5 126.999s-60.5 53 -106.5 53
c-41.333 0 -75.833 -16.333 -103.5 -49s-41.5 -76.667 -41.5 -132z" />
    <glyph glyph-name="Emacron" unicode="&#x112;" horiz-adv-x="564" 
d="M93 0v706h411v-86h-312v-221h253v-86h-253v-227h329v-86h-428zM183 784v71h254v-71h-254z" />
    <glyph glyph-name="emacron" unicode="&#x113;" horiz-adv-x="557" 
d="M42 253c0 79.333 23.999 143.335 71.999 192.002s108.667 73 182 73c68.667 0 122.334 -22.5 161.001 -67.5s58 -101.5 58 -169.5c0 -8.66699 -1.33301 -22.334 -4 -41.001h-368c2.66699 -52.667 20.5 -93.834 53.5 -123.501s73.167 -44.5 120.5 -44.5
c55.333 0 105 19.667 149 59l41 -71c-24 -22 -53.833 -39.5 -89.5 -52.5s-71.167 -19.5 -106.5 -19.5c-78.667 0 -143.167 25.167 -193.5 75.5s-75.5 113.5 -75.5 189.5zM145.999 310.002h271c-1.33301 42 -13.5 74.667 -36.5 98s-51.833 35 -86.5 35
c-38 0 -70.5 -11.833 -97.5 -35.5s-43.833 -56.167 -50.5 -97.5zM168.999 609.002v71h254v-71h-254z" />
    <glyph glyph-name="Ebreve" unicode="&#x114;" horiz-adv-x="564" 
d="M93 0v706h411v-86h-312v-221h253v-86h-253v-227h329v-86h-428zM309 751c-36.667 0 -67.834 10.333 -93.501 31s-38.5 49.334 -38.5 86.001v14h72v-13c0 -20 5.83301 -35 17.5 -45s25.834 -15 42.501 -15c16 0 29.833 5.16699 41.5 15.5s17.5 25.5 17.5 45.5v12h72v-14
c0 -36.667 -12.833 -65.334 -38.5 -86.001s-56.5 -31 -92.5 -31z" />
    <glyph glyph-name="ebreve" unicode="&#x115;" horiz-adv-x="557" 
d="M42 253c0 79.333 23.999 143.335 71.999 192.002s108.667 73 182 73c68.667 0 122.334 -22.5 161.001 -67.5s58 -101.5 58 -169.5c0 -8.66699 -1.33301 -22.334 -4 -41.001h-368c2.66699 -52.667 20.5 -93.834 53.5 -123.501s73.167 -44.5 120.5 -44.5
c55.333 0 105 19.667 149 59l41 -71c-24 -22 -53.833 -39.5 -89.5 -52.5s-71.167 -19.5 -106.5 -19.5c-78.667 0 -143.167 25.167 -193.5 75.5s-75.5 113.5 -75.5 189.5zM145.999 310.002h271c-1.33301 42 -13.5 74.667 -36.5 98s-51.833 35 -86.5 35
c-38 0 -70.5 -11.833 -97.5 -35.5s-43.833 -56.167 -50.5 -97.5zM294.999 576.002c-36.667 0 -67.834 10.333 -93.501 31s-38.5 49.334 -38.5 86.001v14h72v-13c0 -20 5.83301 -35 17.5 -45s25.834 -15 42.501 -15c16 0 29.833 5.16699 41.5 15.5s17.5 25.5 17.5 45.5v12h72
v-14c0 -36.667 -12.833 -65.334 -38.5 -86.001s-56.5 -31 -92.5 -31z" />
    <glyph glyph-name="Edotaccent" unicode="&#x116;" horiz-adv-x="564" 
d="M93 0v706h411v-86h-312v-221h253v-86h-253v-227h329v-86h-428zM266 784v98h86v-98h-86z" />
    <glyph glyph-name="edotaccent" unicode="&#x117;" horiz-adv-x="557" 
d="M42 253c0 79.333 23.999 143.335 71.999 192.002s108.667 73 182 73c68.667 0 122.334 -22.5 161.001 -67.5s58 -101.5 58 -169.5c0 -8.66699 -1.33301 -22.334 -4 -41.001h-368c2.66699 -52.667 20.5 -93.834 53.5 -123.501s73.167 -44.5 120.5 -44.5
c55.333 0 105 19.667 149 59l41 -71c-24 -22 -53.833 -39.5 -89.5 -52.5s-71.167 -19.5 -106.5 -19.5c-78.667 0 -143.167 25.167 -193.5 75.5s-75.5 113.5 -75.5 189.5zM145.999 310.002h271c-1.33301 42 -13.5 74.667 -36.5 98s-51.833 35 -86.5 35
c-38 0 -70.5 -11.833 -97.5 -35.5s-43.833 -56.167 -50.5 -97.5zM251.999 609.002v98h86v-98h-86z" />
    <glyph glyph-name="Eogonek" unicode="&#x118;" horiz-adv-x="564" 
d="M93 0l-0.000976562 706.002h411v-86h-312v-221h253v-86h-253v-227h329v-86c-43.333 -33.333 -65 -63 -65 -89c0 -11.333 4.66699 -20.5 14 -27.5s18.666 -11.5 27.999 -13.5l14 -2l-23 -75c-3.33301 0 -7.5 0.5 -12.5 1.5s-14.167 3.5 -27.5 7.5
s-25.166 9.16699 -35.499 15.5s-19.666 15.666 -27.999 27.999s-12.5 26.5 -12.5 42.5c0 39.333 23.667 76.666 71 111.999h-351z" />
    <glyph glyph-name="eogonek" unicode="&#x119;" horiz-adv-x="557" 
d="M42 253c0 79.333 23.998 143.336 71.998 192.003s108.667 73 182 73c68.667 0 122.334 -22.5 161.001 -67.5s58 -101.5 58 -169.5l-4 -41h-368c2.66699 -52.667 20.5 -93.834 53.5 -123.501s73.167 -44.5 120.5 -44.5c54.667 0 104.334 19.667 149.001 59l40 -71
c-6.66699 -6.66699 -22.834 -19.334 -48.501 -38.001s-46.334 -37 -62.001 -55s-23.5 -36.667 -23.5 -56c0 -11.333 4.66699 -20.5 14 -27.5s18.666 -11.5 27.999 -13.5l13 -2l-22 -75c-3.33301 0 -7.66602 0.5 -12.999 1.5s-14.666 3.5 -27.999 7.5
s-25.166 9.16699 -35.499 15.5s-19.666 15.666 -27.999 27.999s-12.5 26.5 -12.5 42.5c0 35.333 20.333 70 61 104c-14.667 -2.66699 -27.334 -4 -38.001 -4c-78.667 0 -143.167 25.167 -193.5 75.5s-75.5 113.5 -75.5 189.5zM145.998 310.003h271
c-1.33301 42 -13.5 74.667 -36.5 98s-51.833 35 -86.5 35c-38 0 -70.5 -12 -97.5 -36s-43.833 -56.333 -50.5 -97z" />
    <glyph glyph-name="Ecaron" unicode="&#x11a;" horiz-adv-x="564" 
d="M258 755l-88 127h85l52 -81h2l53 81h85l-89 -127h-100zM93 0v706h411v-86h-312v-221h253v-86h-253v-227h329v-86h-428z" />
    <glyph glyph-name="ecaron" unicode="&#x11b;" horiz-adv-x="557" 
d="M244 580l-88 127h85l52 -81h2l53 81h85l-89 -127h-100zM42 253c0 79.333 23.999 143.335 71.999 192.002s108.667 73 182 73c68.667 0 122.334 -22.5 161.001 -67.5s58 -101.5 58 -169.5c0 -8.66699 -1.33301 -22.334 -4 -41.001h-368
c2.66699 -52.667 20.5 -93.834 53.5 -123.501s73.167 -44.5 120.5 -44.5c55.333 0 105 19.667 149 59l41 -71c-24 -22 -53.833 -39.5 -89.5 -52.5s-71.167 -19.5 -106.5 -19.5c-78.667 0 -143.167 25.167 -193.5 75.5s-75.5 113.5 -75.5 189.5zM145.999 310.002h271
c-1.33301 42 -13.5 74.667 -36.5 98s-51.833 35 -86.5 35c-38 0 -70.5 -11.833 -97.5 -35.5s-43.833 -56.167 -50.5 -97.5z" />
    <glyph glyph-name="Gcircumflex" unicode="&#x11c;" horiz-adv-x="762" 
d="M260 755l88 127h100l89 -127h-85l-53 80h-2l-52 -80h-85zM50 354c0 102.667 34.333 189 103 259s154.334 105 257.001 105c103.333 0 189 -28.667 257 -86l-50 -73c-24 20 -54.5 36.5 -91.5 49.5s-73.167 19.5 -108.5 19.5c-80 0 -144.167 -26 -192.5 -78
s-72.5 -116.667 -72.5 -194c0 -80.667 24.667 -147 74 -199s111 -78 185 -78c76.667 0 143.334 29.333 200.001 88v102h-114v86h205v-355h-87v44l1 30h-2c-24.667 -26 -56.334 -46.833 -95.001 -62.5s-79.334 -23.5 -122.001 -23.5c-96.667 0 -178.667 34.5 -246 103.5
s-101 156.5 -101 262.5z" />
    <glyph glyph-name="gcircumflex" unicode="&#x11d;" horiz-adv-x="594" 
d="M150 580l88 127h100l89 -127h-85l-53 80h-2l-52 -80h-85zM123 -92c45.333 -22.667 91.667 -33.999 139 -33.999s85.833 11.5 115.5 34.5s44.5 58.5 44.5 106.5v41l3 32h-2c-32.667 -54.667 -83.334 -82 -152.001 -82s-123.5 24.333 -164.5 73
s-61.5 110.334 -61.5 185.001s19.667 135.667 59 183s93.333 71 162 71c34 0 65.333 -6.33301 94 -19s50.667 -32 66 -58h3c-2 4 -3 9 -3 15v50h93v-485c0 -40 -7.16699 -75.333 -21.5 -106s-33.833 -54.834 -58.5 -72.501s-51.667 -30.834 -81 -39.501
s-60.666 -13 -93.999 -13c-59.333 0 -117 14 -173 42zM143.001 267.001c0 -53.333 13.167 -96.166 39.5 -128.499s62.166 -48.5 107.499 -48.5c39.333 0 71.5 13.667 96.5 41s37.5 71.666 37.5 132.999c0 113.333 -47.667 170 -143 170
c-43.333 0 -77.166 -14.833 -101.499 -44.5s-36.5 -70.5 -36.5 -122.5z" />
    <glyph glyph-name="Gbreve" unicode="&#x11e;" horiz-adv-x="762" 
d="M50 354c0 102.667 34.333 189 103 259s154.334 105 257.001 105c103.333 0 189 -28.667 257 -86l-50 -73c-24 20 -54.5 36.5 -91.5 49.5s-73.167 19.5 -108.5 19.5c-80 0 -144.167 -26 -192.5 -78s-72.5 -116.667 -72.5 -194c0 -80.667 24.667 -147 74 -199
s111 -78 185 -78c76.667 0 143.334 29.333 200.001 88v102h-114v86h205v-355h-87v44l1 30h-2c-24.667 -26 -56.334 -46.833 -95.001 -62.5s-79.334 -23.5 -122.001 -23.5c-96.667 0 -178.667 34.5 -246 103.5s-101 156.5 -101 262.5zM400 751
c-36.667 0 -67.834 10.333 -93.501 31s-38.5 49.334 -38.5 86.001v14h72v-13c0 -20 5.83301 -35 17.5 -45s25.834 -15 42.501 -15c16 0 29.833 5.16699 41.5 15.5s17.5 25.5 17.5 45.5v12h72v-14c0 -36.667 -12.833 -65.334 -38.5 -86.001s-56.5 -31 -92.5 -31z" />
    <glyph glyph-name="gbreve" unicode="&#x11f;" horiz-adv-x="594" 
d="M123 -92c45.333 -22.667 91.667 -33.999 139 -33.999s85.833 11.5 115.5 34.5s44.5 58.5 44.5 106.5v41l3 32h-2c-32.667 -54.667 -83.334 -82 -152.001 -82s-123.5 24.333 -164.5 73s-61.5 110.334 -61.5 185.001s19.667 135.667 59 183s93.333 71 162 71
c34 0 65.333 -6.33301 94 -19s50.667 -32 66 -58h3c-2 4 -3 9 -3 15v50h93v-485c0 -40 -7.16699 -75.333 -21.5 -106s-33.833 -54.834 -58.5 -72.501s-51.667 -30.834 -81 -39.501s-60.666 -13 -93.999 -13c-59.333 0 -117 14 -173 42zM143.001 267.001
c0 -53.333 13.167 -96.166 39.5 -128.499s62.166 -48.5 107.499 -48.5c39.333 0 71.5 13.667 96.5 41s37.5 71.666 37.5 132.999c0 113.333 -47.667 170 -143 170c-43.333 0 -77.166 -14.833 -101.499 -44.5s-36.5 -70.5 -36.5 -122.5zM289.001 576.001
c-36.667 0 -67.834 10.333 -93.501 31s-38.5 49.334 -38.5 86.001v14h72v-13c0 -20 5.83301 -35 17.5 -45s25.834 -15 42.501 -15c16 0 29.833 5.16699 41.5 15.5s17.5 25.5 17.5 45.5v12h72v-14c0 -36.667 -12.833 -65.334 -38.5 -86.001s-56.5 -31 -92.5 -31z" />
    <glyph glyph-name="Gdotaccent" unicode="&#x120;" horiz-adv-x="762" 
d="M50 354c0 102.667 34.333 189 103 259s154.334 105 257.001 105c103.333 0 189 -28.667 257 -86l-50 -73c-24 20 -54.5 36.5 -91.5 49.5s-73.167 19.5 -108.5 19.5c-80 0 -144.167 -26 -192.5 -78s-72.5 -116.667 -72.5 -194c0 -80.667 24.667 -147 74 -199
s111 -78 185 -78c76.667 0 143.334 29.333 200.001 88v102h-114v86h205v-355h-87v44l1 30h-2c-24.667 -26 -56.334 -46.833 -95.001 -62.5s-79.334 -23.5 -122.001 -23.5c-96.667 0 -178.667 34.5 -246 103.5s-101 156.5 -101 262.5zM357 784v98h86v-98h-86z" />
    <glyph glyph-name="gdotaccent" unicode="&#x121;" horiz-adv-x="594" 
d="M123 -92c45.333 -22.667 91.667 -33.999 139 -33.999s85.833 11.5 115.5 34.5s44.5 58.5 44.5 106.5v41l3 32h-2c-32.667 -54.667 -83.334 -82 -152.001 -82s-123.5 24.333 -164.5 73s-61.5 110.334 -61.5 185.001s19.667 135.667 59 183s93.333 71 162 71
c34 0 65.333 -6.33301 94 -19s50.667 -32 66 -58h3c-2 4 -3 9 -3 15v50h93v-485c0 -40 -7.16699 -75.333 -21.5 -106s-33.833 -54.834 -58.5 -72.501s-51.667 -30.834 -81 -39.501s-60.666 -13 -93.999 -13c-59.333 0 -117 14 -173 42zM143.001 267.001
c0 -53.333 13.167 -96.166 39.5 -128.499s62.166 -48.5 107.499 -48.5c39.333 0 71.5 13.667 96.5 41s37.5 71.666 37.5 132.999c0 113.333 -47.667 170 -143 170c-43.333 0 -77.166 -14.833 -101.499 -44.5s-36.5 -70.5 -36.5 -122.5zM246.001 609.001v98h86v-98h-86z" />
    <glyph glyph-name="Gcommaaccent" unicode="&#x122;" horiz-adv-x="762" 
d="M351 -59l85 -0.000976562c4.66699 -18 7 -35 7 -51c0 -27.333 -8.33301 -58.666 -25 -93.999h-74c12.667 36 19 64 19 84s-4 40.333 -12 61zM50 353.999c0 102.667 34.333 189 103 259s154.334 105 257.001 105c103.333 0 189 -28.667 257 -86l-50 -73
c-24 20 -54.5 36.5 -91.5 49.5s-73.167 19.5 -108.5 19.5c-80 0 -144.167 -26 -192.5 -78s-72.5 -116.667 -72.5 -194c0 -80.667 24.667 -147 74 -199s111 -78 185 -78c76.667 0 143.334 29.333 200.001 88v102h-114v86h205v-355h-87v44l1 30h-2
c-24.667 -26 -56.334 -46.833 -95.001 -62.5s-79.334 -23.5 -122.001 -23.5c-96.667 0 -178.667 34.5 -246 103.5s-101 156.5 -101 262.5z" />
    <glyph glyph-name="gcommaaccent" unicode="&#x123;" horiz-adv-x="594" 
d="M333 563h-84c-4.66699 18 -7 34.667 -7 50c0 26.667 8.33301 57.667 25 93h73c-12.667 -36 -19 -63.667 -19 -83s4 -39.333 12 -60zM123 -92c45.333 -22.667 91.667 -33.999 139 -33.999s85.833 11.5 115.5 34.5s44.5 58.5 44.5 106.5v41l3 32h-2
c-32.667 -54.667 -83.334 -82 -152.001 -82s-123.5 24.333 -164.5 73s-61.5 110.334 -61.5 185.001s19.667 135.667 59 183s93.333 71 162 71c34 0 65.333 -6.33301 94 -19s50.667 -32 66 -58h3c-2 4 -3 9 -3 15v50h93v-485c0 -40 -7.16699 -75.333 -21.5 -106
s-33.833 -54.834 -58.5 -72.501s-51.667 -30.834 -81 -39.501s-60.666 -13 -93.999 -13c-59.333 0 -117 14 -173 42zM143.001 267.001c0 -53.333 13.167 -96.166 39.5 -128.499s62.166 -48.5 107.499 -48.5c39.333 0 71.5 13.667 96.5 41s37.5 71.666 37.5 132.999
c0 113.333 -47.667 170 -143 170c-43.333 0 -77.166 -14.833 -101.499 -44.5s-36.5 -70.5 -36.5 -122.5z" />
    <glyph glyph-name="Hcircumflex" unicode="&#x124;" horiz-adv-x="750" 
d="M236 755l88 127h100l89 -127h-85l-53 80h-2l-52 -80h-85zM93 0v706h99v-310h367v310h98v-706h-98v310h-367v-310h-99z" />
    <glyph glyph-name="hcircumflex" unicode="&#x125;" horiz-adv-x="603" 
d="M-13 755l88 127h100l89 -127h-85l-53 80h-2l-52 -80h-85zM75 0v706.001h97v-262l-4 -42h2c14 29.333 37.667 56 71 80s73 36 119 36c115.333 0 173 -64.667 173 -194v-324h-97v302c0 40.667 -6.5 72 -19.5 94s-38.167 33 -75.5 33c-48.667 0 -89 -17.833 -121 -53.5
s-48 -80.834 -48 -135.501v-240h-97z" />
    <glyph glyph-name="Hbar" unicode="&#x126;" horiz-adv-x="759" 
d="M100 0v514h-66v67h66v125h100v-125h359v125h100v-125h65v-67h-65v-514h-100v310h-359v-310h-100zM200 396h359v118h-359v-118z" />
    <glyph glyph-name="hbar" unicode="&#x127;" horiz-adv-x="603" 
d="M75 0v562.999h-72v63h72v80h97v-80h133v-63h-133v-116l-2 -42h2c13.333 28.667 36.5 54.667 69.5 78s72.5 35 118.5 35c115.333 0 173 -64.667 173 -194v-324h-97v302c0 40.667 -6.5 72 -19.5 94s-38.167 33 -75.5 33c-50 0 -90.667 -18.167 -122 -54.5
s-47 -80.166 -47 -131.499v-243h-97z" />
    <glyph glyph-name="Itilde" unicode="&#x128;" horiz-adv-x="286" 
d="M93 0v706h99v-706h-99zM-24 756c0 84.667 34.002 126.999 102.002 126.999c19.333 0 36.333 -5.66699 51 -17s28 -22.666 40 -33.999s23.667 -17 35 -17c13.333 0 23.166 6.5 29.499 19.5s9.5 28.167 9.5 45.5h70c0 -84.667 -34 -127 -102 -127
c-24 0 -47.833 11.333 -71.5 34s-41.834 34 -54.501 34c-26 0 -39 -21.667 -39 -65h-70z" />
    <glyph glyph-name="itilde" unicode="&#x129;" horiz-adv-x="246" 
d="M75 0v506h97v-506h-97zM-43 581c0 84.667 34 127.001 102 127.001c24 0 47.833 -11.333 71.5 -34s41.834 -34 54.501 -34c13.333 0 23.166 6.5 29.499 19.5s9.5 28.167 9.5 45.5h70c0 -84.667 -34 -127 -102 -127c-19.333 0 -36.333 5.66699 -51 17
s-28 22.666 -40 33.999s-23.667 17 -35 17c-26 0 -39 -21.667 -39 -65h-70z" />
    <glyph glyph-name="Imacron" unicode="&#x12a;" horiz-adv-x="286" 
d="M93 0v706h99v-706h-99zM18 784v71h254v-71h-254z" />
    <glyph glyph-name="imacron" unicode="&#x12b;" horiz-adv-x="246" 
d="M75 0v506h97v-506h-97zM-2 609v71h254v-71h-254z" />
    <glyph glyph-name="Ibreve" unicode="&#x12c;" horiz-adv-x="286" 
d="M93 0v706h99v-706h-99zM145 751c-36.667 0 -67.834 10.333 -93.501 31s-38.5 49.334 -38.5 86.001v14h72v-13c0 -20 5.83301 -35 17.5 -45s25.834 -15 42.501 -15c16 0 29.833 5.16699 41.5 15.5s17.5 25.5 17.5 45.5v12h72v-14c0 -36.667 -12.833 -65.334 -38.5 -86.001
s-56.5 -31 -92.5 -31z" />
    <glyph glyph-name="ibreve" unicode="&#x12d;" horiz-adv-x="246" 
d="M75 0v506h97v-506h-97zM125 576c-36.667 0 -67.834 10.333 -93.501 31s-38.5 49.334 -38.5 86.001v14h72v-13c0 -20 5.83301 -35 17.5 -45s25.834 -15 42.501 -15c16 0 29.833 5.16699 41.5 15.5s17.5 25.5 17.5 45.5v12h72v-14c0 -36.667 -12.833 -65.334 -38.5 -86.001
s-56.5 -31 -92.5 -31z" />
    <glyph glyph-name="Iogonek" unicode="&#x12e;" horiz-adv-x="286" 
d="M93 0l-0.000976562 706.001h99v-706c-42.667 -34 -64 -63.667 -64 -89c0 -11.333 4.66699 -20.5 14 -27.5s18.666 -11.5 27.999 -13.5l13 -2l-23 -75c-3.33301 0 -7.5 0.5 -12.5 1.5s-14.167 3.5 -27.5 7.5s-25.166 9.16699 -35.499 15.5s-19.666 15.666 -27.999 27.999
s-12.5 26.5 -12.5 42.5c0 38.667 22.667 76 68 112h-19z" />
    <glyph glyph-name="iogonek" unicode="&#x12f;" horiz-adv-x="247" 
d="M75 0l-0.00292969 506.001h97v-506c-42.667 -34 -64 -63.667 -64 -89c0 -11.333 4.66699 -20.5 14 -27.5s18.666 -11.5 27.999 -13.5l13 -2l-22 -75c-3.33301 0 -7.66602 0.5 -12.999 1.5s-14.666 3.5 -27.999 7.5s-25.166 9.16699 -35.499 15.5
s-19.666 15.666 -27.999 27.999s-12.5 26.5 -12.5 42.5c0 38 23 75.333 69 112h-18zM72.9971 608.001v98h100v-98h-100z" />
    <glyph glyph-name="Idotaccent" unicode="&#x130;" horiz-adv-x="286" 
d="M93 0v706h99v-706h-99zM102 784v98h86v-98h-86z" />
    <glyph glyph-name="dotlessi" unicode="&#x131;" horiz-adv-x="246" 
d="M75 0v506h97v-506h-97z" />
    <glyph glyph-name="IJ" unicode="&#x132;" horiz-adv-x="608" 
d="M284 -4l-0.000976562 90.002c16.667 0 32.167 2 46.5 6s28.833 11.167 43.5 21.5s26.334 26.166 35.001 47.499s13 47.666 13 78.999v466h100v-467c0 -162 -79.333 -243 -238 -243zM92.999 0.00195312v706h99v-706h-99z" />
    <glyph glyph-name="ij" unicode="&#x133;" horiz-adv-x="493" 
d="M73 608v98h100v-98h-100zM75 0v506h97v-506h-97zM319 608v98h100v-98h-100zM321 -11l0.00195312 517h97v-523c0 -32 -4.83301 -60 -14.5 -84s-21.334 -42.5 -35.001 -55.5s-30 -23.5 -49 -31.5s-35.833 -13 -50.5 -15s-29.667 -3 -45 -3c-6.66699 0 -18 0.666992 -34 2
v83c6.66699 -1.33301 14 -2 22 -2c12 0 23.333 1.33301 34 4s22.167 7.5 34.5 14.5s22.166 18.5 29.499 34.5s11 35.667 11 59z" />
    <glyph glyph-name="Jcircumflex" unicode="&#x134;" horiz-adv-x="533" 
d="M167 755l88 127h100l89 -127h-85l-53 80h-2l-52 -80h-85zM28 203l0.000976562 34.999h98v-30c0 -37.333 9.16699 -68.166 27.5 -92.499s46.166 -36.5 83.499 -36.5c32 0 58.5 10.167 79.5 30.5s31.5 51.833 31.5 94.5v416h-178v86h276v-503
c0 -71.333 -20.5 -125 -61.5 -161s-90.167 -54 -147.5 -54s-106.5 18.167 -147.5 54.5s-61.5 89.833 -61.5 160.5z" />
    <glyph glyph-name="jcircumflex" unicode="&#x135;" horiz-adv-x="246" 
d="M-14 579l88 127h94l88 -127h-81l-53 81h-2l-52 -81h-82zM75 -11l0.00292969 517h97v-523c0 -32 -4.83301 -60 -14.5 -84s-21.334 -42.5 -35.001 -55.5s-30 -23.5 -49 -31.5s-35.833 -13 -50.5 -15s-29.667 -3 -45 -3c-14.667 0 -26 0.666992 -34 2v83
c9.33301 -1.33301 16.666 -2 21.999 -2c12 0 23.333 1.33301 34 4s22.167 7.5 34.5 14.5s22.166 18.5 29.499 34.5s11 35.667 11 59z" />
    <glyph glyph-name="Kcommaaccent" unicode="&#x136;" horiz-adv-x="614" 
d="M272 -59l85 -0.000976562c4.66699 -18 7 -35 7 -51c0 -27.333 -8.33301 -58.666 -25 -93.999h-74c12.667 36 19 64 19 84s-4 40.333 -12 61zM93 -0.000976562v706h99v-297h105l179 297h109l-206 -335v-2l219 -369h-113l-188 323h-105v-323h-99z" />
    <glyph glyph-name="kcommaaccent" unicode="&#x137;" horiz-adv-x="522" 
d="M227 -59l85 -0.000976562c4.66699 -18 7 -35 7 -51c0 -27.333 -8.33301 -58.666 -25 -93.999h-74c12.667 36 19 64 19 84s-4 40.333 -12 61zM75 -0.000976562v706h97v-386h72l137 186h110l-168 -223v-2l187 -281h-113l-151 237h-74v-237h-97z" />
    <glyph glyph-name="kgreenlandic" unicode="&#x138;" horiz-adv-x="520" 
d="M75 0v506h97v-199h70l145 199h112l-176 -235v-2l179 -269h-116l-142 225h-72v-225h-97z" />
    <glyph glyph-name="Lacute" unicode="&#x139;" horiz-adv-x="526" 
d="M101 755l72 127h105l-96 -127h-81zM93 0v706h99v-620h317v-86h-416z" />
    <glyph glyph-name="lacute" unicode="&#x13a;" horiz-adv-x="267" 
d="M82 755l72 127h105l-96 -127h-81zM75 139v566.999h96v-551c0 -27.333 4.83301 -46.166 14.5 -56.499s23.167 -15.5 40.5 -15.5c7.33301 0 13 0.333008 17 1v-86c-14 -2 -24.667 -3 -32 -3c-90.667 0 -136 48 -136 144z" />
    <glyph glyph-name="Lcommaaccent" unicode="&#x13b;" horiz-adv-x="526" 
d="M262 -59l85 -0.000976562c4.66699 -18 7 -35 7 -51c0 -27.333 -8.33301 -58.666 -25 -93.999h-74c12.667 36 19 64 19 84s-4 40.333 -12 61zM93 -0.000976562v706h99v-620h317v-86h-416z" />
    <glyph glyph-name="lcommaaccent" unicode="&#x13c;" horiz-adv-x="267" 
d="M115 -59l85 -0.000976562c4.66699 -18 7 -35 7 -51c0 -27.333 -8.33301 -58.666 -25 -93.999h-74c12.667 36 19 64 19 84s-4 40.333 -12 61zM75 138.999v566.999h96v-551c0 -27.333 4.83301 -46.166 14.5 -56.499s23.167 -15.5 40.5 -15.5c7.33301 0 13 0.333008 17 1
v-86c-14 -2 -24.667 -3 -32 -3c-90.667 0 -136 48 -136 144z" />
    <glyph glyph-name="Lcaron" unicode="&#x13d;" horiz-adv-x="527" 
d="M276 705l85 -0.000976562c4.66699 -18 7 -35 7 -51c0 -27.333 -8.33301 -58.666 -25 -93.999h-74c12.667 36 19 64 19 84s-4 40.333 -12 61zM93 -0.000976562v706h99v-620h317v-86h-416z" />
    <glyph glyph-name="lcaron" unicode="&#x13e;" horiz-adv-x="275" 
d="M229 705l85 -0.000976562c4.66699 -18 7 -35 7 -51c0 -27.333 -8.33301 -58.666 -25 -93.999h-74c12.667 36 19 64 19 84s-4 40.333 -12 61zM75 138.999v566.999h96v-551c0 -27.333 4.83301 -46.166 14.5 -56.499s23.167 -15.5 40.5 -15.5c7.33301 0 13 0.333008 17 1
v-86c-14 -2 -24.667 -3 -32 -3c-90.667 0 -136 48 -136 144z" />
    <glyph glyph-name="Ldot" unicode="&#x13f;" horiz-adv-x="527" 
d="M93 0v706h99v-620h317v-86h-416zM308 326v105h101v-105h-101z" />
    <glyph glyph-name="ldot" unicode="&#x140;" horiz-adv-x="343" 
d="M75 139v566.999h96v-551c0 -27.333 4.83301 -46.166 14.5 -56.499s23.167 -15.5 40.5 -15.5c7.33301 0 13 0.333008 17 1v-86c-14 -2 -24.667 -3 -32 -3c-90.667 0 -136 48 -136 144zM243 325.999v105h101v-105h-101z" />
    <glyph glyph-name="Lslash" unicode="&#x141;" horiz-adv-x="531" 
d="M99 0v301l-60 -34v97l60 34v308h98v-252l109 63v-97l-109 -63v-271h316v-86h-414z" />
    <glyph glyph-name="lslash" unicode="&#x142;" horiz-adv-x="286" 
d="M16 275v97l73 42v292h97v-236l82 47v-97l-82 -48v-217c0 -48 18 -72 54 -72l18 1v-86c-10 -2 -21 -3 -33 -3c-90.667 0 -136 48 -136 144v178z" />
    <glyph glyph-name="Nacute" unicode="&#x143;" horiz-adv-x="752" 
d="M332 755l72 127h105l-96 -127h-81zM93 0v706h98l315 -458l58 -103h2c-4 42 -6 76.333 -6 103v458h98v-706h-97l-315 458l-58 103h-2c4 -42 6 -76.333 6 -103v-458h-99z" />
    <glyph glyph-name="nacute" unicode="&#x144;" horiz-adv-x="603" 
d="M268 580l72 127h105l-96 -127h-81zM75 0v506.001h94v-69l-3 -38h2c12.667 28.667 35.5 55.667 68.5 81s74.167 38 123.5 38c115.333 0 173 -64.667 173 -194v-324h-97v302c0 40.667 -6.5 72 -19.5 94s-38.167 33 -75.5 33c-48.667 0 -89 -17.833 -121 -53.5
s-48 -79.834 -48 -132.501v-243h-97z" />
    <glyph glyph-name="Ncommaaccent" unicode="&#x145;" horiz-adv-x="752" 
d="M330 -59l85 -0.000976562c4.66699 -18 7 -35 7 -51c0 -27.333 -8.33301 -58.666 -25 -93.999h-74c12.667 36 19 64 19 84s-4 40.333 -12 61zM93 -0.000976562v706h98l315 -458l58 -103h2c-4 42 -6 76.333 -6 103v458h98v-706h-97l-315 458l-58 103h-2
c4 -42 6 -76.333 6 -103v-458h-99z" />
    <glyph glyph-name="ncommaaccent" unicode="&#x146;" horiz-adv-x="603" 
d="M257 -59l85 -0.000976562c4.66699 -18 7 -35 7 -51c0 -27.333 -8.33301 -58.666 -25 -93.999h-74c12.667 36 19 64 19 84s-4 40.333 -12 61zM75 -0.000976562v506.001h94v-69l-3 -38h2c12.667 28.667 35.5 55.667 68.5 81s74.167 38 123.5 38
c115.333 0 173 -64.667 173 -194v-324h-97v302c0 40.667 -6.5 72 -19.5 94s-38.167 33 -75.5 33c-48.667 0 -89 -17.833 -121 -53.5s-48 -79.834 -48 -132.501v-243h-97z" />
    <glyph glyph-name="Ncaron" unicode="&#x147;" horiz-adv-x="752" 
d="M325 755l-88 127h85l52 -81h2l53 81h85l-89 -127h-100zM93 0v706h98l315 -458l58 -103h2c-4 42 -6 76.333 -6 103v458h98v-706h-97l-315 458l-58 103h-2c4 -42 6 -76.333 6 -103v-458h-99z" />
    <glyph glyph-name="ncaron" unicode="&#x148;" horiz-adv-x="603" 
d="M261 580l-88 127h85l52 -81h2l53 81h85l-89 -127h-100zM75 0v506.001h94v-69l-3 -38h2c12.667 28.667 35.5 55.667 68.5 81s74.167 38 123.5 38c115.333 0 173 -64.667 173 -194v-324h-97v302c0 40.667 -6.5 72 -19.5 94s-38.167 33 -75.5 33
c-48.667 0 -89 -17.833 -121 -53.5s-48 -79.834 -48 -132.501v-243h-97z" />
    <glyph glyph-name="napostrophe" unicode="&#x149;" horiz-adv-x="603" 
d="M3 705l85 -0.000976562c4.66699 -18 7 -35 7 -51c0 -27.333 -8.33301 -58.666 -25 -93.999h-74c12.667 36 19 64 19 84s-4 40.333 -12 61zM75 -0.000976562v506.001h94v-69l-3 -38h2c12.667 28.667 35.5 55.667 68.5 81s74.167 38 123.5 38
c115.333 0 173 -64.667 173 -194v-324h-97v302c0 40.667 -6.5 72 -19.5 94s-38.167 33 -75.5 33c-48.667 0 -89 -17.833 -121 -53.5s-48 -79.834 -48 -132.501v-243h-97z" />
    <glyph glyph-name="Eng" unicode="&#x14a;" horiz-adv-x="751" 
d="M93 0l-0.000976562 706.001h98l315 -458l58 -103h2c-4 42 -6 76.333 -6 103v458h98v-679c0 -43.333 -6.83301 -80.833 -20.5 -112.5s-32.167 -55.834 -55.5 -72.501s-47.833 -28.667 -73.5 -36s-53.167 -11 -82.5 -11v91c31.333 0 60.333 10 87 30
s41.334 50.333 44.001 91l-311 451l-58 103h-2c4 -42 6 -76.333 6 -103v-458h-99z" />
    <glyph glyph-name="eng" unicode="&#x14b;" horiz-adv-x="603" 
d="M75 0l0.00390625 505.998h94v-75l-2 -29h2c13.333 28.667 36.166 55.167 68.499 79.5s73.166 36.5 122.499 36.5c115.333 0 173 -64.667 173 -194v-344c0 -32 -4.83301 -60 -14.5 -84s-21.334 -42.5 -35.001 -55.5s-30 -23.5 -49 -31.5s-35.833 -13 -50.5 -15
s-29.667 -3 -45 -3l-34 2v83c6 -0.666992 13.333 -1 22 -1c12 0 23.333 1.33301 34 4s22.167 7.33398 34.5 14.001s22.166 18 29.499 34s11 35.667 11 59v316c0 40.667 -6.5 72 -19.5 94s-38.167 33 -75.5 33c-50 0 -90.667 -18.167 -122 -54.5s-47 -80.166 -47 -131.499
v-243h-97z" />
    <glyph glyph-name="Omacron" unicode="&#x14c;" horiz-adv-x="823" 
d="M285 784v71h254v-71h-254zM49 358c0 102 34.332 187.5 102.999 256.5s155.334 103.5 260.001 103.5c104 0 190.333 -34.5 259 -103.5s103 -154.5 103 -256.5c0 -104.667 -34.333 -192.5 -103 -263.5s-155 -106.5 -259 -106.5s-190.5 35.5 -259.5 106.5
s-103.5 158.833 -103.5 263.5zM150.999 358c0 -79.333 24.667 -145.666 74 -198.999s111.666 -80 186.999 -80c74.667 0 136.667 26.667 186 80s74 119.666 74 198.999c0 76.667 -24.667 140.834 -74 192.501s-111.333 77.5 -186 77.5
c-75.333 0 -137.666 -25.833 -186.999 -77.5s-74 -115.834 -74 -192.501z" />
    <glyph glyph-name="omacron" unicode="&#x14d;" horiz-adv-x="629" 
d="M188 609v71h254v-71h-254zM42 254c0 75.333 26.332 138.167 78.999 188.5s117 75.5 193 75.5c76.667 0 141.334 -25 194.001 -75s79 -113 79 -189s-26.333 -139.333 -79 -190s-117 -76 -193 -76s-140.5 25.333 -193.5 76s-79.5 114 -79.5 190zM140.999 254.001
c0 -52.667 16.833 -96.167 50.5 -130.5s74.834 -51.5 123.501 -51.5c48 0 89 17.333 123 52s51 78 51 130s-17 95 -51 129s-75 51 -123 51c-48.667 0 -89.834 -17 -123.501 -51s-50.5 -77 -50.5 -129z" />
    <glyph glyph-name="Obreve" unicode="&#x14e;" horiz-adv-x="823" 
d="M49 358c0 102 34.332 187.5 102.999 256.5s155.334 103.5 260.001 103.5c104 0 190.333 -34.5 259 -103.5s103 -154.5 103 -256.5c0 -104.667 -34.333 -192.5 -103 -263.5s-155 -106.5 -259 -106.5s-190.5 35.5 -259.5 106.5s-103.5 158.833 -103.5 263.5zM150.999 358
c0 -79.333 24.667 -145.666 74 -198.999s111.666 -80 186.999 -80c74.667 0 136.667 26.667 186 80s74 119.666 74 198.999c0 76.667 -24.667 140.834 -74 192.501s-111.333 77.5 -186 77.5c-75.333 0 -137.666 -25.833 -186.999 -77.5s-74 -115.834 -74 -192.501z
M410.999 751c-36.667 0 -67.834 10.333 -93.501 31s-38.5 49.334 -38.5 86.001v14h72v-13c0 -20 5.83301 -35 17.5 -45s25.834 -15 42.501 -15c16 0 29.833 5.16699 41.5 15.5s17.5 25.5 17.5 45.5v12h72v-14c0 -36.667 -12.833 -65.334 -38.5 -86.001s-56.5 -31 -92.5 -31z
" />
    <glyph glyph-name="obreve" unicode="&#x14f;" horiz-adv-x="629" 
d="M42 254c0 75.333 26.332 138.167 78.999 188.5s117 75.5 193 75.5c76.667 0 141.334 -25 194.001 -75s79 -113 79 -189s-26.333 -139.333 -79 -190s-117 -76 -193 -76s-140.5 25.333 -193.5 76s-79.5 114 -79.5 190zM140.999 254.001
c0 -52.667 16.833 -96.167 50.5 -130.5s74.834 -51.5 123.501 -51.5c48 0 89 17.333 123 52s51 78 51 130s-17 95 -51 129s-75 51 -123 51c-48.667 0 -89.834 -17 -123.501 -51s-50.5 -77 -50.5 -129zM313.999 576.001c-36.667 0 -67.834 10.333 -93.501 31
s-38.5 49.334 -38.5 86.001v14h72v-13c0 -20 5.83301 -35 17.5 -45s25.834 -15 42.501 -15c16 0 29.833 5.16699 41.5 15.5s17.5 25.5 17.5 45.5v12h72v-14c0 -36.667 -12.833 -65.334 -38.5 -86.001s-56.5 -31 -92.5 -31z" />
    <glyph glyph-name="Ohungarumlaut" unicode="&#x150;" horiz-adv-x="823" 
d="M433 755l73 127h101l-96 -127h-78zM279 755l68 127h88l-71 -127h-85zM49 358c0 102 34.332 187.5 102.999 256.5s155.334 103.5 260.001 103.5c104 0 190.333 -34.5 259 -103.5s103 -154.5 103 -256.5c0 -104.667 -34.333 -192.5 -103 -263.5s-155 -106.5 -259 -106.5
s-190.5 35.5 -259.5 106.5s-103.5 158.833 -103.5 263.5zM150.999 358c0 -79.333 24.667 -145.666 74 -198.999s111.666 -80 186.999 -80c74.667 0 136.667 26.667 186 80s74 119.666 74 198.999c0 76.667 -24.667 140.834 -74 192.501s-111.333 77.5 -186 77.5
c-75.333 0 -137.666 -25.833 -186.999 -77.5s-74 -115.834 -74 -192.501z" />
    <glyph glyph-name="ohungarumlaut" unicode="&#x151;" horiz-adv-x="629" 
d="M336 580l73 127h101l-96 -127h-78zM182 580l68 127h88l-71 -127h-85zM42 254c0 75.333 26.332 138.167 78.999 188.5s117 75.5 193 75.5c76.667 0 141.334 -25 194.001 -75s79 -113 79 -189s-26.333 -139.333 -79 -190s-117 -76 -193 -76s-140.5 25.333 -193.5 76
s-79.5 114 -79.5 190zM140.999 254.001c0 -52.667 16.833 -96.167 50.5 -130.5s74.834 -51.5 123.501 -51.5c48 0 89 17.333 123 52s51 78 51 130s-17 95 -51 129s-75 51 -123 51c-48.667 0 -89.834 -17 -123.501 -51s-50.5 -77 -50.5 -129z" />
    <glyph glyph-name="OE" unicode="&#x152;" horiz-adv-x="956" 
d="M50 354c0 102 34.832 187.666 104.499 256.999s156.5 104 260.5 104c16.667 0 38.667 -1.5 66 -4.5s46.333 -4.5 57 -4.5h358v-86h-312v-221h254v-86h-254v-227h329v-86h-375c-10 0 -28.667 -1.5 -56 -4.5s-49.666 -4.5 -66.999 -4.5
c-104 0 -190.833 34.833 -260.5 104.5s-104.5 155.834 -104.5 258.501zM151.999 353.999c0 -78.667 24.501 -144.499 73.501 -197.499s112.167 -79.5 189.5 -79.5c12 0 23.833 0.666992 35.5 2s20.5 2.66602 26.5 3.99902l9 2v536c-20.667 5.33301 -44.334 8 -71.001 8
c-76.667 0 -139.667 -26.333 -189 -79s-74 -118 -74 -196z" />
    <glyph glyph-name="oe" unicode="&#x153;" horiz-adv-x="1003" 
d="M42 252c0 78 26.168 141.834 78.501 191.501s116.166 74.5 191.499 74.5c98 0 171 -40 219 -120h2c42 80 111.333 120 208 120c69.333 0 123.166 -22.5 161.499 -67.5s57.5 -101.5 57.5 -169.5l-3 -41h-369c4 -52.667 22.5 -93.834 55.5 -123.501s72.5 -44.5 118.5 -44.5
c55.333 0 105.333 19.667 150 59l40 -71c-24 -22 -53.667 -39.5 -89 -52.5s-71 -19.5 -107 -19.5c-102 0 -175.667 41 -221 123h-2c-47.333 -82 -121 -123 -221 -123c-75.333 0 -139.166 24.5 -191.499 73.5s-78.5 112.5 -78.5 190.5zM591.001 310.001h270
c-1.33301 41.333 -13.333 73.5 -36 96.5s-51 34.5 -85 34.5c-38 0 -70.5 -11.667 -97.5 -35s-44.167 -55.333 -51.5 -96zM141.001 252.001c0 -53.333 16.832 -96.668 50.499 -130.001s74.5 -50 122.5 -50c48.667 0 89.834 16.833 123.501 50.5s50.5 77.834 50.5 132.501
c0 52.667 -17 95.667 -51 129s-75 50 -123 50s-88.833 -16.833 -122.5 -50.5s-50.5 -77.5 -50.5 -131.5z" />
    <glyph glyph-name="Racute" unicode="&#x154;" horiz-adv-x="628" 
d="M262 755l72 127h105l-96 -127h-81zM93 0v706.002h224c59.333 0 103 -6.33301 131 -19c34.667 -15.333 62 -39 82 -71s30 -70 30 -114c0 -45.333 -11.5 -85.833 -34.5 -121.5s-53.5 -59.834 -91.5 -72.501v-2c5.33301 -6.66699 12 -17.334 20 -32.001l150 -274h-112
l-149 281h-151v-281h-99zM192 367.002h141.999c38.667 0 69.334 11.833 92.001 35.5s34 55.167 34 94.5c0 55.333 -22 92.333 -66 111c-18 8 -46.333 12 -85 12h-117v-253z" />
    <glyph glyph-name="racute" unicode="&#x155;" horiz-adv-x="376" 
d="M180 580l72 127h105l-96 -127h-81zM75 0l-0.00292969 506h94v-91l-3 -37h2c12.667 38.667 33.334 70.667 62.001 96s61.667 38 99 38c6.66699 0 15.334 -0.666992 26.001 -2v-96c-5.33301 1.33301 -14.666 2 -27.999 2c-50.667 0 -89.167 -20.5 -115.5 -61.5
s-39.5 -89.167 -39.5 -144.5v-210h-97z" />
    <glyph glyph-name="Rcommaaccent" unicode="&#x156;" horiz-adv-x="628" 
d="M280 -59l85 -0.000976562c4.66699 -18 7 -35 7 -51c0 -27.333 -8.33301 -58.666 -25 -93.999h-74c12.667 36 19 64 19 84s-4 40.333 -12 61zM93 -0.000976562v706.002h224c59.333 0 103 -6.33301 131 -19c34.667 -15.333 62 -39 82 -71s30 -70 30 -114
c0 -45.333 -11.5 -85.833 -34.5 -121.5s-53.5 -59.834 -91.5 -72.501v-2c5.33301 -6.66699 12 -17.334 20 -32.001l150 -274h-112l-149 281h-151v-281h-99zM192 367.001h141.999c38.667 0 69.334 11.833 92.001 35.5s34 55.167 34 94.5c0 55.333 -22 92.333 -66 111
c-18 8 -46.333 12 -85 12h-117v-253z" />
    <glyph glyph-name="rcommaaccent" unicode="&#x157;" horiz-adv-x="376" 
d="M81 -59l85 -0.000976562c4.66699 -18 7 -35 7 -51c0 -27.333 -8.33301 -58.666 -25 -93.999h-74c12.667 36 19 64 19 84s-4 40.333 -12 61zM75 -0.000976562l-0.00292969 506h94v-91l-3 -37h2c12.667 38.667 33.334 70.667 62.001 96s61.667 38 99 38
c6.66699 0 15.334 -0.666992 26.001 -2v-96c-5.33301 1.33301 -14.666 2 -27.999 2c-50.667 0 -89.167 -20.5 -115.5 -61.5s-39.5 -89.167 -39.5 -144.5v-210h-97z" />
    <glyph glyph-name="Rcaron" unicode="&#x158;" horiz-adv-x="628" 
d="M254 755l-88 127h85l52 -81h2l53 81h85l-89 -127h-100zM93 0v706.002h224c59.333 0 103 -6.33301 131 -19c34.667 -15.333 62 -39 82 -71s30 -70 30 -114c0 -45.333 -11.5 -85.833 -34.5 -121.5s-53.5 -59.834 -91.5 -72.501v-2c5.33301 -6.66699 12 -17.334 20 -32.001
l150 -274h-112l-149 281h-151v-281h-99zM192 367.002h141.999c38.667 0 69.334 11.833 92.001 35.5s34 55.167 34 94.5c0 55.333 -22 92.333 -66 111c-18 8 -46.333 12 -85 12h-117v-253z" />
    <glyph glyph-name="rcaron" unicode="&#x159;" horiz-adv-x="376" 
d="M174 580l-88 127h85l52 -81h2l53 81h85l-89 -127h-100zM75 0l-0.00292969 506h94v-91l-3 -37h2c12.667 38.667 33.334 70.667 62.001 96s61.667 38 99 38c6.66699 0 15.334 -0.666992 26.001 -2v-96c-5.33301 1.33301 -14.666 2 -27.999 2
c-50.667 0 -89.167 -20.5 -115.5 -61.5s-39.5 -89.167 -39.5 -144.5v-210h-97z" />
    <glyph glyph-name="Sacute" unicode="&#x15a;" horiz-adv-x="545" 
d="M230 755l72 127h105l-96 -127h-81zM41 81l55.9971 75c22.667 -22 50 -40.167 82 -54.5s64 -21.5 96 -21.5c37.333 0 67.333 9.16699 90 27.5s34 42.833 34 73.5c0 28.667 -11.667 53.167 -35 73.5s-51.833 37.5 -85.5 51.5s-67.167 29 -100.5 45
s-61.666 38.333 -84.999 67s-35 63.334 -35 104.001c0 58.667 21.833 106 65.5 142s98.834 54 165.501 54c80.667 0 146.334 -24 197.001 -72l-45 -81c-20 18.667 -44.167 33.667 -72.5 45s-56.166 17 -83.499 17c-36.667 0 -67 -9.16699 -91 -27.5s-36 -42.5 -36 -72.5
c0 -23.333 8.33301 -44 25 -62s37.667 -32.167 63 -42.5s52.666 -22.333 81.999 -36s56.666 -27.834 81.999 -42.501s46.333 -35.334 63 -62.001s25 -57.667 25 -93c0 -57.333 -20 -105.166 -60 -143.499s-95 -57.5 -165 -57.5c-91.333 0 -168.666 31 -231.999 93z" />
    <glyph glyph-name="sacute" unicode="&#x15b;" horiz-adv-x="447" 
d="M179 580l72 127h105l-96 -127h-81zM32 62l45.999 66.001c40.667 -39.333 90.334 -59 149.001 -59c26 0 46.833 5.83301 62.5 17.5s23.5 27.834 23.5 48.501c0 17.333 -9 32.333 -27 45s-39.667 23.667 -65 33s-50.666 19.666 -75.999 30.999s-47 27.833 -65 49.5
s-27 47.834 -27 78.501c0 46 17.333 81.833 52 107.5s78 38.5 130 38.5c68 0 122.667 -18.667 164 -56l-39 -70c-14.667 14 -33.834 25 -57.501 33s-47.167 12 -70.5 12c-26 0 -46.833 -5.33301 -62.5 -16s-23.5 -26.334 -23.5 -47.001c0 -18 9 -33.333 27 -46
s39.667 -23.5 65 -32.5s50.833 -19.167 76.5 -30.5s47.5 -27.833 65.5 -49.5s27 -47.834 27 -78.501c0 -43.333 -17 -79 -51 -107s-77.667 -42 -131 -42c-80 0 -144.333 24.667 -193 74z" />
    <glyph glyph-name="Scircumflex" unicode="&#x15c;" horiz-adv-x="545" 
d="M136 755l88 127h100l89 -127h-85l-53 80h-2l-52 -80h-85zM41 81l55.9971 75c22.667 -22 50 -40.167 82 -54.5s64 -21.5 96 -21.5c37.333 0 67.333 9.16699 90 27.5s34 42.833 34 73.5c0 28.667 -11.667 53.167 -35 73.5s-51.833 37.5 -85.5 51.5s-67.167 29 -100.5 45
s-61.666 38.333 -84.999 67s-35 63.334 -35 104.001c0 58.667 21.833 106 65.5 142s98.834 54 165.501 54c80.667 0 146.334 -24 197.001 -72l-45 -81c-20 18.667 -44.167 33.667 -72.5 45s-56.166 17 -83.499 17c-36.667 0 -67 -9.16699 -91 -27.5s-36 -42.5 -36 -72.5
c0 -23.333 8.33301 -44 25 -62s37.667 -32.167 63 -42.5s52.666 -22.333 81.999 -36s56.666 -27.834 81.999 -42.501s46.333 -35.334 63 -62.001s25 -57.667 25 -93c0 -57.333 -20 -105.166 -60 -143.499s-95 -57.5 -165 -57.5c-91.333 0 -168.666 31 -231.999 93z" />
    <glyph glyph-name="scircumflex" unicode="&#x15d;" horiz-adv-x="447" 
d="M87 580l88 127h100l89 -127h-85l-53 80h-2l-52 -80h-85zM32 62l45.999 66.001c40.667 -39.333 90.334 -59 149.001 -59c26 0 46.833 5.83301 62.5 17.5s23.5 27.834 23.5 48.501c0 17.333 -9 32.333 -27 45s-39.667 23.667 -65 33s-50.666 19.666 -75.999 30.999
s-47 27.833 -65 49.5s-27 47.834 -27 78.501c0 46 17.333 81.833 52 107.5s78 38.5 130 38.5c68 0 122.667 -18.667 164 -56l-39 -70c-14.667 14 -33.834 25 -57.501 33s-47.167 12 -70.5 12c-26 0 -46.833 -5.33301 -62.5 -16s-23.5 -26.334 -23.5 -47.001
c0 -18 9 -33.333 27 -46s39.667 -23.5 65 -32.5s50.833 -19.167 76.5 -30.5s47.5 -27.833 65.5 -49.5s27 -47.834 27 -78.501c0 -43.333 -17 -79 -51 -107s-77.667 -42 -131 -42c-80 0 -144.333 24.667 -193 74z" />
    <glyph glyph-name="Scedilla" unicode="&#x15e;" horiz-adv-x="546" 
d="M226 -88l20 77.001c-82 6.66699 -150.333 37.334 -205 92.001l56 75c22.667 -22 50 -40.167 82 -54.5s64 -21.5 96 -21.5c37.333 0 67.333 9.16699 90 27.5s34 42.833 34 73.5c0 28.667 -11.667 53.167 -35 73.5s-51.833 37.5 -85.5 51.5s-67.167 29 -100.5 45
s-61.666 38.333 -84.999 67s-35 63.334 -35 104.001c0 58.667 21.833 106 65.5 142s98.834 54 165.501 54c80.667 0 146.334 -24 197.001 -72l-45 -81c-20 18.667 -44.167 33.667 -72.5 45s-56.166 17 -83.499 17c-36.667 0 -67 -9.16699 -91 -27.5s-36 -42.5 -36 -72.5
c0 -23.333 8.33301 -44 25 -62s37.667 -32.167 63 -42.5s52.666 -22.333 81.999 -36s56.666 -27.834 81.999 -42.501s46.333 -35.334 63 -62.001s25 -57.667 25 -93c0 -53.333 -17.5 -98.666 -52.5 -135.999s-83.5 -58.666 -145.5 -63.999l-8 -39
c21.333 -2.66699 38.666 -10.334 51.999 -23.001s20 -29.334 20 -50.001c0 -28.667 -9.83301 -49.834 -29.5 -63.501s-43.834 -20.5 -72.501 -20.5c-18.667 0 -37 2 -55 6v59c12 -4.66699 26 -7 42 -7c32 0 48 10.333 48 31s-17.667 31 -53 31z" />
    <glyph glyph-name="scedilla" unicode="&#x15f;" horiz-adv-x="449" 
d="M174 -88l20.001 78.0039c-67.333 6.66699 -121 30.667 -161 72l46 66c40.667 -39.333 90.334 -59 149.001 -59c26 0 46.833 5.83301 62.5 17.5s23.5 27.834 23.5 48.501c0 17.333 -9 32.333 -27 45s-39.667 23.667 -65 33s-50.666 19.666 -75.999 30.999
s-47 27.833 -65 49.5s-27 47.834 -27 78.501c0 46 17.333 81.833 52 107.5s78 38.5 130 38.5c68 0 122.667 -18.667 164 -56l-39 -70c-14.667 14 -33.834 25 -57.501 33s-47.167 12 -70.5 12c-26 0 -46.833 -5.33301 -62.5 -16s-23.5 -26.334 -23.5 -47.001
c0 -18 9 -33.333 27 -46s39.833 -23.5 65.5 -32.5s51.167 -19.167 76.5 -30.5s47 -27.833 65 -49.5s27 -47.834 27 -78.501c0 -40 -14.667 -73.667 -44 -101s-68 -43 -116 -47l-8 -39c21.333 -2.66699 38.666 -10.334 51.999 -23.001s20 -29.334 20 -50.001
c0 -28.667 -9.83301 -49.834 -29.5 -63.501s-43.834 -20.5 -72.501 -20.5c-18.667 0 -37 2 -55 6v59c11.333 -4.66699 25.333 -7 42 -7c32 0 48 10.333 48 31s-17.667 31 -53 31z" />
    <glyph glyph-name="Scaron" unicode="&#x160;" horiz-adv-x="545" 
d="M224 755l-88 127h85l52 -81h2l53 81h85l-89 -127h-100zM41 81l55.9971 75c22.667 -22 50 -40.167 82 -54.5s64 -21.5 96 -21.5c37.333 0 67.333 9.16699 90 27.5s34 42.833 34 73.5c0 28.667 -11.667 53.167 -35 73.5s-51.833 37.5 -85.5 51.5s-67.167 29 -100.5 45
s-61.666 38.333 -84.999 67s-35 63.334 -35 104.001c0 58.667 21.833 106 65.5 142s98.834 54 165.501 54c80.667 0 146.334 -24 197.001 -72l-45 -81c-20 18.667 -44.167 33.667 -72.5 45s-56.166 17 -83.499 17c-36.667 0 -67 -9.16699 -91 -27.5s-36 -42.5 -36 -72.5
c0 -23.333 8.33301 -44 25 -62s37.667 -32.167 63 -42.5s52.666 -22.333 81.999 -36s56.666 -27.834 81.999 -42.501s46.333 -35.334 63 -62.001s25 -57.667 25 -93c0 -57.333 -20 -105.166 -60 -143.499s-95 -57.5 -165 -57.5c-91.333 0 -168.666 31 -231.999 93z" />
    <glyph glyph-name="scaron" unicode="&#x161;" horiz-adv-x="447" 
d="M175 580l-88 127h85l52 -81h2l53 81h85l-89 -127h-100zM32 62l45.999 66.001c40.667 -39.333 90.334 -59 149.001 -59c26 0 46.833 5.83301 62.5 17.5s23.5 27.834 23.5 48.501c0 17.333 -9 32.333 -27 45s-39.667 23.667 -65 33s-50.666 19.666 -75.999 30.999
s-47 27.833 -65 49.5s-27 47.834 -27 78.501c0 46 17.333 81.833 52 107.5s78 38.5 130 38.5c68 0 122.667 -18.667 164 -56l-39 -70c-14.667 14 -33.834 25 -57.501 33s-47.167 12 -70.5 12c-26 0 -46.833 -5.33301 -62.5 -16s-23.5 -26.334 -23.5 -47.001
c0 -18 9 -33.333 27 -46s39.667 -23.5 65 -32.5s50.833 -19.167 76.5 -30.5s47.5 -27.833 65.5 -49.5s27 -47.834 27 -78.501c0 -43.333 -17 -79 -51 -107s-77.667 -42 -131 -42c-80 0 -144.333 24.667 -193 74z" />
    <glyph glyph-name="Tcommaaccent" unicode="&#x162;" horiz-adv-x="615" 
d="M258 0l0.00195312 620.003h-243v86h584v-86h-243v-620h-24l-11 -50c21.333 -2.66699 38.666 -10.334 51.999 -23.001s20 -29.334 20 -50.001c0 -28.667 -9.83301 -49.834 -29.5 -63.501s-43.834 -20.5 -72.501 -20.5c-18.667 0 -37 2 -55 6v59c12 -4.66699 26 -7 42 -7
c32 0 48 10.333 48 31s-17.667 31 -53 31l-18 -1l23 88h-20z" />
    <glyph glyph-name="tcommaaccent" unicode="&#x163;" horiz-adv-x="349" 
d="M154 -88l28.0029 107.003c-57.333 29.333 -86 84.666 -86 165.999v237h-66v79h68v144h95v-144h122v-79h-122v-226c0 -19.333 2.66699 -36.166 8 -50.499s11.833 -25.5 19.5 -33.5s16.667 -14.333 27 -19s19.666 -7.66699 27.999 -9s16.833 -2 25.5 -2
s16.334 0.666992 23.001 2v-86c-16 -2 -27.333 -3 -34 -3c-22.667 0 -42.334 2 -59.001 6l-11 -51c21.333 -2.66699 38.666 -10.334 51.999 -23.001s20 -29.334 20 -50.001c0 -28.667 -9.83301 -49.834 -29.5 -63.501s-43.834 -20.5 -72.501 -20.5c-18.667 0 -37 2 -55 6v59
c11.333 -4.66699 25.333 -7 42 -7c32 0 48 10.333 48 31s-17.667 31 -53 31z" />
    <glyph glyph-name="Tcaron" unicode="&#x164;" horiz-adv-x="615" 
d="M256 755l-88 127h85l52 -81h2l53 81h85l-89 -127h-100zM258 0v620h-243v86h584v-86h-243v-620h-98z" />
    <glyph glyph-name="tcaron" unicode="&#x165;" horiz-adv-x="349" 
d="M252 706l85 0.000976562c4.66699 -18 7 -34.667 7 -50c0 -26.667 -8.33301 -57.334 -25 -92.001h-74c12.667 36 19 63.333 19 82c0 19.333 -4 39.333 -12 60zM96 185.001l0.00195312 236.999h-66v79h68v144h95v-144h122v-79h-122v-226
c0 -19.333 2.66699 -36.166 8 -50.499s11.833 -25.5 19.5 -33.5s16.667 -14.333 27 -19s19.666 -7.66699 27.999 -9s16.833 -2 25.5 -2s16.334 0.666992 23.001 2v-86c-16 -2 -27.333 -3 -34 -3c-15.333 0 -30.5 1.16699 -45.5 3.5s-31.833 7.33301 -50.5 15
s-34.834 18 -48.501 31s-25.334 31.667 -35.001 56s-14.5 52.5 -14.5 84.5z" />
    <glyph glyph-name="Tbar" unicode="&#x166;" horiz-adv-x="625" 
d="M263 0v310h-156v76h156v234h-243v86h584v-86h-243v-234h161v-76h-161v-310h-98z" />
    <glyph glyph-name="tbar" unicode="&#x167;" horiz-adv-x="353" 
d="M28 259v68.001h71v95h-66v79h68v144h94v-144h122v-79h-122v-95h117v-68h-117v-67c0 -22.667 3.66699 -41.834 11 -57.501s17.166 -27 29.499 -34s23.833 -11.833 34.5 -14.5s21.667 -4 33 -4l23 2v-86c-9.33301 -2 -20.666 -3 -33.999 -3
c-15.333 0 -30.333 1.16699 -45 3.5s-31.5 7.33301 -50.5 15s-35.333 18 -49 31s-25.167 31.667 -34.5 56s-14 52.5 -14 84.5v74h-71z" />
    <glyph glyph-name="Utilde" unicode="&#x168;" horiz-adv-x="726" 
d="M85 250v456h99v-455c0 -54 16.167 -96.167 48.5 -126.5s75.833 -45.5 130.5 -45.5s98 15.167 130 45.5s48 72.833 48 127.5v454h99v-456c0 -78.667 -25.333 -142 -76 -190s-117.334 -72 -200.001 -72c-83.333 0 -150.666 24 -201.999 72s-77 111.333 -77 190zM194 756
c0 84.667 34.001 127 102.001 127c19.333 0 36.333 -5.66699 51 -17s28 -22.666 40 -33.999s23.667 -17 35 -17c13.333 0 23.166 6.5 29.499 19.5s9.5 28.167 9.5 45.5h70c0 -84.667 -34 -127 -102 -127c-19.333 0 -36.333 5.66699 -51 17s-28 22.666 -40 33.999
s-23.667 17 -35 17c-26 0 -39 -21.667 -39 -65h-70z" />
    <glyph glyph-name="utilde" unicode="&#x169;" horiz-adv-x="597" 
d="M69 182l-0.00195312 324h97v-302c0 -40 6.66699 -71 20 -93s38.333 -33 75 -33c50 0 90 18.667 120 56s45 82.333 45 135v237h96v-506h-94v70l4 37h-2c-13.333 -30 -36.666 -57.333 -69.999 -82s-72.666 -37 -117.999 -37c-115.333 0 -173 64.667 -173 194zM126.998 581
c0 84.667 34.001 127 102.001 127c19.333 0 36.333 -5.66699 51 -17s28 -22.666 40 -33.999s23.667 -17 35 -17c13.333 0 23.166 6.5 29.499 19.5s9.5 28.167 9.5 45.5h70c0 -84.667 -34 -127 -102 -127c-19.333 0 -36.333 5.66699 -51 17s-28 22.666 -40 33.999
s-23.667 17 -35 17c-26 0 -39 -21.667 -39 -65h-70z" />
    <glyph glyph-name="Umacron" unicode="&#x16a;" horiz-adv-x="726" 
d="M85 250v456h99v-455c0 -54 16.167 -96.167 48.5 -126.5s75.833 -45.5 130.5 -45.5s98 15.167 130 45.5s48 72.833 48 127.5v454h99v-456c0 -78.667 -25.333 -142 -76 -190s-117.334 -72 -200.001 -72c-83.333 0 -150.666 24 -201.999 72s-77 111.333 -77 190zM236 784v71
h254v-71h-254z" />
    <glyph glyph-name="umacron" unicode="&#x16b;" horiz-adv-x="597" 
d="M69 182l-0.00195312 324h97v-302c0 -40 6.66699 -71 20 -93s38.333 -33 75 -33c50 0 90 18.667 120 56s45 82.333 45 135v237h96v-506h-94v70l4 37h-2c-13.333 -30 -36.666 -57.333 -69.999 -82s-72.666 -37 -117.999 -37c-115.333 0 -173 64.667 -173 194zM168.998 609
v71h254v-71h-254z" />
    <glyph glyph-name="Ubreve" unicode="&#x16c;" horiz-adv-x="726" 
d="M85 250v456h99v-455c0 -54 16.167 -96.167 48.5 -126.5s75.833 -45.5 130.5 -45.5s98 15.167 130 45.5s48 72.833 48 127.5v454h99v-456c0 -78.667 -25.333 -142 -76 -190s-117.334 -72 -200.001 -72c-83.333 0 -150.666 24 -201.999 72s-77 111.333 -77 190zM362 751
c-36.667 0 -67.834 10.333 -93.501 31s-38.5 49.334 -38.5 86.001v14h72v-13c0 -20 5.83301 -35 17.5 -45s25.834 -15 42.501 -15c16 0 29.833 5.16699 41.5 15.5s17.5 25.5 17.5 45.5v12h72v-14c0 -36.667 -12.833 -65.334 -38.5 -86.001s-56.5 -31 -92.5 -31z" />
    <glyph glyph-name="ubreve" unicode="&#x16d;" horiz-adv-x="597" 
d="M69 182l-0.00195312 324h97v-302c0 -40 6.66699 -71 20 -93s38.333 -33 75 -33c50 0 90 18.667 120 56s45 82.333 45 135v237h96v-506h-94v70l4 37h-2c-13.333 -30 -36.666 -57.333 -69.999 -82s-72.666 -37 -117.999 -37c-115.333 0 -173 64.667 -173 194zM295.998 576
c-36.667 0 -67.834 10.333 -93.501 31s-38.5 49.334 -38.5 86.001v14h72v-13c0 -20 5.83301 -35 17.5 -45s25.834 -15 42.501 -15c16 0 29.833 5.16699 41.5 15.5s17.5 25.5 17.5 45.5v12h72v-14c0 -36.667 -12.833 -65.334 -38.5 -86.001s-56.5 -31 -92.5 -31z" />
    <glyph glyph-name="Uring" unicode="&#x16e;" horiz-adv-x="726" 
d="M362 743c-23.333 0 -43.3311 6.83301 -59.998 20.5s-25 31.5 -25 53.5c0 22.667 8.33301 40.834 25 54.501s36.667 20.5 60 20.5s43.166 -6.83301 59.499 -20.5s24.5 -31.834 24.5 -54.501c0 -22 -8.33301 -39.833 -25 -53.5s-36.334 -20.5 -59.001 -20.5zM362.002 784
c9.33301 0 17.166 3.16699 23.499 9.5s9.5 14.166 9.5 23.499c0 10.667 -3.16699 19.167 -9.5 25.5s-14.166 9.5 -23.499 9.5c-10 0 -18 -3.16699 -24 -9.5s-9 -14.833 -9 -25.5c0 -9.33301 3 -17.166 9 -23.499s14 -9.5 24 -9.5zM85.002 250v456h99v-455
c0 -54 16.167 -96.167 48.5 -126.5s75.833 -45.5 130.5 -45.5s98 15.167 130 45.5s48 72.833 48 127.5v454h99v-456c0 -78.667 -25.333 -142 -76 -190s-117.334 -72 -200.001 -72c-83.333 0 -150.666 24 -201.999 72s-77 111.333 -77 190z" />
    <glyph glyph-name="uring" unicode="&#x16f;" horiz-adv-x="597" 
d="M296 568c-23.333 0 -43.3311 6.83301 -59.998 20.5s-25 31.5 -25 53.5c0 22.667 8.33301 40.834 25 54.501s36.667 20.5 60 20.5s43.166 -6.83301 59.499 -20.5s24.5 -31.834 24.5 -54.501c0 -22 -8.33301 -39.833 -25 -53.5s-36.334 -20.5 -59.001 -20.5zM296.002 609
c9.33301 0 17.166 3.16699 23.499 9.5s9.5 14.166 9.5 23.499c0 10.667 -3.16699 19.167 -9.5 25.5s-14.166 9.5 -23.499 9.5c-10 0 -18 -3.16699 -24 -9.5s-9 -14.833 -9 -25.5c0 -9.33301 3 -17.166 9 -23.499s14 -9.5 24 -9.5zM69.002 182l-0.00195312 324h97v-302
c0 -40 6.66699 -71 20 -93s38.333 -33 75 -33c50 0 90 18.667 120 56s45 82.333 45 135v237h96v-506h-94v70l4 37h-2c-13.333 -30 -36.666 -57.333 -69.999 -82s-72.666 -37 -117.999 -37c-115.333 0 -173 64.667 -173 194z" />
    <glyph glyph-name="Uhungarumlaut" unicode="&#x170;" horiz-adv-x="726" 
d="M85 250v456h99v-455c0 -54 16.167 -96.167 48.5 -126.5s75.833 -45.5 130.5 -45.5s98 15.167 130 45.5s48 72.833 48 127.5v454h99v-456c0 -78.667 -25.333 -142 -76 -190s-117.334 -72 -200.001 -72c-83.333 0 -150.666 24 -201.999 72s-77 111.333 -77 190zM384 755
l73 127h101l-96 -127h-78zM230 755l68 127h88l-71 -127h-85z" />
    <glyph glyph-name="uhungarumlaut" unicode="&#x171;" horiz-adv-x="597" 
d="M69 182l-0.00195312 324h97v-302c0 -40 6.66699 -71 20 -93s38.333 -33 75 -33c50 0 90 18.667 120 56s45 82.333 45 135v237h96v-506h-94v70l4 37h-2c-13.333 -30 -36.666 -57.333 -69.999 -82s-72.666 -37 -117.999 -37c-115.333 0 -173 64.667 -173 194zM317.998 580
l73 127h101l-96 -127h-78zM163.998 580l68 127h88l-71 -127h-85z" />
    <glyph glyph-name="Uogonek" unicode="&#x172;" horiz-adv-x="726" 
d="M86 250l-0.000976562 456h98v-455c0 -54 16.167 -96.167 48.5 -126.5s75.833 -45.5 130.5 -45.5s98.167 15.333 130.5 46s48.5 73 48.5 127v454h98v-456c0 -58.667 -11.833 -105 -35.5 -139s-55.834 -64.333 -96.501 -91c-44 -31.333 -71.667 -53.666 -83 -66.999
c-10.667 -14.667 -16 -28.667 -16 -42c0 -11.333 4.5 -20.5 13.5 -27.5s18.167 -11.5 27.5 -13.5l14 -2l-23 -75c-3.33301 0 -7.5 0.5 -12.5 1.5s-14.167 3.5 -27.5 7.5s-25.166 9.16699 -35.499 15.5s-19.666 15.666 -27.999 27.999s-12.5 26.5 -12.5 42.5
c0 37.333 18.333 71 55 101c-8.66699 -0.666992 -16 -1 -22 -1c-76 0 -140.333 23.333 -193 70s-79 110.667 -79 192z" />
    <glyph glyph-name="uogonek" unicode="&#x173;" horiz-adv-x="597" 
d="M69 182l-0.00292969 324.001h97v-302c0 -40 6.66699 -71 20 -93s38.333 -33 75 -33c50 0 90 18.667 120 56s45 82.333 45 135v237h96v-506c-42.667 -34 -64 -63.667 -64 -89c0 -11.333 4.66699 -20.5 14 -27.5s18.666 -11.5 27.999 -13.5l13 -2l-23 -75
c-3.33301 0 -7.5 0.5 -12.5 1.5s-14.167 3.5 -27.5 7.5s-25.166 9.16699 -35.499 15.5s-19.666 15.666 -27.999 27.999s-12.5 26.5 -12.5 42.5c0 38 23 75.333 69 112h-15v70l4 37h-2c-13.333 -30 -36.666 -57.333 -69.999 -82s-72.666 -37 -117.999 -37
c-115.333 0 -173 64.667 -173 194z" />
    <glyph glyph-name="Wcircumflex" unicode="&#x174;" horiz-adv-x="941" 
d="M336 755l88 127h100l89 -127h-85l-53 80h-2l-52 -80h-85zM209 0l-180 706h104l123 -518l14 -75h2c4 24 9.33301 49 16 75l139 518h87l138 -518l16 -75h2c2.66699 24.667 7 49.667 13 75l131 518h102l-186 -706h-113l-124 458l-21 99h-4
c-6 -35.333 -13.333 -68.333 -22 -99l-123 -458h-114z" />
    <glyph glyph-name="wcircumflex" unicode="&#x175;" horiz-adv-x="828" 
d="M275 580l88 127h100l89 -127h-85l-53 80h-2l-52 -80h-85zM187 0l-162.999 505.999h103l105 -355l13 -54h2c4 18.667 8.66699 36.667 14 54l109 354h90l109 -354l13 -54h2c3.33301 18.667 7.66602 36.667 12.999 54l106 355h101l-162 -506h-108l-104 325l-15 55h-2
c-4 -19.333 -8.66699 -37.666 -14 -54.999l-104 -325h-108z" />
    <glyph glyph-name="Ycircumflex" unicode="&#x176;" horiz-adv-x="592" 
d="M247 0v299l-237 407h112l130 -232l43 -89h2c14 32 28.333 61.667 43 89l130 232h112l-237 -407v-299h-98zM157 755l88 127h100l89 -127h-85l-53 80h-2l-52 -80h-85z" />
    <glyph glyph-name="ycircumflex" unicode="&#x177;" horiz-adv-x="535" 
d="M50 -105c18.667 -14.667 37.999 -21.999 57.999 -21.999c40.667 0 71.334 25 92.001 75l25 58l-212 500h109l127 -331l19 -61h2c5.33301 22.667 11 42.667 17 60l123 332h105l-238 -597c-14.667 -38.667 -36.5 -68.167 -65.5 -88.5s-61.833 -30.5 -98.5 -30.5
c-16.667 0 -33 2.66699 -49 8s-28 10.666 -36 15.999l-12 7zM129.999 580.001l88 127h100l89 -127h-85l-53 80h-2l-52 -80h-85z" />
    <glyph glyph-name="Ydieresis" unicode="&#x178;" horiz-adv-x="592" 
d="M247 0v299l-237 407h112l130 -232l43 -89h2c14 32 28.333 61.667 43 89l130 232h112l-237 -407v-299h-98zM337 781v101h79v-101h-79zM169 781v101h80v-101h-80z" />
    <glyph glyph-name="Zacute" unicode="&#x179;" horiz-adv-x="594" 
d="M264 755l72 127h105l-96 -127h-81zM36 0l-0.000976562 66l339 490c8 12 16.333 23.333 25 34s15.334 18.334 20.001 23.001l6 7v2c-12.667 -1.33301 -30 -2 -52 -2h-321v86h496v-65l-340 -491c-8 -11.333 -16.167 -22.333 -24.5 -33s-14.5 -18.334 -18.5 -23.001l-7 -8
v-2c12 1.33301 29.333 2 52 2h342v-86h-517z" />
    <glyph glyph-name="zacute" unicode="&#x17a;" horiz-adv-x="511" 
d="M208 580l72 127h105l-96 -127h-81zM36 0v56l256 320l41 47v2c-10.667 -1.33301 -27 -2 -49 -2h-237v83h417v-56l-255 -320c-6 -8 -12.667 -15.833 -20 -23.5l-17 -17.5l-6 -6v-2c11.333 2 28 3 50 3h257v-84h-437z" />
    <glyph glyph-name="Zdotaccent" unicode="&#x17b;" horiz-adv-x="594" 
d="M36 0l-0.000976562 66l339 490c8 12 16.333 23.333 25 34s15.334 18.334 20.001 23.001l6 7v2c-12.667 -1.33301 -30 -2 -52 -2h-321v86h496v-65l-340 -491c-8 -11.333 -16.167 -22.333 -24.5 -33s-14.5 -18.334 -18.5 -23.001l-7 -8v-2c12 1.33301 29.333 2 52 2h342
v-86h-517zM264.999 784v98h86v-98h-86z" />
    <glyph glyph-name="zdotaccent" unicode="&#x17c;" horiz-adv-x="511" 
d="M36 0v56l256 320l41 47v2c-10.667 -1.33301 -27 -2 -49 -2h-237v83h417v-56l-255 -320c-6 -8 -12.667 -15.833 -20 -23.5l-17 -17.5l-6 -6v-2c11.333 2 28 3 50 3h257v-84h-437zM209 609v98h86v-98h-86z" />
    <glyph glyph-name="Zcaron" unicode="&#x17d;" horiz-adv-x="594" 
d="M257 755l-88 127h85l52 -81h2l53 81h85l-89 -127h-100zM36 0l-0.000976562 66l339 490c8 12 16.333 23.333 25 34s15.334 18.334 20.001 23.001l6 7v2c-12.667 -1.33301 -30 -2 -52 -2h-321v86h496v-65l-340 -491c-8 -11.333 -16.167 -22.333 -24.5 -33
s-14.5 -18.334 -18.5 -23.001l-7 -8v-2c12 1.33301 29.333 2 52 2h342v-86h-517z" />
    <glyph glyph-name="zcaron" unicode="&#x17e;" horiz-adv-x="511" 
d="M202 580l-88 127h85l52 -81h2l53 81h85l-89 -127h-100zM36 0v56l256 320l41 47v2c-10.667 -1.33301 -27 -2 -49 -2h-237v83h417v-56l-255 -320c-6 -8 -12.667 -15.833 -20 -23.5l-17 -17.5l-6 -6v-2c11.333 2 28 3 50 3h257v-84h-437z" />
    <glyph glyph-name="longs" unicode="&#x17f;" horiz-adv-x="291" 
d="M99 0l-0.00195312 421.997h-63v79h63v22c0 32 4.66699 59.833 14 83.5s20.833 42 34.5 55s29.667 23.333 48 31s34.833 12.667 49.5 15s29.667 3.5 45 3.5l37 -3v-84c-6.66699 1.33301 -15 2 -25 2c-8.66699 0 -17.167 -0.666992 -25.5 -2
s-17.666 -4.16602 -27.999 -8.49902s-19.166 -10.166 -26.499 -17.499s-13.5 -17.666 -18.5 -30.999s-7.5 -29 -7.5 -47v-520h-97z" />
    <glyph glyph-name="florin" unicode="&#x192;" horiz-adv-x="577" 
d="M33 -21c25.333 -4 47.3379 -5.99902 66.0049 -5.99902c11.333 0 22.166 1.33301 32.499 4s21.666 7.5 33.999 14.5s22.666 18.5 30.999 34.5s13.5 35.333 15.5 58l24 266h-82v78h88l10 102c2.66699 32 9.83398 59.833 21.501 83.5s24.667 42 39 55
s31.166 23.333 50.499 31s36.5 12.667 51.5 15s30.167 3.5 45.5 3.5l83 -7v-84c-32.667 4.66699 -59 7 -79 7c-11.333 0 -22.333 -1.33301 -33 -4s-22.167 -7.5 -34.5 -14.5s-22.833 -18.333 -31.5 -34s-14 -35.167 -16 -58.5l-9 -95h117v-78h-124l-24 -274
c-3.33301 -39.333 -12.833 -72.333 -28.5 -99s-34.834 -45.834 -57.501 -57.501s-43.334 -19.667 -62.001 -24s-38 -6.5 -58 -6.5l-70 6v84z" />
    <glyph glyph-name="Scommaaccent" unicode="&#x218;" horiz-adv-x="545" 
d="M224 -59l85 -0.000976562c4.66699 -18 7 -35 7 -51c0 -27.333 -8.33301 -58.666 -25 -93.999h-74c12.667 36 19 64 19 84s-4 40.333 -12 61zM41 80.999l55.9971 75c22.667 -22 50 -40.167 82 -54.5s64 -21.5 96 -21.5c37.333 0 67.333 9.16699 90 27.5s34 42.833 34 73.5
c0 28.667 -11.667 53.167 -35 73.5s-51.833 37.5 -85.5 51.5s-67.167 29 -100.5 45s-61.666 38.333 -84.999 67s-35 63.334 -35 104.001c0 58.667 21.833 106 65.5 142s98.834 54 165.501 54c80.667 0 146.334 -24 197.001 -72l-45 -81c-20 18.667 -44.167 33.667 -72.5 45
s-56.166 17 -83.499 17c-36.667 0 -67 -9.16699 -91 -27.5s-36 -42.5 -36 -72.5c0 -23.333 8.33301 -44 25 -62s37.667 -32.167 63 -42.5s52.666 -22.333 81.999 -36s56.666 -27.834 81.999 -42.501s46.333 -35.334 63 -62.001s25 -57.667 25 -93
c0 -57.333 -20 -105.166 -60 -143.499s-95 -57.5 -165 -57.5c-91.333 0 -168.666 31 -231.999 93z" />
    <glyph glyph-name="scommaaccent" unicode="&#x219;" horiz-adv-x="447" 
d="M177 -59l85 -0.000976562c4.66699 -18 7 -35 7 -51c0 -27.333 -8.33301 -58.666 -25 -93.999h-74c12.667 36 19 64 19 84s-4 40.333 -12 61zM32 61.999l45.999 66.001c40.667 -39.333 90.334 -59 149.001 -59c26 0 46.833 5.83301 62.5 17.5s23.5 27.834 23.5 48.501
c0 17.333 -9 32.333 -27 45s-39.667 23.667 -65 33s-50.666 19.666 -75.999 30.999s-47 27.833 -65 49.5s-27 47.834 -27 78.501c0 46 17.333 81.833 52 107.5s78 38.5 130 38.5c68 0 122.667 -18.667 164 -56l-39 -70c-14.667 14 -33.834 25 -57.501 33
s-47.167 12 -70.5 12c-26 0 -46.833 -5.33301 -62.5 -16s-23.5 -26.334 -23.5 -47.001c0 -18 9 -33.333 27 -46s39.667 -23.5 65 -32.5s50.833 -19.167 76.5 -30.5s47.5 -27.833 65.5 -49.5s27 -47.834 27 -78.501c0 -43.333 -17 -79 -51 -107s-77.667 -42 -131 -42
c-80 0 -144.333 24.667 -193 74z" />
    <glyph glyph-name="uni021A" unicode="&#x21a;" horiz-adv-x="615" 
d="M260 -59l85 -0.000976562c4.66699 -18 7 -35 7 -51c0 -27.333 -8.33301 -58.666 -25 -93.999h-74c12.667 36 19 64 19 84s-4 40.333 -12 61zM258 -0.000976562v620h-243v86h584v-86h-243v-620h-98z" />
    <glyph glyph-name="uni021B" unicode="&#x21b;" horiz-adv-x="349" 
d="M166 -59l85 -0.000976562c4.66699 -18 7 -35 7 -51c0 -27.333 -8.33301 -58.666 -25 -93.999h-74c12.667 36 19 64 19 84s-4 40.333 -12 61zM96 184.999l0.00195312 236.999h-66v79h68v144h95v-144h122v-79h-122v-226c0 -19.333 2.66699 -36.166 8 -50.499
s11.833 -25.5 19.5 -33.5s16.667 -14.333 27 -19s19.666 -7.66699 27.999 -9s16.833 -2 25.5 -2s16.334 0.666992 23.001 2v-86c-16 -2 -27.333 -3 -34 -3c-15.333 0 -30.5 1.16699 -45.5 3.5s-31.833 7.33301 -50.5 15s-34.834 18 -48.501 31s-25.334 31.667 -35.001 56
s-14.5 52.5 -14.5 84.5z" />
    <glyph glyph-name="circumflex" unicode="&#x2c6;" horiz-adv-x="499" 
d="M111 755l88 127h100l89 -127h-85l-53 80h-2l-52 -80h-85z" />
    <glyph glyph-name="caron" unicode="&#x2c7;" horiz-adv-x="499" 
d="M199 755l-88 127h85l52 -81h2l53 81h85l-89 -127h-100z" />
    <glyph glyph-name="breve" unicode="&#x2d8;" horiz-adv-x="499" 
d="M250 751c-36.667 0 -67.834 10.333 -93.501 31s-38.5 49.334 -38.5 86.001v14h72v-13c0 -20 5.83301 -35 17.5 -45s25.834 -15 42.501 -15c16 0 29.833 5.16699 41.5 15.5s17.5 25.5 17.5 45.5v12h72v-14c0 -36.667 -12.833 -65.334 -38.5 -86.001s-56.5 -31 -92.5 -31z
" />
    <glyph glyph-name="dotaccent" unicode="&#x2d9;" horiz-adv-x="500" 
d="M207 784v98h86v-98h-86z" />
    <glyph glyph-name="ring" unicode="&#x2da;" horiz-adv-x="500" 
d="M250 743c-23.333 0 -43.3311 6.83301 -59.998 20.5s-25 31.5 -25 53.5c0 22.667 8.33301 40.834 25 54.501s36.667 20.5 60 20.5s43.166 -6.83301 59.499 -20.5s24.5 -31.834 24.5 -54.501c0 -22 -8.33301 -39.833 -25 -53.5s-36.334 -20.5 -59.001 -20.5zM250.002 784
c9.33301 0 17.166 3.16699 23.499 9.5s9.5 14.166 9.5 23.499c0 10.667 -3.16699 19.167 -9.5 25.5s-14.166 9.5 -23.499 9.5c-10 0 -18 -3.16699 -24 -9.5s-9 -14.833 -9 -25.5c0 -9.33301 3 -17.166 9 -23.499s14 -9.5 24 -9.5z" />
    <glyph glyph-name="ogonek" unicode="&#x2db;" horiz-adv-x="499" 
d="M170 -112c0 14.667 3.33008 29.501 9.99707 44.501s15 27.667 25 38s19.833 19.666 29.5 27.999s17.834 14.5 24.501 18.5l10 6l61 -13c-6 -4 -13.167 -9.5 -21.5 -16.5s-19.666 -19.167 -33.999 -36.5s-21.5 -32.666 -21.5 -45.999c0 -11.333 4.66699 -20.5 14 -27.5
s18.666 -11.5 27.999 -13.5l14 -2l-23 -75c-3.33301 0 -7.5 0.5 -12.5 1.5s-14.167 3.5 -27.5 7.5s-25.166 9.16699 -35.499 15.5s-19.666 15.666 -27.999 27.999s-12.5 26.5 -12.5 42.5z" />
    <glyph glyph-name="tilde" unicode="&#x2dc;" horiz-adv-x="499" 
d="M81 756c0 84.667 34.001 127 102.001 127c19.333 0 36.333 -5.66699 51 -17s28 -22.666 40 -33.999s23.667 -17 35 -17c13.333 0 23.166 6.5 29.499 19.5s9.5 28.167 9.5 45.5h70c0 -84.667 -34 -127 -102 -127c-19.333 0 -36.333 5.66699 -51 17s-28 22.666 -40 33.999
s-23.667 17 -35 17c-26 0 -39 -21.667 -39 -65h-70z" />
    <glyph glyph-name="hungarumlaut" unicode="&#x2dd;" horiz-adv-x="499" 
d="M240 755l73 127h101l-96 -127h-78zM86 755l68 127h88l-71 -127h-85z" />
    <glyph glyph-name="uni0400" unicode="&#x400;" horiz-adv-x="564" 
d="M93 0v706h411v-86h-312v-221h253v-86h-253v-227h329v-86h-428zM286 755l-95 127h104l73 -127h-82z" />
    <glyph glyph-name="uni0401" unicode="&#x401;" horiz-adv-x="564" 
d="M349 781v101h79v-101h-79zM181 781v101h80v-101h-80zM93 0v706h411v-86h-312v-221h253v-86h-253v-227h329v-86h-428z" />
    <glyph glyph-name="uni0402" unicode="&#x402;" horiz-adv-x="736" 
d="M208 0v620.001h-193v86h524v-86h-232v-197l-2 -31h2c56 27.333 115.333 41 178 41c68.667 0 122.334 -19.667 161.001 -59s58 -91 58 -155c0 -72 -20.833 -128.5 -62.5 -169.5s-94.834 -61.5 -159.501 -61.5c-16 0 -32 1 -48 3v83c12 -1.33301 24 -2 36 -2
c36.667 0 68.334 11.167 95.001 33.5s40 58.166 40 107.499c0 40 -11.833 72 -35.5 96s-58.167 36 -103.5 36c-26.667 0 -53.334 -3.5 -80.001 -10.5s-46.667 -13.833 -60 -20.5l-19 -10v-304h-99z" />
    <glyph glyph-name="uni0403" unicode="&#x403;" horiz-adv-x="495" 
d="M229 755l72 127h105l-96 -127h-81zM93 0v706h389v-86h-290v-620h-99z" />
    <glyph glyph-name="uni0404" unicode="&#x404;" horiz-adv-x="716" 
d="M50 357c0 102.667 33.5 188.501 100.5 257.501s153.167 103.5 258.5 103.5c32 0 62.667 -3.16699 92 -9.5s53.666 -14 72.999 -23s36.333 -18.167 51 -27.5s25.334 -17.333 32.001 -24l10 -9l-50 -74c-6 6 -14.667 13.167 -26 21.5s-34.666 19.666 -69.999 33.999
s-71.333 21.5 -108 21.5c-70.667 0 -129.667 -22 -177 -66s-74.333 -99.667 -81 -167h369v-82h-369c8 -68.667 35.333 -125 82 -169s106 -66 178 -66c24.667 0 49 3 73 9s44.5 13.333 61.5 22s32 17.5 45 26.5s22.833 16.5 29.5 22.5l10 9l52 -69l-11.5 -11.5
c-5 -5 -16.333 -13.833 -34 -26.5s-36.334 -23.834 -56.001 -33.501s-45 -18.5 -76 -26.5s-63.167 -12 -96.5 -12c-105.333 0 -192 35.333 -260 106s-102 158.334 -102 263.001z" />
    <glyph glyph-name="uni0405" unicode="&#x405;" horiz-adv-x="545" 
d="M41 81l55.9971 75c22.667 -22 50 -40.167 82 -54.5s64 -21.5 96 -21.5c37.333 0 67.333 9.16699 90 27.5s34 42.833 34 73.5c0 28.667 -11.667 53.167 -35 73.5s-51.833 37.5 -85.5 51.5s-67.167 29 -100.5 45s-61.666 38.333 -84.999 67s-35 63.334 -35 104.001
c0 58.667 21.833 106 65.5 142s98.834 54 165.501 54c80.667 0 146.334 -24 197.001 -72l-45 -81c-20 18.667 -44.167 33.667 -72.5 45s-56.166 17 -83.499 17c-36.667 0 -67 -9.16699 -91 -27.5s-36 -42.5 -36 -72.5c0 -23.333 8.33301 -44 25 -62s37.667 -32.167 63 -42.5
s52.666 -22.333 81.999 -36s56.666 -27.834 81.999 -42.501s46.333 -35.334 63 -62.001s25 -57.667 25 -93c0 -57.333 -20 -105.166 -60 -143.499s-95 -57.5 -165 -57.5c-91.333 0 -168.666 31 -231.999 93z" />
    <glyph glyph-name="uni0406" unicode="&#x406;" horiz-adv-x="286" 
d="M93 0v706h99v-706h-99z" />
    <glyph glyph-name="uni0407" unicode="&#x407;" horiz-adv-x="286" 
d="M93 0v706h99v-706h-99zM189 781v101h79v-101h-79zM21 781v101h80v-101h-80z" />
    <glyph glyph-name="uni0408" unicode="&#x408;" horiz-adv-x="533" 
d="M28 203l0.000976562 34.999h98v-30c0 -37.333 9.16699 -68.166 27.5 -92.499s46.166 -36.5 83.499 -36.5c32 0 58.5 10.167 79.5 30.5s31.5 51.833 31.5 94.5v416h-178v86h276v-503c0 -71.333 -20.5 -125 -61.5 -161s-90.167 -54 -147.5 -54s-106.5 18.167 -147.5 54.5
s-61.5 89.833 -61.5 160.5z" />
    <glyph glyph-name="uni0409" unicode="&#x409;" horiz-adv-x="953" 
d="M20 -7v92c58.667 6 99.667 44 123 114s35 177 35 321v186h388v-289h137c66 0 119.5 -19 160.5 -57s61.5 -88.667 61.5 -152c0 -62.667 -20.5 -113 -61.5 -151s-93.167 -57 -156.5 -57h-239v620h-191v-100c0 -66 -2 -123.5 -6 -172.5s-11.5 -96.167 -22.5 -141.5
s-25.833 -82.5 -44.5 -111.5s-43.5 -52.5 -74.5 -70.5s-67.5 -28.333 -109.5 -31zM566 86l125 0.000976562c40 0 72.167 10.667 96.5 32s36.5 51.333 36.5 90c0 37.333 -12.333 67.166 -37 89.499s-57 33.5 -97 33.5h-124v-245z" />
    <glyph glyph-name="uni040A" unicode="&#x40a;" horiz-adv-x="1008" 
d="M93 0v706h99v-292h329v292h98v-291h143c64 0 116.167 -19 156.5 -57s60.5 -88.333 60.5 -151c0 -62 -20.5 -112 -61.5 -150s-92.833 -57 -155.5 -57h-241v328h-329v-328h-99zM619 86h127c40 0 72 10.667 96 32s36 51 36 89c0 37.333 -12.167 67 -36.5 89
s-56.5 33 -96.5 33h-126v-243z" />
    <glyph glyph-name="uni040B" unicode="&#x40b;" horiz-adv-x="735" 
d="M208 0v620h-193v86h523v-86h-231v-199l-2 -33h2c60 30 121.333 45 184 45c66.667 0 116.167 -18.5 148.5 -55.5s48.5 -88.5 48.5 -154.5v-223h-100v209c0 90.667 -41.333 136 -124 136c-58 0 -110.333 -15.333 -157 -46v-299h-99z" />
    <glyph glyph-name="uni040C" unicode="&#x40c;" horiz-adv-x="614" 
d="M275 755l72 127h105l-96 -127h-81zM93 0v706h99v-297h105l179 297h109l-206 -335v-2l219 -369h-113l-188 323h-105v-323h-99z" />
    <glyph glyph-name="uni040D" unicode="&#x40d;" horiz-adv-x="752" 
d="M93 0l0.000976562 706h99v-458l-6 -103h2c23.333 44 43.333 78.667 60 104l313 457h97v-706h-98v458l6 103h-2c-22.667 -42.667 -42.334 -77 -59.001 -103l-315 -458h-97zM344.001 755l-95 127h104l73 -127h-82z" />
    <glyph glyph-name="uni040E" unicode="&#x40e;" horiz-adv-x="599" 
d="M75 34l44.999 74.999c30.667 -23.333 57.667 -35 81 -35c19.333 0 34.833 6.5 46.5 19.5s22.834 32.833 33.501 59.5l-279 553h109l172 -355l40 -93h2c10 32.667 20 63.334 30 92.001l131 356h104l-225 -576c-37.333 -94.667 -91 -142 -161 -142
c-42 0 -85 15.333 -129 46zM300.999 738.999c-40.667 0 -75.5 11.501 -104.5 34.501s-43.5 54.167 -43.5 93.5v15h78v-14c0 -20.667 7 -36.834 21 -48.501s30.333 -17.5 49 -17.5c19.333 0 36 5.83301 50 17.5s21 28.167 21 49.5v13h77v-15
c0 -39.333 -14.333 -70.5 -43 -93.5s-63.667 -34.5 -105 -34.5z" />
    <glyph glyph-name="uni040F" unicode="&#x40f;" horiz-adv-x="730" 
d="M93 0v706h99v-620h346v620h99v-706h-227v-140h-90v140h-227z" />
    <glyph glyph-name="uni0410" unicode="&#x410;" horiz-adv-x="641" 
d="M15 0l253 706h105l253 -706h-102l-71 203h-266l-71 -203h-101zM213 285l214 0.000976562l-78 223l-28 101h-2c-10 -42.667 -19 -76.334 -27 -101.001z" />
    <glyph glyph-name="uni0411" unicode="&#x411;" horiz-adv-x="605" 
d="M93 0v706.002h417v-86h-318v-197h155c63.333 0 115 -18.833 155 -56.5s60 -89.834 60 -156.501c0 -62.667 -19.5 -113.334 -58.5 -152.001s-89.5 -58 -151.5 -58h-259zM192 86.002h144.001c39.333 0 70.166 11 92.499 33s33.5 52.333 33.5 91s-11.5 69.5 -34.5 92.5
s-54.167 34.5 -93.5 34.5h-142v-251z" />
    <glyph glyph-name="uni0412" unicode="&#x412;" horiz-adv-x="624" 
d="M93 0l-0.00195312 706h247c61.333 0 110.833 -16 148.5 -48s56.5 -76 56.5 -132c0 -34 -7.83301 -64.333 -23.5 -91s-37.167 -47 -64.5 -61v-2c36.667 -10.667 65.334 -31.667 86.001 -63s31 -67.333 31 -108c0 -64 -21.667 -113.5 -65 -148.5
s-97.666 -52.5 -162.999 -52.5h-253zM191.998 409h148.001c31.333 0 56.5 10 75.5 30s28.5 45.667 28.5 77s-9.33301 56.5 -28 75.5s-44.334 28.5 -77.001 28.5h-147v-211zM191.999 86h159c37.333 0 66.833 11 88.5 33s32.5 51.333 32.5 88c0 36 -11 65 -33 87
s-51.333 33 -88 33h-159v-241z" />
    <glyph glyph-name="uni0413" unicode="&#x413;" horiz-adv-x="495" 
d="M93 0v706h389v-86h-290v-620h-99z" />
    <glyph glyph-name="uni0414" unicode="&#x414;" horiz-adv-x="720" 
d="M181 86h321v534h-221v-65c0 -210.667 -33.333 -367 -100 -469zM6 86h71c44 62 73.5 132.667 88.5 212s22.5 167 22.5 263v145h413v-620h78v-226h-89v140h-492v-140h-92v226z" />
    <glyph glyph-name="uni0415" unicode="&#x415;" horiz-adv-x="564" 
d="M93 0v706h411v-86h-312v-221h253v-86h-253v-227h329v-86h-428z" />
    <glyph glyph-name="uni0416" unicode="&#x416;" horiz-adv-x="892" 
d="M18 0l205 369v2l-191 335h108l165 -297h92v297h98v-297h93l164 297h108l-191 -335v-2l206 -369h-112l-175 323h-93v-323h-98v323h-92l-176 -323h-111z" />
    <glyph glyph-name="uni0417" unicode="&#x417;" horiz-adv-x="546" 
d="M27 84l55 67.0029c20 -21.333 44.833 -39 74.5 -53s60.167 -21 91.5 -21c44 0 79.5 11.5 106.5 34.5s40.5 54.167 40.5 93.5c0 36 -12.167 64.5 -36.5 85.5s-56.166 31.5 -95.499 31.5h-87v82h70c36 0 66.167 10.667 90.5 32s36.5 48.666 36.5 81.999
c0 32.667 -10.5 59.667 -31.5 81s-52.167 32 -93.5 32c-58 0 -110.667 -20 -158 -60l-42 74c58.667 48.667 130 73 214 73c62 0 112.833 -16.833 152.5 -50.5s59.5 -79.5 59.5 -137.5c0 -72 -34 -125 -102 -159v-2c38 -10.667 68.167 -30.834 90.5 -60.501
s33.5 -65.834 33.5 -108.501c0 -64 -22.833 -115.333 -68.5 -154s-102.834 -58 -171.501 -58c-43.333 0 -85.5 8.5 -126.5 25.5s-75.167 40.5 -102.5 70.5z" />
    <glyph glyph-name="uni0418" unicode="&#x418;" horiz-adv-x="752" 
d="M93 0l0.000976562 706h99v-458l-6 -103h2c23.333 44 43.333 78.667 60 104l313 457h97v-706h-98v458l6 103h-2c-22.667 -42.667 -42.334 -77 -59.001 -103l-315 -458h-97z" />
    <glyph glyph-name="uni0419" unicode="&#x419;" horiz-adv-x="752" 
d="M379 739c-40.667 0 -75.5 11.501 -104.5 34.501s-43.5 54.167 -43.5 93.5v15h78v-14c0 -20.667 7 -36.834 21 -48.501s30.333 -17.5 49 -17.5c19.333 0 36 5.83301 50 17.5s21 28.167 21 49.5v13h77v-15c0 -39.333 -14.333 -70.5 -43 -93.5s-63.667 -34.5 -105 -34.5z
M93 0.000976562l0.000976562 706h99v-458l-6 -103h2c23.333 44 43.333 78.667 60 104l313 457h97v-706h-98v458l6 103h-2c-22.667 -42.667 -42.334 -77 -59.001 -103l-315 -458h-97z" />
    <glyph glyph-name="uni041A" unicode="&#x41a;" horiz-adv-x="614" 
d="M93 0v706h99v-297h105l179 297h109l-206 -335v-2l219 -369h-113l-188 323h-105v-323h-99z" />
    <glyph glyph-name="uni041B" unicode="&#x41b;" horiz-adv-x="678" 
d="M12 83c58 8 99.332 49 123.999 123s37 185 37 333v167h412v-706h-99v620h-219v-82c0 -178.667 -19.167 -313 -57.5 -403s-104.166 -137.667 -197.499 -143v91z" />
    <glyph glyph-name="uni041C" unicode="&#x41c;" horiz-adv-x="851" 
d="M66 0l58.001 706h103l163 -382l34 -95h2c12.667 37.333 24.334 69 35.001 95l163 382h103l57 -706h-98l-34 445l-2 104h-2c-14.667 -43.333 -27.334 -78 -38.001 -104l-141 -318h-88l-140 318l-38 106h-2c1.33301 -42 0.666016 -77.333 -2.00098 -106l-34 -445h-99z" />
    <glyph glyph-name="uni041D" unicode="&#x41d;" horiz-adv-x="750" 
d="M93 0v706h99v-310h367v310h98v-706h-98v310h-367v-310h-99z" />
    <glyph glyph-name="uni041E" unicode="&#x41e;" horiz-adv-x="823" 
d="M49 358c0 101.333 35 186.666 105 255.999s156 104 258 104s187.833 -34.667 257.5 -104s104.5 -154.666 104.5 -255.999c0 -104 -34.833 -191.667 -104.5 -263s-155.5 -107 -257.5 -107s-188 35.667 -258 107s-105 159 -105 263zM151 358
c0 -78.667 25.333 -144.834 76 -198.501s112.334 -80.5 185.001 -80.5s134.167 26.833 184.5 80.5s75.5 119.834 75.5 198.501c0 76 -25.167 140 -75.5 192s-111.833 78 -184.5 78s-134.334 -26 -185.001 -78s-76 -116 -76 -192z" />
    <glyph glyph-name="uni041F" unicode="&#x41f;" horiz-adv-x="742" 
d="M93 0v706h556v-706h-99v620h-358v-620h-99z" />
    <glyph glyph-name="uni0420" unicode="&#x420;" horiz-adv-x="604" 
d="M93 0v706h259c65.333 0 118.5 -20.167 159.5 -60.5s61.5 -93.833 61.5 -160.5s-20.667 -120.667 -62 -162s-94.333 -62 -159 -62h-160v-261h-99zM192 347l144 -0.000976562c42 0 75.333 12.333 100 37s37 58.334 37 101.001c0 42 -12.167 75 -36.5 99s-57.5 36 -99.5 36
h-145v-273z" />
    <glyph glyph-name="uni0421" unicode="&#x421;" horiz-adv-x="717" 
d="M50 357c0 103.333 33.834 189.333 101.501 258s153.5 103 257.5 103c107.333 0 193.333 -31 258 -93l-50 -74c-26 23.333 -57.5 42 -94.5 56s-73.5 21 -109.5 21c-80 0 -143.5 -25.667 -190.5 -77s-70.5 -115.666 -70.5 -192.999c0 -78 24 -144 72 -198
s111.667 -81 191 -81c39.333 0 78.166 8.16699 116.499 24.5s71.833 38.833 100.5 67.5l53 -71c-74.667 -74.667 -165.667 -112 -273 -112s-194.5 35.167 -261.5 105.5s-100.5 158.166 -100.5 263.499z" />
    <glyph glyph-name="uni0422" unicode="&#x422;" horiz-adv-x="615" 
d="M258 0v620h-243v86h584v-86h-243v-620h-98z" />
    <glyph glyph-name="uni0423" unicode="&#x423;" horiz-adv-x="599" 
d="M75 34l44.999 74.999c30.667 -23.333 57.667 -35 81 -35c19.333 0 34.833 6.5 46.5 19.5s22.834 32.833 33.501 59.5l-279 553h109l172 -355l40 -93h2c10 32.667 20 63.334 30 92.001l131 356h104l-225 -576c-37.333 -94.667 -91 -142 -161 -142
c-42 0 -85 15.333 -129 46z" />
    <glyph glyph-name="uni0424" unicode="&#x424;" horiz-adv-x="832" 
d="M39 376c0 88 30.167 158.833 90.5 212.5s139.5 80.5 237.5 80.5v81h99v-81c97.333 0 176.333 -26.833 237 -80.5s91 -124.5 91 -212.5c0 -89.333 -30.167 -161.333 -90.5 -216s-139.5 -82 -237.5 -82v-90h-99v90c-98 0 -177.167 27.333 -237.5 82
s-90.5 126.667 -90.5 216zM466 162c68.667 0 123.667 19.333 165 58s62 90.667 62 156c0 64 -20.667 114.833 -62 152.5s-96.333 56.5 -165 56.5v-423zM140 376c0 -65.333 20.667 -117.333 62 -156s96.333 -58 165 -58v423c-68.667 0 -123.667 -18.833 -165 -56.5
s-62 -88.5 -62 -152.5z" />
    <glyph glyph-name="uni0425" unicode="&#x425;" horiz-adv-x="598" 
d="M16 0l222 364l-208 342h113l111 -191l44 -82h2c14 28.667 28.667 56 44 82l112 191h114l-210 -342l223 -364h-111l-129 217l-44 81h-2c-14 -28 -28.333 -55 -43 -81l-128 -217h-110z" />
    <glyph glyph-name="uni0426" unicode="&#x426;" horiz-adv-x="757" 
d="M93 0v706h99v-620h346v620h99v-620h81v-226h-89v140h-536z" />
    <glyph glyph-name="uni0427" unicode="&#x427;" horiz-adv-x="639" 
d="M264 271c-71.333 0 -124.667 17.667 -160 53s-53 86.333 -53 153v229h100v-208c0 -45.333 10.667 -79.5 32 -102.5s55.333 -34.5 102 -34.5c58.667 0 112 16 160 48v297h100v-706h-100v286l2 33h-2c-60.667 -32 -121 -48 -181 -48z" />
    <glyph glyph-name="uni0428" unicode="&#x428;" horiz-adv-x="1005" 
d="M93 0v706h99v-620h261v620h99v-620h261v620h98v-706h-818z" />
    <glyph glyph-name="uni0429" unicode="&#x429;" horiz-adv-x="1036" 
d="M93 0v706h99v-620h261v620h99v-620h261v620h98v-620h87v-226h-90v140h-815z" />
    <glyph glyph-name="uni042A" unicode="&#x42a;" horiz-adv-x="687" 
d="M192 0v620.001h-184v86h283v-266h149c63.333 0 115 -19.833 155 -59.5s60 -93.834 60 -162.501c0 -65.333 -19.667 -118 -59 -158s-90 -60 -152 -60h-252zM291 86.001l136.999 0.000976562c39.333 0 70.333 11.667 93 35s34 55.666 34 96.999s-11.667 74.333 -35 99
s-54.666 37 -93.999 37h-135v-268z" />
    <glyph glyph-name="uni042B" unicode="&#x42b;" horiz-adv-x="844" 
d="M652 0v706h98v-706h-98zM93 0v706.001h99v-266h145c63.333 0 115 -19.833 155 -59.5s60 -93.834 60 -162.501c0 -65.333 -19.5 -118 -58.5 -158s-89.5 -60 -151.5 -60h-249zM192 86.001l134.001 0.000976562c39.333 0 70.166 11.667 92.499 35s33.5 55.666 33.5 96.999
s-11.5 74.333 -34.5 99s-54.167 37 -93.5 37h-132v-268z" />
    <glyph glyph-name="uni042C" unicode="&#x42c;" horiz-adv-x="589" 
d="M93 0v706.001h99v-266h150c63.333 0 115 -19.833 155 -59.5s60 -93.834 60 -162.501c0 -65.333 -19.667 -118 -59 -158s-90 -60 -152 -60h-253zM192 86.001l137 0.000976562c40 0 71.167 11.667 93.5 35s33.5 55.666 33.5 96.999s-11.5 74.333 -34.5 99
s-54.167 37 -93.5 37h-136v-268z" />
    <glyph glyph-name="uni042D" unicode="&#x42d;" horiz-adv-x="716" 
d="M33 96l52 69.002c25.333 -26 57.833 -47 97.5 -63s80.5 -24 122.5 -24c69.333 0 127.5 22.333 174.5 67s74.5 100.667 82.5 168h-369v82h370c-6.66699 68 -33.667 123.833 -81 167.5s-106 65.5 -176 65.5c-78.667 0 -148.334 -26.333 -209.001 -79l-49 74
c30.667 30.667 69.334 54.167 116.001 70.5s94.667 24.5 144 24.5c106 0 192.333 -34.333 259 -103s100 -154.334 100 -257.001c0 -105.333 -34.167 -193.333 -102.5 -264s-154.833 -106 -259.5 -106c-52.667 0 -102.667 9.66699 -150 29s-88 45.666 -122 78.999z" />
    <glyph glyph-name="uni042E" unicode="&#x42e;" horiz-adv-x="1066" 
d="M93 0l-0.000976562 705.999h99v-310h120c8 92 45.167 168.667 111.5 230s145.833 92 238.5 92c100 0 184.167 -34.667 252.5 -104s102.5 -154.666 102.5 -255.999c0 -104 -34.167 -191.667 -102.5 -263s-152.5 -107 -252.5 -107c-91.333 0 -169.666 30.5 -234.999 91.5
s-103 137.833 -113 230.5h-122v-310h-99zM410.999 357.999c0 -78 24.333 -144 73 -198s108 -81 178 -81s129.667 27 179 81s74 120 74 198c0 75.333 -24.5 139 -73.5 191s-108.833 78 -179.5 78c-70 0 -129.333 -26 -178 -78s-73 -115.667 -73 -191z" />
    <glyph glyph-name="uni042F" unicode="&#x42f;" horiz-adv-x="622" 
d="M23 0l158 263l21 33v2c-44.667 16 -78.167 41.667 -100.5 77s-33.5 77.333 -33.5 126c0 44.667 10 83 30 115s47 55.667 81 71c29.333 12.667 73.333 19 132 19h218v-706h-99v281h-130l-166 -281h-111zM294 365l136 0.000976562v255h-112c-41.333 0 -72 -5.33301 -92 -16
c-38 -21.333 -57 -57 -57 -107c0 -40.667 11.167 -72.834 33.5 -96.501s52.833 -35.5 91.5 -35.5z" />
    <glyph glyph-name="uni0430" unicode="&#x430;" horiz-adv-x="526" 
d="M33 138c0 37.333 10.334 68.6689 31.001 94.002s48.167 43.5 82.5 54.5s66.166 18.5 95.499 22.5s60.333 6 93 6h26v10c0 74 -37 111 -111 111c-48.667 0 -96 -16.333 -142 -49l-39 71c20.667 17.333 48.667 31.666 84 42.999s70.333 17 105 17c64 0 113.333 -17 148 -51
s52 -83 52 -147v-320h-91v51l3 40h-2c-15.333 -30 -37.833 -54.667 -67.5 -74s-62.5 -29 -98.5 -29c-46 0 -85.667 13.667 -119 41s-50 63.666 -50 108.999zM130.001 146.003c0 -22 8.33301 -41 25 -57s40 -24 70 -24c40 0 72.667 16.667 98 50s38 70.333 38 111v19h-25
c-137.333 0 -206 -33 -206 -99z" />
    <glyph glyph-name="uni0431" unicode="&#x431;" horiz-adv-x="586" 
d="M53 291c0 94 16.668 169.334 50.001 226.001s92.666 103 177.999 139l181 78l32 -80l-194 -81c-50.667 -23.333 -88.5 -50.833 -113.5 -82.5s-39.167 -71.5 -42.5 -119.5h2c40 60 99.667 90 179 90c64 0 115.833 -21.167 155.5 -63.5s59.5 -98.833 59.5 -169.5
s-22 -128.334 -66 -173.001s-101.667 -67 -173 -67c-82 0 -143.833 27.5 -185.5 82.5s-62.5 128.5 -62.5 220.5zM154.001 228.001c0 -48.667 13.667 -87.165 41 -115.498s61.333 -42.5 102 -42.5c41.333 0 75.833 14.167 103.5 42.5s41.5 66.166 41.5 113.499
c0 48 -13.667 86.333 -41 115s-60.666 43 -99.999 43c-42.667 0 -77.834 -14.833 -105.501 -44.5s-41.5 -66.834 -41.5 -111.501z" />
    <glyph glyph-name="uni0432" unicode="&#x432;" horiz-adv-x="520" 
d="M75 0l0.000976562 506.001h209c52 0 93.167 -11.167 123.5 -33.5s45.5 -54.5 45.5 -96.5c0 -24.667 -6.33301 -46.834 -19 -66.501s-30.334 -34.5 -53.001 -44.5v-1c30.667 -7.33301 54.334 -22 71.001 -44s25 -47.333 25 -76c0 -46 -16.833 -81.5 -50.5 -106.5
s-78.834 -37.5 -135.501 -37.5h-216zM172.001 292.001h94.999c28.667 0 50.334 6.83301 65.001 20.5s22 32.5 22 56.5c0 46.667 -30 70 -90 70h-92v-147zM172 68.001h104c34 0 59.667 7 77 21s26 33.333 26 58c0 25.333 -9 45 -27 59s-43.667 21 -77 21h-103v-159z" />
    <glyph glyph-name="uni0433" unicode="&#x433;" horiz-adv-x="413" 
d="M75 0v506h317v-83h-220v-423h-97z" />
    <glyph glyph-name="uni0434" unicode="&#x434;" horiz-adv-x="594" 
d="M174 80l224 0.000976562v347h-152v-27c0 -138.667 -24 -245.334 -72 -320.001zM12 80.001h62c52.667 72 79 183 79 333v93h342v-426h72v-200h-89v120h-375v-120h-91v200z" />
    <glyph glyph-name="uni0435" unicode="&#x435;" horiz-adv-x="557" 
d="M42 253c0 79.333 23.999 143.335 71.999 192.002s108.667 73 182 73c68.667 0 122.334 -22.5 161.001 -67.5s58 -101.5 58 -169.5c0 -8.66699 -1.33301 -22.334 -4 -41.001h-368c2.66699 -52.667 20.5 -93.834 53.5 -123.501s73.167 -44.5 120.5 -44.5
c55.333 0 105 19.667 149 59l41 -71c-24 -22 -53.833 -39.5 -89.5 -52.5s-71.167 -19.5 -106.5 -19.5c-78.667 0 -143.167 25.167 -193.5 75.5s-75.5 113.5 -75.5 189.5zM145.999 310.002h271c-1.33301 42 -13.5 74.667 -36.5 98s-51.833 35 -86.5 35
c-38 0 -70.5 -11.833 -97.5 -35.5s-43.833 -56.167 -50.5 -97.5z" />
    <glyph glyph-name="uni0436" unicode="&#x436;" horiz-adv-x="752" 
d="M17 0l163 260v2l-149 244h103l124 -207h72v207h92v-207h72l125 207h102l-148 -244v-2l163 -260h-109l-132 216h-73v-216h-92v216h-72l-133 -216h-108z" />
    <glyph glyph-name="uni0437" unicode="&#x437;" horiz-adv-x="448" 
d="M26 62l44.999 64c38 -40 82 -60 132 -60c30.667 0 55.834 7.16699 75.501 21.5s29.5 34.833 29.5 61.5c0 51.333 -34.667 77 -104 77h-62v70h53c64 0 96 24.333 96 73c0 23.333 -8 41.333 -24 54s-38 19 -66 19c-42.667 0 -83.667 -14.667 -123 -44l-36 65
c49.333 36.667 108 55 176 55c50 0 91 -12 123 -36s48 -57.667 48 -101c0 -56 -24.667 -94.333 -74 -115v-2c60.667 -19.333 91 -59 91 -119c0 -50 -18.5 -88.667 -55.5 -116s-83.167 -41 -138.5 -41c-72 0 -134 24.667 -186 74z" />
    <glyph glyph-name="uni0438" unicode="&#x438;" horiz-adv-x="598" 
d="M75 0l0.000976562 505.999h93v-302c0 -35.333 -1 -58 -3 -68h2c3.33301 8 18.333 30.667 45 68l218 302h94v-506h-94v302c0 9.33301 0.5 22.5 1.5 39.5s1.5 26.167 1.5 27.5h-2c-0.666992 -1.33301 -15.334 -23.666 -44.001 -66.999l-219 -302h-93z" />
    <glyph glyph-name="uni0439" unicode="&#x439;" horiz-adv-x="598" 
d="M298 564c-40.667 0 -75.5 11.501 -104.5 34.501s-43.5 54.167 -43.5 93.5v15h78v-14c0 -20.667 7 -36.834 21 -48.501s30.333 -17.5 49 -17.5c19.333 0 36 5.83301 50 17.5s21 28.167 21 49.5v13h77v-15c0 -39.333 -14.333 -70.5 -43 -93.5s-63.667 -34.5 -105 -34.5z
M75 0.000976562l0.000976562 505.999h93v-302c0 -35.333 -1 -58 -3 -68h2c3.33301 8 18.333 30.667 45 68l218 302h94v-506h-94v302c0 9.33301 0.5 22.5 1.5 39.5s1.5 26.167 1.5 27.5h-2c-0.666992 -1.33301 -15.334 -23.666 -44.001 -66.999l-219 -302h-93z" />
    <glyph glyph-name="uni043A" unicode="&#x43a;" horiz-adv-x="522" 
d="M75 0v506h97v-204h71l138 204h110l-169 -241v-2l189 -263h-115l-151 219h-73v-219h-97z" />
    <glyph glyph-name="uni043B" unicode="&#x43b;" horiz-adv-x="548" 
d="M20 -5l-0.000976562 87c38 6 66.5 29.833 85.5 71.5s28.5 107.167 28.5 196.5v156h339v-506h-97v426h-149v-76c0 -116.667 -16.167 -204 -48.5 -262s-85.166 -89 -158.499 -93z" />
    <glyph glyph-name="uni043C" unicode="&#x43c;" horiz-adv-x="730" 
d="M54 0l44.001 506h108l129 -286l28 -68h2l28 68l132 286h106l44 -506h-94l-22 301l1 87h-2c-8.66699 -23.333 -19.334 -48 -32.001 -74l-120 -253h-83l-120 252l-32 75h-2l1 -87l-22 -301h-94z" />
    <glyph glyph-name="uni043D" unicode="&#x43d;" horiz-adv-x="600" 
d="M75 0v506h97v-206h256v206h97v-506h-97v217h-256v-217h-97z" />
    <glyph glyph-name="uni043E" unicode="&#x43e;" horiz-adv-x="629" 
d="M42 254c0 75.333 26.332 138.167 78.999 188.5s117 75.5 193 75.5c76.667 0 141.334 -25 194.001 -75s79 -113 79 -189s-26.333 -139.333 -79 -190s-117 -76 -193 -76s-140.5 25.333 -193.5 76s-79.5 114 -79.5 190zM140.999 254.001
c0 -52.667 16.833 -96.167 50.5 -130.5s74.834 -51.5 123.501 -51.5c48 0 89 17.333 123 52s51 78 51 130s-17 95 -51 129s-75 51 -123 51c-48.667 0 -89.834 -17 -123.501 -51s-50.5 -77 -50.5 -129z" />
    <glyph glyph-name="uni043F" unicode="&#x43f;" horiz-adv-x="592" 
d="M75 0v506h442v-506h-97v423h-248v-423h-97z" />
    <glyph glyph-name="uni0440" unicode="&#x440;" horiz-adv-x="601" 
d="M75 -200l-0.000976562 706h90v-45l-3 -38h2c16 30 39 53.333 69 70s63.667 25 101 25c68 0 122 -24.333 162 -73s60 -112.667 60 -192c0 -80 -21.333 -144.167 -64 -192.5s-97.667 -72.5 -165 -72.5s-119.666 28.667 -156.999 86h-2c2.66699 -12 4 -26.667 4 -44v-230
h-97zM168.999 251c0 -48 12.833 -89.832 38.5 -125.499s60.5 -53.5 104.5 -53.5c41.333 0 76 16.167 104 48.5s42 76.166 42 131.499c0 54.667 -13.167 98.5 -39.5 131.5s-60.833 49.5 -103.5 49.5c-41.333 0 -76 -15.333 -104 -46s-42 -76 -42 -136z" />
    <glyph glyph-name="uni0441" unicode="&#x441;" horiz-adv-x="545" 
d="M42 253c0 75.333 25.502 138.333 76.502 189s115.833 76 194.5 76c80 0 143.333 -24.667 190 -74l-46 -68c-38.667 38.667 -85.334 58 -140.001 58c-50.667 0 -92.667 -17.167 -126 -51.5s-50 -77.166 -50 -128.499c0 -52 16.833 -95.333 50.5 -130s76.5 -52 128.5 -52
c28 0 56.167 6.16699 84.5 18.5s52.166 28.833 71.499 49.5l39 -71c-23.333 -24.667 -53 -44.334 -89 -59.001s-73.667 -22 -113 -22c-79.333 0 -144.333 25 -195 75s-76 113.333 -76 190z" />
    <glyph glyph-name="uni0442" unicode="&#x442;" horiz-adv-x="490" 
d="M197 0v423h-176v83h449v-83h-177v-423h-96z" />
    <glyph glyph-name="uni0443" unicode="&#x443;" horiz-adv-x="535" 
d="M50 -105c18.667 -14.667 37.999 -21.999 57.999 -21.999c40.667 0 71.334 25 92.001 75l25 58l-212 500h109l127 -331l19 -61h2c5.33301 22.667 11 42.667 17 60l123 332h105l-238 -597c-14.667 -38.667 -36.5 -68.167 -65.5 -88.5s-61.833 -30.5 -98.5 -30.5
c-16.667 0 -33 2.66699 -49 8s-28 10.666 -36 15.999l-12 7z" />
    <glyph glyph-name="uni0444" unicode="&#x444;" horiz-adv-x="726" 
d="M43 254c0 76 25.667 138.001 77 186.001s117 73.667 197 77v183h93v-183c80 -3.33301 145.5 -28.833 196.5 -76.5s76.5 -109.834 76.5 -186.501s-25.5 -139.334 -76.5 -188.001s-116.5 -74.667 -196.5 -78v-188h-93v188c-80 3.33301 -145.667 29.333 -197 78
s-77 111.334 -77 188.001zM410 69.001c52.667 3.33301 95.5 21.6689 128.5 55.002s49.5 76.666 49.5 129.999c0 54 -16.5 97.167 -49.5 129.5s-75.833 50.166 -128.5 53.499v-368zM139 254.004c0 -53.333 16.5 -96.6689 49.5 -130.002s75.833 -51.666 128.5 -54.999v368
c-53.333 -3.33301 -96.333 -21.166 -129 -53.499s-49 -75.5 -49 -129.5z" />
    <glyph glyph-name="uni0445" unicode="&#x445;" horiz-adv-x="499" 
d="M17 0l172.999 260l-163 246h111l94 -154l16 -30h2c6.66699 11.333 12.334 21.333 17.001 30l94 154h111l-163 -246l173 -260h-110l-106 169l-16 27h-2c-4.66699 -10 -9.66699 -19 -15 -27l-106 -169h-110z" />
    <glyph glyph-name="uni0446" unicode="&#x446;" horiz-adv-x="610" 
d="M75 0v506h97v-422h241v422h98v-422h71v-204h-89v120h-418z" />
    <glyph glyph-name="uni0447" unicode="&#x447;" horiz-adv-x="523" 
d="M213 176c-54.667 0 -96.666 14.168 -125.999 42.501s-44 69.166 -44 122.499v165h95v-151c0 -28.667 7.33301 -51.667 22 -69s41 -26 79 -26c41.333 0 78.666 12 111.999 36v210h97v-506h-97v183l1 30h-2c-39.333 -24.667 -85 -37 -137 -37z" />
    <glyph glyph-name="uni0448" unicode="&#x448;" horiz-adv-x="804" 
d="M75 0v506h93v-422h187v422h94v-422h187v422h93v-506h-654z" />
    <glyph glyph-name="uni0449" unicode="&#x449;" horiz-adv-x="829" 
d="M75 0v506h93v-422h187v422h94v-422h187v422h93v-422h72v-204h-89v120h-637z" />
    <glyph glyph-name="uni044A" unicode="&#x44a;" horiz-adv-x="559" 
d="M147 0l0.000976562 423h-137v83h234v-183h102c55.333 0 99.666 -13.5 132.999 -40.5s50 -67.833 50 -122.5c0 -49.333 -15.333 -88.333 -46 -117s-76.667 -43 -138 -43h-198zM244.001 70h87c33.333 0 58.333 8.16699 75 24.5s25 38.5 25 66.5
c0 28.667 -8.16699 51.167 -24.5 67.5s-41.5 24.5 -75.5 24.5h-87v-183z" />
    <glyph glyph-name="uni044B" unicode="&#x44b;" horiz-adv-x="705" 
d="M533 0v506h97v-506h-97zM75 0v506h97v-183h99c56 0 100.667 -13.5 134 -40.5s50 -67.833 50 -122.5c0 -49.333 -15.5 -88.333 -46.5 -117s-77.167 -43 -138.5 -43h-195zM172 70h85c33.333 0 58.333 8.16699 75 24.5s25 38.5 25 66.5s-8.33301 50.333 -25 67
s-42 25 -76 25h-84v-183z" />
    <glyph glyph-name="uni044C" unicode="&#x44c;" horiz-adv-x="487" 
d="M75 0v506h97v-183h102c56 0 100.667 -13.5 134 -40.5s50 -67.833 50 -122.5c0 -49.333 -15.5 -88.333 -46.5 -117s-77.5 -43 -139.5 -43h-197zM172 70h87c33.333 0 58.333 8.16699 75 24.5s25 38.5 25 66.5c0 28.667 -8.16699 51.167 -24.5 67.5s-41.5 24.5 -75.5 24.5
h-87v-183z" />
    <glyph glyph-name="uni044D" unicode="&#x44d;" horiz-adv-x="544" 
d="M30 64l38 68.999c42.667 -43.333 95.667 -65 159 -65c46.667 0 86.5 13.833 119.5 41.5s52.833 63.834 59.5 108.501h-242v70h242c-6.66699 45.333 -26.334 81.833 -59.001 109.5s-71.667 41.5 -117 41.5c-56 0 -104.667 -19.667 -146 -59l-44 67
c21.333 23.333 49.5 41 84.5 53s71.167 18 108.5 18c78 0 142.167 -25.167 192.5 -75.5s75.5 -113.5 75.5 -189.5c0 -76.667 -25.167 -140 -75.5 -190s-115.166 -75 -194.499 -75c-81.333 0 -148.333 25.333 -201 76z" />
    <glyph glyph-name="uni044E" unicode="&#x44e;" horiz-adv-x="828" 
d="M75 0l-0.000976562 506h97v-212h92c9.33301 65.333 38 119 86 161s105.333 63 172 63c74 0 136.5 -25 187.5 -75s76.5 -113 76.5 -189s-25.333 -139.333 -76 -190s-113 -76 -187 -76c-66.667 0 -124.167 21.167 -172.5 63.5s-77.166 96.5 -86.499 162.5h-92v-214h-97z
M357.999 254c0 -52.667 15.833 -96.167 47.5 -130.5s70.834 -51.5 117.501 -51.5c46 0 84.833 17.167 116.5 51.5s47.5 77.833 47.5 130.5c0 52 -15.833 95 -47.5 129s-70.5 51 -116.5 51c-46.667 0 -85.834 -17 -117.501 -51s-47.5 -77 -47.5 -129z" />
    <glyph glyph-name="uni044F" unicode="&#x44f;" horiz-adv-x="512" 
d="M24 0l117 167.999l23 31v1c-30.667 8.66699 -56.667 26.167 -78 52.5s-32 57.833 -32 94.5c0 50.667 16.5 89.834 49.5 117.501s76.833 41.5 131.5 41.5h202v-506h-97v183h-85l-124 -183h-107zM256 253.999h84v185h-81c-71.333 0 -107 -30.333 -107 -91
c0 -30.667 9.66699 -54 29 -70s44.333 -24 75 -24z" />
    <glyph glyph-name="uni0450" unicode="&#x450;" horiz-adv-x="557" 
d="M42 253c0 79.333 23.999 143.335 71.999 192.002s108.667 73 182 73c68.667 0 122.334 -22.5 161.001 -67.5s58 -101.5 58 -169.5c0 -8.66699 -1.33301 -22.334 -4 -41.001h-368c2.66699 -52.667 20.5 -93.834 53.5 -123.501s73.167 -44.5 120.5 -44.5
c55.333 0 105 19.667 149 59l41 -71c-24 -22 -53.833 -39.5 -89.5 -52.5s-71.167 -19.5 -106.5 -19.5c-78.667 0 -143.167 25.167 -193.5 75.5s-75.5 113.5 -75.5 189.5zM145.999 310.002h271c-1.33301 42 -13.5 74.667 -36.5 98s-51.833 35 -86.5 35
c-38 0 -70.5 -11.833 -97.5 -35.5s-43.833 -56.167 -50.5 -97.5zM267.999 580.002l-95 127h104l73 -127h-82z" />
    <glyph glyph-name="uni0451" unicode="&#x451;" horiz-adv-x="557" 
d="M335 606v101h79v-101h-79zM167 606v101h80v-101h-80zM42 253c0 79.333 23.999 143.335 71.999 192.002s108.667 73 182 73c68.667 0 122.334 -22.5 161.001 -67.5s58 -101.5 58 -169.5c0 -8.66699 -1.33301 -22.334 -4 -41.001h-368
c2.66699 -52.667 20.5 -93.834 53.5 -123.501s73.167 -44.5 120.5 -44.5c55.333 0 105 19.667 149 59l41 -71c-24 -22 -53.833 -39.5 -89.5 -52.5s-71.167 -19.5 -106.5 -19.5c-78.667 0 -143.167 25.167 -193.5 75.5s-75.5 113.5 -75.5 189.5zM145.999 310.002h271
c-1.33301 42 -13.5 74.667 -36.5 98s-51.833 35 -86.5 35c-38 0 -70.5 -11.833 -97.5 -35.5s-43.833 -56.167 -50.5 -97.5z" />
    <glyph glyph-name="uni0452" unicode="&#x452;" horiz-adv-x="603" 
d="M75 0l-0.00292969 553.001h-63v71h63v82h97v-82h206v-71h-206v-163l-2 -42h2c13.333 28.667 36.5 54.667 69.5 78s72.5 35 118.5 35c115.333 0 173 -64.667 173 -194v-271c0 -33.333 -4.66699 -63 -14 -89s-20.666 -46.167 -33.999 -60.5s-29 -26 -47 -35
s-34.167 -14.833 -48.5 -17.5s-28.833 -4 -43.5 -4l-41 3v83c8.66699 -1.33301 18.334 -2 29.001 -2c11.333 0 22 1.5 32 4.5s20.833 8.33301 32.5 16s20.834 20.167 27.501 37.5s10 38.666 10 63.999v249c0 40.667 -6.5 72 -19.5 94s-38.167 33 -75.5 33
c-38 0 -71.667 -11.667 -101 -35s-49.333 -53.333 -60 -90c-5.33301 -18 -8 -40.333 -8 -67v-180h-97z" />
    <glyph glyph-name="uni0453" unicode="&#x453;" horiz-adv-x="413" 
d="M172 580l72 127h105l-96 -127h-81zM75 0v506h317v-83h-220v-423h-97z" />
    <glyph glyph-name="uni0454" unicode="&#x454;" horiz-adv-x="545" 
d="M42 253c0 75.333 25.502 138.332 76.502 188.999s115.833 76 194.5 76c38 0 73 -6 105 -18s54.333 -24 67 -36l19 -17l-45 -68c-4 4 -9.83301 9.33301 -17.5 16s-24 15.334 -49 26.001s-50.5 16 -76.5 16c-46.667 0 -86.334 -13.167 -119.001 -39.5
s-52.334 -61.5 -59.001 -105.5h241v-70h-242c6 -46.667 25.667 -84 59 -112s74.333 -42 123 -42c29.333 0 57.166 5.66699 83.499 17s45.5 23 57.5 35l18 17l38 -70l-8.5 -8.5c-3.66699 -3.66699 -12 -10 -25 -19s-26.667 -17 -41 -24s-33.166 -13.333 -56.499 -19
s-47.333 -8.5 -72 -8.5c-79.333 0 -144.333 25 -195 75s-76 113.333 -76 190z" />
    <glyph glyph-name="uni0455" unicode="&#x455;" horiz-adv-x="447" 
d="M32 62l45.999 66.001c40.667 -39.333 90.334 -59 149.001 -59c26 0 46.833 5.83301 62.5 17.5s23.5 27.834 23.5 48.501c0 17.333 -9 32.333 -27 45s-39.667 23.667 -65 33s-50.666 19.666 -75.999 30.999s-47 27.833 -65 49.5s-27 47.834 -27 78.501
c0 46 17.333 81.833 52 107.5s78 38.5 130 38.5c68 0 122.667 -18.667 164 -56l-39 -70c-14.667 14 -33.834 25 -57.501 33s-47.167 12 -70.5 12c-26 0 -46.833 -5.33301 -62.5 -16s-23.5 -26.334 -23.5 -47.001c0 -18 9 -33.333 27 -46s39.667 -23.5 65 -32.5
s50.833 -19.167 76.5 -30.5s47.5 -27.833 65.5 -49.5s27 -47.834 27 -78.501c0 -43.333 -17 -79 -51 -107s-77.667 -42 -131 -42c-80 0 -144.333 24.667 -193 74z" />
    <glyph glyph-name="uni0456" unicode="&#x456;" horiz-adv-x="246" 
d="M73 608v98h100v-98h-100zM75 0v506h97v-506h-97z" />
    <glyph glyph-name="uni0457" unicode="&#x457;" horiz-adv-x="246" 
d="M169 606v101h79v-101h-79zM1 606v101h80v-101h-80zM75 0v506h97v-506h-97z" />
    <glyph glyph-name="uni0458" unicode="&#x458;" horiz-adv-x="246" 
d="M73 608v98h100v-98h-100zM75 -11l0.00195312 517h97v-523c0 -32 -4.83301 -60 -14.5 -84s-21.334 -42.5 -35.001 -55.5s-30 -23.5 -49 -31.5s-35.833 -13 -50.5 -15s-29.667 -3 -45 -3c-6.66699 0 -18 0.666992 -34 2v83c6.66699 -1.33301 14 -2 22 -2
c12 0 23.333 1.33301 34 4s22.167 7.5 34.5 14.5s22.166 18.5 29.499 34.5s11 35.667 11 59z" />
    <glyph glyph-name="uni0459" unicode="&#x459;" horiz-adv-x="753" 
d="M26 -5v87.001c39.333 5.33301 68.333 28.666 87 69.999s28 106 28 194v160h300v-190h100c56 0 100.667 -13.167 134 -39.5s50 -66.5 50 -120.5c0 -48 -15.5 -86 -46.5 -114s-77.5 -42 -139.5 -42h-195v426h-110v-77c0 -120 -16 -208 -48 -264s-85.333 -86 -160 -90z
M441 70.001h89c33.333 0 58.166 7.66699 74.499 23s24.5 36.333 24.5 63c0 27.333 -8.16699 49 -24.5 65s-41.166 24 -74.499 24h-89v-175z" />
    <glyph glyph-name="uni045A" unicode="&#x45a;" horiz-adv-x="817" 
d="M75 0v506h97v-193h236v193h97v-194h96c56 0 101.333 -12.833 136 -38.5s52 -64.5 52 -116.5c0 -48.667 -15.5 -87 -46.5 -115s-77.5 -42 -139.5 -42h-195v235h-236v-235h-97zM505 70h89c66.667 0 100 29 100 87c0 56.667 -34.667 85 -104 85h-85v-172z" />
    <glyph glyph-name="uni045B" unicode="&#x45b;" horiz-adv-x="603" 
d="M75 0v553h-63v71h63v82h97v-82h206v-71h-206v-163l-2 -42h2c13.333 29.333 36.5 55.5 69.5 78.5s72.5 34.5 118.5 34.5c59.333 0 103 -16 131 -48s42 -80.333 42 -145v-268h-97v246c0 40.667 -6.5 71.834 -19.5 93.501s-38.167 32.5 -75.5 32.5
c-38 0 -71.667 -11.5 -101 -34.5s-49.333 -52.833 -60 -89.5c-5.33301 -18.667 -8 -41.334 -8 -68.001v-180h-97z" />
    <glyph glyph-name="uni045C" unicode="&#x45c;" horiz-adv-x="522" 
d="M217 580l72 127h105l-96 -127h-81zM75 0v506h97v-204h71l138 204h110l-169 -241v-2l189 -263h-115l-151 219h-73v-219h-97z" />
    <glyph glyph-name="uni045D" unicode="&#x45d;" horiz-adv-x="598" 
d="M75 0l0.000976562 505.999h93v-302c0 -35.333 -1 -58 -3 -68h2c3.33301 8 18.333 30.667 45 68l218 302h94v-506h-94v302c0 9.33301 0.5 22.5 1.5 39.5s1.5 26.167 1.5 27.5h-2c-0.666992 -1.33301 -15.334 -23.666 -44.001 -66.999l-219 -302h-93zM279.001 579.999
l-95 127h104l73 -127h-82z" />
    <glyph glyph-name="uni045E" unicode="&#x45e;" horiz-adv-x="535" 
d="M50 -105c18.667 -14.667 37.999 -21.999 57.999 -21.999c40.667 0 71.334 25 92.001 75l25 58l-212 500h109l127 -331l19 -61h2c5.33301 22.667 11 42.667 17 60l123 332h105l-238 -597c-14.667 -38.667 -36.5 -68.167 -65.5 -88.5s-61.833 -30.5 -98.5 -30.5
c-16.667 0 -33 2.66699 -49 8s-28 10.666 -36 15.999l-12 7zM267.999 564.001c-40.667 0 -75.5 11.501 -104.5 34.501s-43.5 54.167 -43.5 93.5v15h78v-14c0 -20.667 7 -36.834 21 -48.501s30.333 -17.5 49 -17.5c19.333 0 36 5.83301 50 17.5s21 28.167 21 49.5v13h77v-15
c0 -39.333 -14.333 -70.5 -43 -93.5s-63.667 -34.5 -105 -34.5z" />
    <glyph glyph-name="uni045F" unicode="&#x45f;" horiz-adv-x="575" 
d="M75 0v506h97v-422h231v422h96v-506h-167v-120h-89v120h-168z" />
    <glyph glyph-name="uni0462" unicode="&#x462;" horiz-adv-x="689" 
d="M190 0v539h-178v79h179v103h97v-103h204v-79h-204v-116h151c64 0 116.5 -19 157.5 -57s61.5 -88.667 61.5 -152c0 -64 -20.5 -115.667 -61.5 -155s-93.167 -59 -156.5 -59h-250zM288 86l136 0.000976562c40 0 72.167 11.333 96.5 34s36.5 54 36.5 94
c0 37.333 -12.333 67.166 -37 89.499s-57 33.5 -97 33.5h-135v-251z" />
    <glyph glyph-name="uni0463" unicode="&#x463;" horiz-adv-x="535" 
d="M120 0l0.000976562 459h-121v73h121v174h97v-174h166v-73h-166v-136h105c55.333 0 99.666 -13.5 132.999 -40.5s50 -67.833 50 -122.5c0 -49.333 -15.333 -88.333 -46 -117s-76.667 -43 -138 -43h-201zM217.001 70h90c34 0 59.333 8.16699 76 24.5s25 38.5 25 66.5
s-8.33301 50.333 -25 67s-42 25 -76 25h-90v-183z" />
    <glyph glyph-name="uni0472" unicode="&#x472;" horiz-adv-x="823" 
d="M49 358c0 102 34.667 187.5 104 256.5s155.666 103.5 258.999 103.5s189.5 -34.5 258.5 -103.5s103.5 -154.5 103.5 -256.5c0 -104.667 -34.5 -192.5 -103.5 -263.5s-155.167 -106.5 -258.5 -106.5s-189.666 35.5 -258.999 106.5s-104 158.833 -104 263.5zM412 76
c68 0 126.168 22.667 174.501 68s76.833 103 85.5 173h-521c9.33301 -70 38.166 -127.667 86.499 -173s106.5 -68 174.5 -68zM412.001 630c-68 0 -126.331 -22 -174.998 -66s-77.334 -100 -86.001 -168h521c-8.66699 68 -37.334 124 -86.001 168s-106.667 66 -174 66z" />
    <glyph glyph-name="uni0473" unicode="&#x473;" horiz-adv-x="629" 
d="M42 254c0 75.333 26.332 138.167 78.999 188.5s117 75.5 193 75.5c76.667 0 141.334 -25 194.001 -75s79 -113 79 -189s-26.333 -139.333 -79 -190s-117 -76 -193 -76s-140.5 25.333 -193.5 76s-79.5 114 -79.5 190zM314.999 63.001c46 0 85.832 15 119.499 45
s53.834 69 60.501 117h-360c6 -48 26 -87 60 -117s74 -45 120 -45zM314.998 443.001c-46 0 -85.8311 -14.5 -119.498 -43.5s-53.834 -66.5 -60.501 -112.5h359c-6.66699 46 -26.834 83.5 -60.501 112.5s-73.167 43.5 -118.5 43.5z" />
    <glyph glyph-name="uni0474" unicode="&#x474;" horiz-adv-x="688" 
d="M270 0l-257.999 706h107l175 -499l27 -97h2c9.33301 39.333 18.333 71.666 27 96.999l141 420c11.333 34 24.666 55.667 39.999 65s41.333 14 78 14h66v-87h-23c-14 0 -23.667 -0.166992 -29 -0.5s-11.666 -2.16602 -18.999 -5.49902s-13.333 -8.83301 -18 -16.5
s-9.33398 -18.167 -14.001 -31.5l-198 -565h-104z" />
    <glyph glyph-name="uni0475" unicode="&#x475;" horiz-adv-x="564" 
d="M208 0l-189.001 506h102l123 -342l18 -69h2c6 27.333 12 50.333 18 69l84 251c11.333 34 25.833 57.667 43.5 71s43.834 20 78.501 20h57v-85h-22c-22 0 -37.833 -3.5 -47.5 -10.5s-18.5 -21.833 -26.5 -44.5l-129 -366h-112z" />
    <glyph glyph-name="uni048A" unicode="&#x48a;" horiz-adv-x="790" 
d="M93 0l0.000976562 706h99v-458l-6 -103h2c23.333 44 43.333 78.667 60 104l313 457h97v-620h109v-57l-72 -169h-72l42 140h-105v458l6 103h-2c-22.667 -42.667 -42.334 -77 -59.001 -103l-315 -458h-97zM381.001 739c-40.667 0 -75.5 11.501 -104.5 34.501
s-43.5 54.167 -43.5 93.5v15h78v-14c0 -20.667 7 -36.834 21 -48.501s30.333 -17.5 49 -17.5c19.333 0 36 5.83301 50 17.5s21 28.167 21 49.5v13h77v-15c0 -39.333 -14.333 -70.5 -43 -93.5s-63.667 -34.5 -105 -34.5z" />
    <glyph glyph-name="uni048B" unicode="&#x48b;" horiz-adv-x="640" 
d="M75 0l0.000976562 505.999h93v-302c0 -35.333 -1 -58 -3 -68h2c3.33301 8 18.333 30.667 45 68l218 302h94v-423h92v-55l-62 -148h-69l36 120h-91v302c0 9.33301 0.5 22.5 1.5 39.5s1.5 26.167 1.5 27.5h-2c-0.666992 -1.33301 -15.334 -23.666 -44.001 -66.999
l-219 -302h-93zM303.001 563.999c-40.667 0 -75.5 11.501 -104.5 34.501s-43.5 54.167 -43.5 93.5v15h78v-14c0 -20.667 7 -36.834 21 -48.501s30.333 -17.5 49 -17.5c19.333 0 36 5.83301 50 17.5s21 28.167 21 49.5v13h77v-15c0 -39.333 -14.333 -70.5 -43 -93.5
s-63.667 -34.5 -105 -34.5z" />
    <glyph glyph-name="uni048C" unicode="&#x48c;" horiz-adv-x="677" 
d="M173 0v570h-162v77h164v103h97v-103h184v-77h-184v-142h157c63.333 0 115.5 -19.5 156.5 -58.5s61.5 -90.833 61.5 -155.5c0 -64 -20.5 -115.667 -61.5 -155s-92.833 -59 -155.5 -59h-257zM272 86h141c40 0 72.167 11.333 96.5 34s36.5 54 36.5 94
c0 39.333 -12.333 70.5 -37 93.5s-57 34.5 -97 34.5h-140v-256z" />
    <glyph glyph-name="uni048D" unicode="&#x48d;" horiz-adv-x="540" 
d="M125 0l0.000976562 459h-121v73h121v174h97v-174h166v-73h-166v-136h105c55.333 0 99.666 -13.5 132.999 -40.5s50 -67.833 50 -122.5c0 -49.333 -15.333 -88.333 -46 -117s-76.667 -43 -138 -43h-201zM222.001 70h90c34 0 59.333 8.16699 76 24.5s25 38.5 25 66.5
s-8.33301 50.333 -25 67s-42 25 -76 25h-90v-183z" />
    <glyph glyph-name="uni048E" unicode="&#x48e;" horiz-adv-x="622" 
d="M93 0v706h259c65.333 0 118.5 -20.167 159.5 -60.5s61.5 -93.833 61.5 -160.5c0 -68.667 -21.667 -123.667 -65 -165l59 -78l-54 -45l-64 83c-30.667 -12.667 -63 -19 -97 -19h-160v-261h-99zM329 438l56 44.999l69 -92c17.333 24.667 26 54.334 26 89.001
c0 44 -12.333 78.333 -37 103s-59 37 -103 37h-148v-281h147c22 0 41.333 3 58 9z" />
    <glyph glyph-name="uni048F" unicode="&#x48f;" horiz-adv-x="609" 
d="M75 -200l-0.00292969 706.001h90v-45l-3 -38h2l5.5 10.5c2.33301 4.33301 8.33301 11.833 18 22.5s20.334 20.167 32.001 28.5s27.834 16 48.501 23s42.667 10.5 66 10.5c68 0 122 -24.333 162 -73s60 -112.667 60 -192c0 -76 -19.667 -138.333 -59 -187l55 -65l-54 -47
l-55 65c-35.333 -20.667 -74 -31 -116 -31c-20.667 0 -40.167 3 -58.5 9s-33.166 13.167 -44.499 21.5s-21.333 16.666 -30 24.999s-14.667 15.5 -18 21.5l-6 9h-2c2.66699 -12 4 -26.667 4 -44v-230h-97zM317.997 170.001l54.001 47l65 -79c18.667 30 28 67 28 111
c0 56 -13.5 100.667 -40.5 134s-62.5 50 -106.5 50c-42.667 0 -78.167 -15.333 -106.5 -46s-42.5 -77 -42.5 -139c0 -48.667 13 -90.667 39 -126s62 -53 108 -53c25.333 0 48.666 6 69.999 18z" />
    <glyph glyph-name="uni0490" unicode="&#x490;" horiz-adv-x="503" 
d="M93 0v706h314v97h83v-183h-298v-620h-99z" />
    <glyph glyph-name="uni0491" unicode="&#x491;" horiz-adv-x="413" 
d="M75 0v506h240v91h78v-174h-221v-423h-97z" />
    <glyph glyph-name="uni0492" unicode="&#x492;" horiz-adv-x="506" 
d="M99 0v309h-61v73h61v324h388v-86h-290v-238h160v-73h-160v-309h-98z" />
    <glyph glyph-name="uni0493" unicode="&#x493;" horiz-adv-x="420" 
d="M78 0v208h-62v66h62v232h318v-83h-221v-149h129v-66h-129v-208h-97z" />
    <glyph glyph-name="uni0494" unicode="&#x494;" horiz-adv-x="611" 
d="M93 0l0.000976562 705.999h390v-86h-291v-228c41.333 19.333 86.666 29 135.999 29c161.333 0 242 -94.667 242 -284c0 -107.333 -22.833 -186.666 -68.5 -237.999s-108.167 -77 -187.5 -77v81c102 0 153 78 153 234c0 70 -12.667 120.5 -38 151.5
s-65.333 46.5 -120 46.5c-35.333 0 -74.333 -9 -117 -27v-308h-99z" />
    <glyph glyph-name="uni0495" unicode="&#x495;" horiz-adv-x="503" 
d="M75 0v505.999h324v-79h-227v-164c36.667 16.667 73.667 25 111 25c64.667 0 112.167 -20.667 142.5 -62s45.5 -92.333 45.5 -153c0 -121.333 -50.333 -214.666 -151 -279.999l-47 68c69.333 46 104 114.667 104 206c0 93.333 -37.667 140 -113 140
c-33.333 0 -64 -8.66699 -92 -26v-181h-97z" />
    <glyph glyph-name="uni0496" unicode="&#x496;" horiz-adv-x="938" 
d="M18 0l205 369v2l-191 335h108l165 -297h92v297h98v-297h93l164 297h108l-191 -335v-2l158 -283h96v-226h-89v140h-71l-175 323h-93v-323h-98v323h-92l-176 -323h-111z" />
    <glyph glyph-name="uni0497" unicode="&#x497;" horiz-adv-x="792" 
d="M17 0l163 260v2l-149 244h103l124 -207h72v207h92v-207h72l125 207h102l-148 -244v-2l110 -176h90v-204h-89v120h-57l-132 216h-73v-216h-92v216h-72l-133 -216h-108z" />
    <glyph glyph-name="uni0498" unicode="&#x498;" horiz-adv-x="548" 
d="M27 84l54.999 67.0029c20 -21.333 44.833 -39 74.5 -53s60.167 -21 91.5 -21c44 0 79.5 11.5 106.5 34.5s40.5 54.167 40.5 93.5c0 36 -12.167 64.5 -36.5 85.5s-56.166 31.5 -95.499 31.5h-87v82h70c36 0 66.167 10.667 90.5 32s36.5 48.666 36.5 81.999
c0 32.667 -10.5 59.667 -31.5 81s-52.167 32 -93.5 32c-58 0 -110.667 -20 -158 -60l-42 74c58.667 48.667 130 73 214 73c62 0 112.833 -16.833 152.5 -50.5s59.5 -79.5 59.5 -137.5c0 -72 -34 -125 -102 -159v-2c38 -10.667 68.167 -30.834 90.5 -60.501
s33.5 -65.834 33.5 -108.501c0 -56 -17.833 -102.5 -53.5 -139.5s-81.5 -59.833 -137.5 -68.5v-132h-90v131c-79.333 10 -142 41 -188 93z" />
    <glyph glyph-name="uni0499" unicode="&#x499;" horiz-adv-x="450" 
d="M26 62l44.999 64c38 -40 82 -60 132 -60c30.667 0 55.834 7.16699 75.501 21.5s29.5 34.833 29.5 61.5c0 51.333 -34.667 77 -104 77h-62v70h53c64 0 96 24.333 96 73c0 23.333 -8 41.333 -24 54s-38 19 -66 19c-42.667 0 -83.667 -14.667 -123 -44l-36 65
c49.333 36.667 108 55 176 55c50 0 91 -12 123 -36s48 -57.667 48 -101c0 -56 -24.667 -94.333 -74 -115v-2c60.667 -19.333 91 -59 91 -119c0 -41.333 -13 -75 -39 -101s-60 -43 -102 -51v-113h-87v110c-60 7.33301 -110.667 31.333 -152 72z" />
    <glyph glyph-name="uni049A" unicode="&#x49a;" horiz-adv-x="659" 
d="M93 0v706h99v-297h105l179 297h109l-206 -335v-2l168 -283h97v-226h-89v140h-70l-188 323h-105v-323h-99z" />
    <glyph glyph-name="uni049B" unicode="&#x49b;" horiz-adv-x="557" 
d="M75 0v506h97v-204h71l138 204h110l-169 -241v-2l128 -179h89v-204h-89v120h-54l-151 219h-73v-219h-97z" />
    <glyph glyph-name="uni049C" unicode="&#x49c;" horiz-adv-x="702" 
d="M93 0v706h99v-297h71v120h74v-120h48l178 297h109l-205 -335v-2l219 -369h-113l-188 323h-48v-121h-74v121h-71v-323h-99z" />
    <glyph glyph-name="uni049D" unicode="&#x49d;" horiz-adv-x="598" 
d="M75 0v506h97v-204h54v102h70v-102h23l138 204h110l-168 -241v-2l188 -263h-114l-151 219h-26v-104h-70v104h-54v-219h-97z" />
    <glyph glyph-name="uni049E" unicode="&#x49e;" horiz-adv-x="619" 
d="M16 525v71h80v110h99v-110h95v-71h-95v-116h105l179 297h109l-206 -335v-2l219 -369h-113l-188 323h-105v-323h-99v525h-80z" />
    <glyph glyph-name="uni049F" unicode="&#x49f;" horiz-adv-x="522" 
d="M75 0v529h-62v68h62v109h97v-109h113v-68h-113v-213h72l137 190h110l-168 -227v-2l187 -277h-113l-151 232h-74v-232h-97z" />
    <glyph glyph-name="uni04A0" unicode="&#x4a0;" horiz-adv-x="750" 
d="M229 0v620h-212v86h310v-297h106l178 297h109l-206 -335v-2l219 -369h-112l-188 323h-106v-323h-98z" />
    <glyph glyph-name="uni04A1" unicode="&#x4a1;" horiz-adv-x="593" 
d="M147 0v423h-137v83h234v-204h71l138 204h109l-168 -241v-2l189 -263h-115l-151 219h-73v-219h-97z" />
    <glyph glyph-name="uni04A2" unicode="&#x4a2;" horiz-adv-x="785" 
d="M93 0v706h99v-310h367v310h98v-620h98v-226h-90v140h-106v310h-367v-310h-99z" />
    <glyph glyph-name="uni04A3" unicode="&#x4a3;" horiz-adv-x="633" 
d="M75 0v506h97v-206h256v206h97v-422h85v-204h-89v120h-93v217h-256v-217h-97z" />
    <glyph glyph-name="uni04A4" unicode="&#x4a4;" horiz-adv-x="932" 
d="M93 0v706h99v-310h338v310h388v-86h-290v-620h-98v310h-338v-310h-99z" />
    <glyph glyph-name="uni04A5" unicode="&#x4a5;" horiz-adv-x="728" 
d="M75 0v506h97v-206h233v206h302v-83h-205v-423h-97v217h-233v-217h-97z" />
    <glyph glyph-name="uni04A6" unicode="&#x4a6;" horiz-adv-x="997" 
d="M93 0l0.000976562 706h490v-304c41.333 19.333 86.666 29 135.999 29c160.667 0 241 -98 241 -294c0 -210 -85 -315 -255 -315v81c102 0 153 78 153 234c0 74.667 -12.667 128.667 -38 162s-65.333 50 -120 50c-34 0 -73 -9.33301 -117 -28v-321h-98v621h-293v-621h-99z
" />
    <glyph glyph-name="uni04A7" unicode="&#x4a7;" horiz-adv-x="816" 
d="M75 0l0.000976562 506.001h397v-214c36 17.333 73.333 26 112 26c65.333 0 115.166 -21.833 149.499 -65.5s51.5 -98.5 51.5 -164.5c0 -128.667 -50.333 -227 -151 -295l-47 68c69.333 47.333 104 121.666 104 222.999c0 100.667 -40.667 151 -122 151
c-36 0 -68.333 -8.66699 -97 -26v-209h-97v423h-203v-423h-97z" />
    <glyph glyph-name="uni04A8" unicode="&#x4a8;" horiz-adv-x="936" 
d="M51 364c0 50 7.83496 96.3369 23.502 139.004s36.167 78 61.5 106s52 51.167 80 69.5s56.667 31.5 86 39.5l34 -89c-50.667 -17.333 -94.167 -48.833 -130.5 -94.5s-54.5 -103.5 -54.5 -173.5c0 -78.667 22.833 -145.334 68.5 -200.001s109.5 -82 191.5 -82
c37.333 0 74 5.66699 110 17c-49.333 36.667 -87.833 81.667 -115.5 135s-41.5 112.666 -41.5 177.999c0 91.333 25.667 163.666 77 216.999s112.666 80 183.999 80c74.667 0 135.667 -26 183 -78s71 -122.667 71 -212c0 -60.667 -15.333 -118.834 -46 -174.501
s-72.334 -104.167 -125.001 -145.5c36 -9.33301 74.333 -14 115 -14h47v-82h-48c-70 0 -137.333 13 -202 39c-66.667 -34 -136.667 -51 -210 -51c-105.333 0 -191.5 34.5 -258.5 103.5s-100.5 159.833 -100.5 272.5zM466.002 410.004c0 -58 12.5 -110.666 37.5 -157.999
s60.5 -85.333 106.5 -114c50.667 32 91.167 72.5 121.5 121.5s45.5 100.833 45.5 155.5c0 65.333 -14.5 115.166 -43.5 149.499s-65.5 51.5 -109.5 51.5c-41.333 0 -78 -17.667 -110 -53s-48 -86.333 -48 -153z" />
    <glyph glyph-name="uni04A9" unicode="&#x4a9;" horiz-adv-x="782" 
d="M43 261c0 67.333 18.3311 122.834 54.998 166.501s79.334 73.834 128.001 90.501l33 -79c-34 -14 -63.167 -36.5 -87.5 -67.5s-36.5 -68.5 -36.5 -112.5c0 -54 16.833 -99.333 50.5 -136s83.834 -55 150.501 -55c29.333 0 58.333 4 87 12
c-80 57.333 -120 131.666 -120 222.999c0 60.667 20.333 111.667 61 153s92.667 62 156 62c62.667 0 113 -19 151 -57s57 -86.667 57 -146c0 -86 -41.667 -163 -125 -231c23.333 -4.66699 49.333 -7 78 -7h53v-77h-49c-58 0 -114 10 -168 30c-58 -28 -118.667 -42 -182 -42
c-92 0 -163.667 25.667 -215 77s-77 116.666 -77 195.999zM394.998 305.001c0 -40.667 10.3311 -77.167 30.998 -109.5s49.334 -58.5 86.001 -78.5c37.333 22 67.333 49.667 90 83s34 70 34 110c0 40.667 -10.667 72.667 -32 96s-50 35 -86 35
c-35.333 0 -64.666 -12.833 -87.999 -38.5s-35 -58.167 -35 -97.5z" />
    <glyph glyph-name="uni04AA" unicode="&#x4aa;" horiz-adv-x="717" 
d="M50 357c0 103.333 33.8359 189.333 101.503 258s153.5 103 257.5 103c107.333 0 193.333 -31 258 -93l-50 -74c-26 23.333 -57.5 42 -94.5 56s-73.5 21 -109.5 21c-80 0 -143.5 -25.667 -190.5 -77s-70.5 -115.666 -70.5 -192.999c0 -78 24 -144 72 -198
s111.667 -81 191 -81c39.333 0 78.166 8.16699 116.499 24.5s71.833 38.833 100.5 67.5l53 -71c-66.667 -66.667 -146.334 -103.334 -239.001 -110.001v-130h-90v132c-92.667 12 -166.834 51.833 -222.501 119.5s-83.5 149.5 -83.5 245.5z" />
    <glyph glyph-name="uni04AB" unicode="&#x4ab;" horiz-adv-x="546" 
d="M42 253c0 75.333 25.502 138.331 76.502 188.998s115.833 76 194.5 76c80 0 143.333 -24.667 190 -74l-46 -68c-38.667 38.667 -85.334 58 -140.001 58c-50.667 0 -92.667 -17.167 -126 -51.5s-50 -77.166 -50 -128.499c0 -52 16.833 -95.333 50.5 -130
s76.5 -52 128.5 -52c28 0 56.167 6.16699 84.5 18.5s52.166 28.833 71.499 49.5l39 -71c-42 -44 -98.333 -70.333 -169 -79v-110h-87v113c-65.333 10.667 -117.833 39.834 -157.5 87.501s-59.5 105.167 -59.5 172.5z" />
    <glyph glyph-name="uni04AC" unicode="&#x4ac;" horiz-adv-x="617" 
d="M256 0l1 2v618h-243v86h584v-86h-243v-534h98v-226h-90v140h-107z" />
    <glyph glyph-name="uni04AD" unicode="&#x4ad;" horiz-adv-x="496" 
d="M197 0v423h-176v83h449v-83h-177v-339h85v-204h-89v120h-92z" />
    <glyph glyph-name="uni04AE" unicode="&#x4ae;" horiz-adv-x="580" 
d="M241 0v299l-237 407h112l130 -232l43 -89h2c14 32 28.333 61.667 43 89l130 232h112l-237 -407v-299h-98z" />
    <glyph glyph-name="uni04AF" unicode="&#x4af;" horiz-adv-x="526" 
d="M215 23l-196.999 483.001h102l123 -314l19 -67h2c5.33301 25.333 11.666 47.666 18.999 66.999l123 314h102l-197 -483v-223h-96v223z" />
    <glyph glyph-name="uni04B0" unicode="&#x4b0;" horiz-adv-x="580" 
d="M119 233v73h118l-233 400h112l130 -232l43 -89h2c14 32 28.333 61.667 43 89l130 232h112l-233 -400h120v-73h-124v-233h-98v233h-122z" />
    <glyph glyph-name="uni04B1" unicode="&#x4b1;" horiz-adv-x="525" 
d="M99 0l0.000976562 71.001h96l-177 435h103l122 -314l19 -67h2c5.33301 25.333 11.666 47.666 18.999 66.999l121 314h102l-176 -435h98v-71h-117v-200h-96v200h-116z" />
    <glyph glyph-name="uni04B2" unicode="&#x4b2;" horiz-adv-x="643" 
d="M16 0l222.001 364l-208 342h113l111 -191l45 -84h2c13.333 30 27.666 58 42.999 84l112 191h114l-210 -342l170 -278h99v-226h-90v140h-67l-129 217l-44 81h-2c-14 -28 -28.333 -55 -43 -81l-128 -217h-110z" />
    <glyph glyph-name="uni04B3" unicode="&#x4b3;" horiz-adv-x="533" 
d="M17 0l172.999 260l-163 246h111l94 -154l16 -30h2c6.66699 11.333 12.334 21.333 17.001 30l94 154h111l-163 -246l117 -176h86v-204h-89v120h-51l-106 169l-16 27h-2c-4.66699 -10 -9.66699 -19 -15 -27l-106 -169h-110z" />
    <glyph glyph-name="uni04B4" unicode="&#x4b4;" horiz-adv-x="902" 
d="M229 0v620h-212v86h522v-86h-212v-534h353v620h98v-620h91v-226h-89v140h-551z" />
    <glyph glyph-name="uni04B5" unicode="&#x4b5;" horiz-adv-x="732" 
d="M177 0v423h-155v83h409v-83h-157v-339h259v422h97v-422h75v-203h-89v119h-439z" />
    <glyph glyph-name="uni04B6" unicode="&#x4b6;" horiz-adv-x="673" 
d="M264 271c-71.333 0 -124.667 17.667 -160 53s-53 86.333 -53 153v229h100v-208c0 -45.333 10.667 -79.5 32 -102.5s55.333 -34.5 102 -34.5c58.667 0 112 16 160 48v297h100v-620h97v-226h-89v140h-108v286l2 33h-2c-60.667 -32 -121 -48 -181 -48z" />
    <glyph glyph-name="uni04B7" unicode="&#x4b7;" horiz-adv-x="559" 
d="M213 176c-54.667 0 -96.666 14.168 -125.999 42.501s-44 69.166 -44 122.499v165h95v-151c0 -28.667 7.33301 -51.667 22 -69s41 -26 79 -26c41.333 0 78.666 12 111.999 36v210h97v-422h88v-204h-88v120h-97v183l1 30h-2c-39.333 -24.667 -85 -37 -137 -37z" />
    <glyph glyph-name="uni04B8" unicode="&#x4b8;" horiz-adv-x="654" 
d="M271 168l0.00195312 105.999c-74.667 0 -130.334 17.667 -167.001 53s-55 86.333 -55 153v226h100v-208c0 -43.333 9.66699 -76.166 29 -98.499s50.333 -34.833 93 -37.5v140h74v-136c45.333 8.66699 83.666 23 114.999 43v297h100v-706h-100v289l2 33h-2
c-34 -18 -72.333 -31.333 -115 -40v-114h-74z" />
    <glyph glyph-name="uni04B9" unicode="&#x4b9;" horiz-adv-x="547" 
d="M221 178c-56.667 0 -100.5 14 -131.5 42s-46.5 68.333 -46.5 121v165h95v-151c0 -56 28.667 -87.333 86 -94v122h71v-119c30.667 6 57.667 16.667 81 32v210h97v-506h-97v187l2 30h-2c-22.667 -12.667 -49.667 -22.667 -81 -30v-88h-71v79h-3z" />
    <glyph glyph-name="uni04BA" unicode="&#x4ba;" horiz-adv-x="627" 
d="M93 0v706h99v-261l-2 -33h2c58 30.667 119.333 46 184 46c66.667 0 116.334 -18.5 149.001 -55.5s49 -88.167 49 -153.5v-249h-100v233c0 91.333 -41.333 137 -124 137c-58.667 0 -111.334 -15.333 -158.001 -46v-324h-99z" />
    <glyph glyph-name="uni04BB" unicode="&#x4bb;" horiz-adv-x="603" 
d="M75 0v706.001h97v-262l-4 -42h2c14 29.333 37.667 56 71 80s73 36 119 36c115.333 0 173 -64.667 173 -194v-324h-97v302c0 40.667 -6.5 72 -19.5 94s-38.167 33 -75.5 33c-48.667 0 -89 -17.833 -121 -53.5s-48 -80.834 -48 -135.501v-240h-97z" />
    <glyph glyph-name="uni04BC" unicode="&#x4bc;" horiz-adv-x="876" 
d="M38 514c0 32 2.66504 59.668 7.99805 83.001l8 39h90l-8 -40c-5.33301 -24.667 -8 -49 -8 -73c0 -29.333 6.5 -53.5 19.5 -72.5s33.167 -28.5 60.5 -28.5h4c13.333 88.667 49.333 160.167 108 214.5s129.334 81.5 212.001 81.5c89.333 0 160.333 -29.5 213 -88.5
s79 -138.833 79 -239.5l-3 -47h-511c1.33301 -80.667 25.5 -144.834 72.5 -192.501s104.5 -71.5 172.5 -71.5c35.333 0 70.333 6.5 105 19.5s59.5 24.667 74.5 35s27.167 19.833 36.5 28.5l48 -76c-73.333 -65.333 -164.666 -98 -273.999 -98c-96 0 -176 33.167 -240 99.5
s-96.667 151.833 -98 256.5h-3c-52 0 -92.667 14.667 -122 44s-44 71.333 -44 126zM312.998 422.001h409.999c0 58.667 -16.167 108 -48.5 148s-79.833 60 -142.5 60c-60 0 -109.667 -20.333 -149 -61s-62.666 -89.667 -69.999 -147z" />
    <glyph glyph-name="uni04BD" unicode="&#x4bd;" horiz-adv-x="680" 
d="M33 390c0 25.333 4.00195 50.001 12.002 74.001h80c-8 -21.333 -12 -44.333 -12 -69c0 -54 19 -82 57 -84c11.333 63.333 39.833 113.666 85.5 150.999s100.167 56 163.5 56c68.667 0 122.167 -22.5 160.5 -67.5s57.5 -101.5 57.5 -169.5l-3 -41h-369
c2.66699 -52.667 20.667 -93.834 54 -123.501s73.666 -44.5 120.999 -44.5c25.333 0 50.5 5 75.5 15s43.5 19.667 55.5 29l18 15l40 -71c-6 -5.33301 -14.167 -12 -24.5 -20s-32.5 -18.667 -66.5 -32s-68.667 -20 -104 -20c-76.667 0 -139.834 23.833 -189.501 71.5
s-76.167 107.834 -79.5 180.501c-88 0 -132 50 -132 150zM268.002 310.001h270.999c-1.33301 41.333 -13.5 73.5 -36.5 96.5s-51.833 34.5 -86.5 34.5c-37.333 0 -69.666 -11.667 -96.999 -35s-44.333 -55.333 -51 -96z" />
    </font>
</defs>
</svg>
